{
.appVersion = "3343";
copyright = "Copyright 2011 The Brawler Project Authors (https://github.com/cyrealtype/Brawler)";
customParameters = (
{
name = fsType;
value = (
);
},
{
name = "Use Typo Metrics";
value = 1;
},
{
name = "Disable Last Change";
value = 1;
},
{
name = "Use Line Breaks";
value = 1;
},
{
name = license;
value = "This Font Software is licensed under the SIL Open Font License, Version 1.1. This license is available with a FAQ at: http://scripts.sil.org/OFL";
},
{
name = licenseURL;
value = "http://scripts.sil.org/OFL";
},
{
name = trademark;
value = "Brawler is a trademark of Oleg Frolov | Cyreal.";
},
{
name = vendorID;
value = CYRE;
},
{
name = Axes;
value = (
{
Name = Weight;
Tag = wght;
}
);
}
);
date = "2025-02-22 22:01:39 +0000";
designer = "Oleg Frolov, Haley Fiege";
designerURL = "http://cyreal.org";
familyName = Brawler;
featurePrefixes = (
{
automatic = 1;
code = "languagesystem DFLT dflt;
";
name = Languagesystems;
}
);
features = (
{
automatic = 1;
code = "feature sups;
feature frac;
feature ordn;
";
name = aalt;
},
{
automatic = 1;
code = "lookup ccmp_DFLT_1 {
	@CombiningTopAccents = [acutecomb brevecomb caroncomb circumflexcomb dieresiscomb dotaccentcomb gravecomb hungarumlautcomb macroncomb ringcomb tildecomb];
	lookupflag UseMarkFilteringSet @CombiningTopAccents;
	sub i' @CombiningTopAccents by idotless;
} ccmp_DFLT_1;
";
name = ccmp;
},
{
automatic = 1;
code = "sub one by onesuperior;
sub two by twosuperior;
sub three by threesuperior;
sub four by foursuperior;
";
name = sups;
},
{
automatic = 1;
code = "sub one slash four by onequarter;
sub one slash two by onehalf;
sub three slash four by threequarters;
";
name = frac;
},
{
automatic = 1;
code = "sub [zero one two three four five six seven eight nine] [A a]' by ordfeminine;
sub [zero one two three four five six seven eight nine] [O o]' by ordmasculine;
";
name = ordn;
}
);
fontMaster = (
{
alignmentZones = (
"{700, 14}",
"{520, 14}",
"{0, -14}",
"{-225, -14}"
);
ascender = 750;

glyphs = (
{
glyphname = A;
layers = (
{
anchors = (
{
name = bottom;
position = "{416, 0}";
},
{
name = ogonek;
position = "{749, 10}";
},
{
name = top;
position = "{416, 710}";
}
);
background = {
paths = (
{
closed = 1;
nodes = (
"765 45 LINE",
"755 0 LINE",
"525 0 LINE",
"525 35 LINE",
"596 57 LINE",
"532 220 LINE",
"257 220 LINE",
"196 60 LINE",
"277 45 LINE",
"267 0 LINE",
"66 0 LINE",
"66 35 LINE",
"137 60 LINE",
"377 700 LINE",
"451 700 LINE",
"695 62 LINE"
);
},
{
closed = 1;
nodes = (
"277 275 LINE",
"512 275 LINE",
"393 584 LINE"
);
}
);
};
hints = (
{
horizontal = 1;
place = "{205, 80}";
type = Stem;
},
{
horizontal = 1;
place = "{710, -20}";
target = down;
type = TopGhost;
},
{
horizontal = 1;
place = "{0, 21}";
target = up;
type = BottomGhost;
}
);
layerId = "03739D6D-2A00-4CFA-A48A-FF6A1F8AF183";
paths = (
{
closed = 1;
nodes = (
"274 0 LINE",
"284 50 LINE",
"203 65 LINE",
"256 205 LINE",
"531 205 LINE",
"586 62 LINE",
"515 40 LINE",
"515 0 LINE",
"801 0 LINE",
"811 50 LINE",
"741 67 LINE",
"481 710 LINE",
"354 710 LINE",
"118 65 LINE",
"47 40 LINE",
"47 0 LINE"
);
},
{
closed = 1;
nodes = (
"391 577 LINE",
"505 285 LINE",
"283 285 LINE"
);
}
);
width = 832;
},
{
anchors = (
{
name = bottom;
position = "{334, 0}";
},
{
name = ogonek;
position = "{601, 10}";
},
{
name = top;
position = "{334, 700}";
}
);
background = {
paths = (
{
closed = 1;
nodes = (
"684 45 LINE",
"674 0 LINE",
"444 0 LINE",
"444 35 LINE",
"515 57 LINE",
"451 220 LINE",
"176 220 LINE",
"115 60 LINE",
"196 45 LINE",
"186 0 LINE",
"-15 0 LINE",
"-15 35 LINE",
"56 60 LINE",
"296 700 LINE",
"370 700 LINE",
"614 62 LINE"
);
},
{
closed = 1;
nodes = (
"196 275 LINE",
"431 275 LINE",
"312 584 LINE"
);
}
);
};
hints = (
{
place = "{-15, 699}";
type = Stem;
},
{
horizontal = 1;
place = "{0, 35}";
type = Stem;
},
{
horizontal = 1;
place = "{220, 55}";
type = Stem;
},
{
horizontal = 1;
place = "{700, -20}";
target = down;
type = TopGhost;
}
);
layerId = UUID0;
paths = (
{
closed = 1;
nodes = (
"186 0 LINE",
"196 45 LINE",
"115 60 LINE",
"176 220 LINE",
"451 220 LINE",
"515 57 LINE",
"444 35 LINE",
"444 0 LINE",
"674 0 LINE",
"684 45 LINE",
"614 62 LINE",
"370 700 LINE",
"297 700 LINE",
"56 60 LINE",
"-15 35 LINE",
"-15 0 LINE"
);
},
{
closed = 1;
nodes = (
"313 584 LINE",
"431 275 LINE",
"196 275 LINE"
);
}
);
width = 668;
}
);
leftKerningGroup = A;
rightKerningGroup = A;
unicode = 0041;
},
{
glyphname = Aacute;
layers = (
{
components = (
{
name = A;
},
{
name = acutecomb;
transform = "{1, 0, 0, 1, 316, 180}";
}
);
layerId = "03739D6D-2A00-4CFA-A48A-FF6A1F8AF183";
width = 832;
},
{
background = {
paths = (
{
closed = 1;
nodes = (
"684 45 LINE",
"674 0 LINE",
"444 0 LINE",
"444 35 LINE",
"515 57 LINE",
"451 220 LINE",
"176 220 LINE",
"115 60 LINE",
"196 45 LINE",
"186 0 LINE",
"-15 0 LINE",
"-15 35 LINE",
"56 60 LINE",
"296 700 LINE",
"370 700 LINE",
"614 62 LINE"
);
},
{
closed = 1;
nodes = (
"196 275 LINE",
"431 275 LINE",
"312 584 LINE"
);
},
{
closed = 1;
nodes = (
"363 746 LINE",
"309 746 LINE",
"396 929 LINE",
"494 929 LINE"
);
}
);
};
components = (
{
name = A;
},
{
name = acutecomb;
transform = "{1, 0, 0, 1, 273, 180}";
}
);
layerId = UUID0;
width = 668;
}
);
leftKerningGroup = A;
rightKerningGroup = A;
unicode = 00C1;
},
{
glyphname = Acircumflex;
layers = (
{
components = (
{
name = A;
},
{
name = circumflexcomb;
transform = "{1, 0, 0, 1, 154, 180}";
}
);
layerId = "03739D6D-2A00-4CFA-A48A-FF6A1F8AF183";
width = 832;
},
{
background = {
paths = (
{
closed = 1;
nodes = (
"684 45 LINE",
"674 0 LINE",
"444 0 LINE",
"444 35 LINE",
"515 57 LINE",
"451 220 LINE",
"176 220 LINE",
"115 60 LINE",
"196 45 LINE",
"186 0 LINE",
"-15 0 LINE",
"-15 35 LINE",
"56 60 LINE",
"296 700 LINE",
"370 700 LINE",
"614 62 LINE"
);
},
{
closed = 1;
nodes = (
"196 275 LINE",
"431 275 LINE",
"312 584 LINE"
);
},
{
closed = 1;
nodes = (
"333 882 LINE",
"237 751 LINE",
"182 751 LINE",
"298 930 LINE",
"298 931 LINE",
"369 931 LINE",
"368 930 LINE",
"485 751 LINE",
"430 751 LINE"
);
}
);
};
components = (
{
name = A;
},
{
name = circumflexcomb;
transform = "{1, 0, 0, 1, 72, 180}";
}
);
layerId = UUID0;
width = 668;
}
);
leftKerningGroup = A;
rightKerningGroup = A;
unicode = 00C2;
},
{
glyphname = Adieresis;
layers = (
{
components = (
{
name = A;
},
{
name = dieresiscomb;
transform = "{1, 0, 0, 1, 228, 180}";
}
);
layerId = "03739D6D-2A00-4CFA-A48A-FF6A1F8AF183";
width = 832;
},
{
background = {
paths = (
{
closed = 1;
nodes = (
"684 45 LINE",
"674 0 LINE",
"444 0 LINE",
"444 35 LINE",
"515 57 LINE",
"451 220 LINE",
"176 220 LINE",
"115 60 LINE",
"196 45 LINE",
"186 0 LINE",
"-15 0 LINE",
"-15 35 LINE",
"56 60 LINE",
"296 700 LINE",
"370 700 LINE",
"614 62 LINE"
);
},
{
closed = 1;
nodes = (
"196 275 LINE",
"431 275 LINE",
"312 584 LINE"
);
},
{
closed = 1;
nodes = (
"379 839 LINE",
"402 880 LINE",
"444 903 LINE",
"484 881 LINE",
"506 841 LINE",
"482 800 LINE",
"441 777 LINE",
"400 798 LINE"
);
},
{
closed = 1;
nodes = (
"168 839 LINE",
"191 880 LINE",
"233 903 LINE",
"273 881 LINE",
"295 841 LINE",
"271 800 LINE",
"230 777 LINE",
"189 798 LINE"
);
}
);
};
components = (
{
name = A;
},
{
name = dieresiscomb;
transform = "{1, 0, 0, 1, 146, 180}";
}
);
layerId = UUID0;
width = 668;
}
);
leftKerningGroup = A;
rightKerningGroup = A;
unicode = 00C4;
},
{
glyphname = Agrave;
layers = (
{
components = (
{
name = A;
},
{
name = gravecomb;
transform = "{1, 0, 0, 1, 120, 180}";
}
);
layerId = "03739D6D-2A00-4CFA-A48A-FF6A1F8AF183";
width = 832;
},
{
background = {
paths = (
{
closed = 1;
nodes = (
"684 45 LINE",
"674 0 LINE",
"444 0 LINE",
"444 35 LINE",
"515 57 LINE",
"451 220 LINE",
"176 220 LINE",
"115 60 LINE",
"196 45 LINE",
"186 0 LINE",
"-15 0 LINE",
"-15 35 LINE",
"56 60 LINE",
"296 700 LINE",
"370 700 LINE",
"614 62 LINE"
);
},
{
closed = 1;
nodes = (
"196 275 LINE",
"431 275 LINE",
"312 584 LINE"
);
},
{
closed = 1;
nodes = (
"147 931 LINE",
"246 931 LINE",
"353 763 LINE",
"298 763 LINE"
);
}
);
};
components = (
{
name = A;
},
{
name = gravecomb;
transform = "{1, 0, 0, 1, 57, 180}";
}
);
layerId = UUID0;
width = 668;
}
);
leftKerningGroup = A;
rightKerningGroup = A;
unicode = 00C0;
},
{
glyphname = Aring;
layers = (
{
components = (
{
name = A;
},
{
name = ringcomb;
transform = "{1, 0, 0, 1, 166, 180}";
}
);
layerId = "03739D6D-2A00-4CFA-A48A-FF6A1F8AF183";
width = 832;
},
{
background = {
paths = (
{
closed = 1;
nodes = (
"684 45 LINE",
"674 0 LINE",
"444 0 LINE",
"444 35 LINE",
"515 57 LINE",
"451 220 LINE",
"176 220 LINE",
"115 60 LINE",
"196 45 LINE",
"186 0 LINE",
"-15 0 LINE",
"-15 35 LINE",
"56 60 LINE",
"296 700 LINE",
"370 700 LINE",
"614 62 LINE"
);
},
{
closed = 1;
nodes = (
"196 275 LINE",
"431 275 LINE",
"312 584 LINE"
);
},
{
closed = 1;
nodes = (
"216 854 LINE",
"216 877 LINE",
"234 920 LINE",
"266 953 LINE",
"309 971 LINE",
"333 971 LINE",
"356 971 LINE",
"399 953 LINE",
"432 920 LINE",
"450 877 LINE",
"450 854 LINE",
"450 830 LINE",
"432 787 LINE",
"399 756 LINE",
"356 738 LINE",
"333 738 LINE",
"309 738 LINE",
"266 756 LINE",
"234 787 LINE",
"216 830 LINE"
);
},
{
closed = 1;
nodes = (
"266 854 LINE",
"266 816 LINE",
"299 777 LINE",
"333 777 LINE",
"367 777 LINE",
"400 816 LINE",
"400 854 LINE",
"400 892 LINE",
"367 932 LINE",
"333 932 LINE",
"299 932 LINE",
"266 892 LINE"
);
}
);
};
components = (
{
name = A;
},
{
name = ringcomb;
transform = "{1, 0, 0, 1, 82, 180}";
}
);
layerId = UUID0;
width = 668;
}
);
leftKerningGroup = A;
rightKerningGroup = A;
unicode = 00C5;
},
{
glyphname = Atilde;
layers = (
{
components = (
{
name = A;
},
{
name = tildecomb;
transform = "{1, 0, 0, 1, 20, 180}";
}
);
layerId = "03739D6D-2A00-4CFA-A48A-FF6A1F8AF183";
width = 832;
},
{
background = {
paths = (
{
closed = 1;
nodes = (
"684 45 LINE",
"674 0 LINE",
"444 0 LINE",
"444 35 LINE",
"515 57 LINE",
"451 220 LINE",
"176 220 LINE",
"115 60 LINE",
"196 45 LINE",
"186 0 LINE",
"-15 0 LINE",
"-15 35 LINE",
"56 60 LINE",
"296 700 LINE",
"370 700 LINE",
"614 62 LINE"
);
},
{
closed = 1;
nodes = (
"196 275 LINE",
"431 275 LINE",
"312 584 LINE"
);
},
{
closed = 1;
nodes = (
"318 805 LINE",
"285 827 LINE",
"270 836 LINE",
"259 836 LINE",
"254 835 LINE",
"231 821 LINE",
"215 805 LINE",
"187 778 LINE",
"156 811 LINE",
"158 814 LINE",
"180 841 LINE",
"209 872 LINE",
"240 900 LINE",
"250 905 LINE",
"262 911 LINE",
"274 911 LINE",
"287 911 LINE",
"311 903 LINE",
"333 892 LINE",
"353 880 LINE",
"360 876 LINE",
"366 872 LINE",
"382 861 LINE",
"397 852 LINE",
"413 846 LINE",
"419 846 LINE",
"429 846 LINE",
"464 876 LINE",
"491 903 LINE",
"522 870 LINE",
"521 868 LINE",
"510 855 LINE",
"494 836 LINE",
"475 815 LINE",
"454 795 LINE",
"436 780 LINE",
"428 776 LINE",
"416 771 LINE",
"403 771 LINE",
"391 771 LINE",
"367 778 LINE",
"344 789 LINE",
"325 801 LINE"
);
}
);
};
components = (
{
name = A;
},
{
name = tildecomb;
transform = "{1, 0, 0, 1, -69, 180}";
}
);
layerId = UUID0;
width = 668;
}
);
leftKerningGroup = A;
rightKerningGroup = A;
unicode = 00C3;
},
{
glyphname = AE;
layers = (
{
background = {
paths = (
{
closed = 1;
nodes = (
"270 45 LINE",
"260 0 LINE",
"57 0 LINE",
"57 35 LINE",
"123 60 LINE",
"503 643 LINE",
"443 655 LINE",
"453 700 LINE",
"965 700 LINE",
"965 531 LINE",
"915 526 LINE",
"883 645 LINE",
"669 645 LINE",
"669 391 LINE",
"808 395 LINE",
"835 462 LINE",
"870 462 LINE",
"870 265 LINE",
"842 265 LINE",
"808 331 LINE",
"669 336 LINE",
"669 55 LINE",
"902 55 LINE",
"934 171 LINE",
"986 165 LINE",
"986 0 LINE",
"474 0 LINE",
"474 35 LINE",
"569 64 LINE",
"569 316 LINE",
"356 316 LINE",
"189 60 LINE"
);
},
{
closed = 1;
nodes = (
"569 371 LINE",
"569 643 LINE",
"392 371 LINE"
);
}
);
};
hints = (
{
place = "{544, 145}";
type = Stem;
},
{
horizontal = 1;
place = "{0, 75}";
type = Stem;
},
{
horizontal = 1;
place = "{316, 79}";
type = Stem;
},
{
horizontal = 1;
place = "{635, 75}";
type = Stem;
}
);
layerId = "03739D6D-2A00-4CFA-A48A-FF6A1F8AF183";
paths = (
{
closed = 1;
nodes = (
"275 0 LINE",
"285 45 LINE",
"214 64 LINE",
"371 316 LINE",
"544 316 LINE",
"544 64 LINE",
"449 35 LINE",
"449 0 LINE",
"986 0 LINE",
"986 185 LINE",
"934 191 LINE",
"902 75 LINE",
"689 75 LINE",
"689 323 LINE",
"808 318 LINE",
"842 252 LINE",
"870 252 LINE",
"870 465 LINE",
"835 465 LINE",
"808 398 LINE",
"689 394 LINE",
"689 635 LINE",
"883 635 LINE",
"915 516 LINE",
"965 521 LINE",
"965 710 LINE",
"428 710 LINE",
"418 655 LINE",
"478 643 LINE",
"108 64 LINE",
"31 35 LINE",
"31 0 LINE"
);
},
{
closed = 1;
nodes = (
"544 606 LINE",
"544 395 LINE",
"412 395 LINE"
);
}
);
width = 1020;
},
{
background = {
paths = (
{
closed = 1;
nodes = (
"184 45 LINE",
"174 0 LINE",
"-29 0 LINE",
"-29 35 LINE",
"37 60 LINE",
"417 643 LINE",
"357 655 LINE",
"367 700 LINE",
"879 700 LINE",
"879 531 LINE",
"829 526 LINE",
"797 645 LINE",
"583 645 LINE",
"583 391 LINE",
"722 395 LINE",
"749 462 LINE",
"784 462 LINE",
"784 265 LINE",
"756 265 LINE",
"722 331 LINE",
"583 336 LINE",
"583 55 LINE",
"816 55 LINE",
"848 171 LINE",
"900 165 LINE",
"900 0 LINE",
"388 0 LINE",
"388 35 LINE",
"483 64 LINE",
"483 316 LINE",
"270 316 LINE",
"103 60 LINE"
);
},
{
closed = 1;
nodes = (
"483 371 LINE",
"483 643 LINE",
"306 371 LINE"
);
}
);
};
hints = (
{
place = "{483, 100}";
type = Stem;
},
{
place = "{756, 28}";
type = Stem;
},
{
place = "{829, 50}";
type = Stem;
},
{
place = "{848, 52}";
type = Stem;
},
{
horizontal = 1;
place = "{0, 55}";
type = Stem;
},
{
horizontal = 1;
place = "{316, 55}";
type = Stem;
},
{
horizontal = 1;
place = "{645, 55}";
type = Stem;
},
{
horizontal = 1;
place = "{333, 59}";
type = Stem;
}
);
layerId = UUID0;
paths = (
{
closed = 1;
nodes = (
"174 0 LINE",
"184 45 LINE",
"103 60 LINE",
"270 316 LINE",
"483 316 LINE",
"483 64 LINE",
"388 35 LINE",
"388 0 LINE",
"900 0 LINE",
"900 165 LINE",
"848 171 LINE",
"816 55 LINE",
"583 55 LINE",
"583 336 LINE",
"722 331 LINE",
"756 265 LINE",
"784 265 LINE",
"784 462 LINE",
"749 462 LINE",
"722 395 LINE",
"583 391 LINE",
"583 645 LINE",
"797 645 LINE",
"829 526 LINE",
"879 531 LINE",
"879 700 LINE",
"367 700 LINE",
"357 655 LINE",
"417 643 LINE",
"37 60 LINE",
"-29 35 LINE",
"-29 0 LINE"
);
},
{
closed = 1;
nodes = (
"483 643 LINE",
"483 371 LINE",
"306 371 LINE"
);
}
);
width = 934;
}
);
leftKerningGroup = A;
rightKerningGroup = E;
unicode = 00C6;
},
{
glyphname = B;
layers = (
{
background = {
paths = (
{
closed = 1;
nodes = (
"79 0 LINE",
"79 35 LINE",
"174 64 LINE",
"174 636 LINE",
"79 655 LINE",
"89 700 LINE",
"373 700 LINE",
"482 700 LINE",
"605 609 LINE",
"605 523 LINE",
"605 485 LINE",
"577 431 LINE",
"534 395 LINE",
"480 374 LINE",
"453 370 LINE",
"453 365 LINE",
"487 364 LINE",
"553 342 LINE",
"605 300 LINE",
"638 239 LINE",
"638 198 LINE",
"638 140 LINE",
"601 64 LINE",
"532 19 LINE",
"434 0 LINE",
"373 0 LINE"
);
},
{
closed = 1;
nodes = (
"373 55 LINE",
"417 55 LINE",
"478 79 LINE",
"516 119 LINE",
"533 170 LINE",
"533 197 LINE",
"533 223 LINE",
"514 272 LINE",
"478 311 LINE",
"423 335 LINE",
"387 335 LINE",
"274 335 LINE",
"274 55 LINE"
);
},
{
closed = 1;
nodes = (
"389 385 LINE",
"408 385 LINE",
"448 401 LINE",
"480 434 LINE",
"500 485 LINE",
"500 519 LINE",
"500 578 LINE",
"434 645 LINE",
"373 645 LINE",
"274 645 LINE",
"274 385 LINE"
);
}
);
};
hints = (
{
place = "{128, 146}";
type = Stem;
},
{
place = "{481, 156}";
type = Stem;
},
{
place = "{514, 123}";
type = Stem;
},
{
place = "{514, 155}";
type = Stem;
},
{
horizontal = 1;
place = "{0, 80}";
type = Stem;
},
{
horizontal = 1;
place = "{330, 45}";
type = Stem;
},
{
horizontal = 1;
place = "{630, 80}";
type = Stem;
},
{
horizontal = 1;
place = "{330, 75}";
type = Stem;
}
);
layerId = "03739D6D-2A00-4CFA-A48A-FF6A1F8AF183";
paths = (
{
closed = 1;
nodes = (
"373 0 LINE",
"536 0 OFFCURVE",
"669 39 OFFCURVE",
"669 198 CURVE SMOOTH",
"669 326 OFFCURVE",
"578 372 OFFCURVE",
"483 375 CURVE",
"483 380 LINE",
"554 391 OFFCURVE",
"637 428 OFFCURVE",
"637 533 CURVE SMOOTH",
"637 668 OFFCURVE",
"528 710 OFFCURVE",
"373 710 CURVE",
"43 710 LINE",
"34 660 LINE",
"128 641 LINE",
"128 69 LINE",
"33 40 LINE",
"33 0 LINE"
);
},
{
closed = 1;
nodes = (
"274 330 LINE",
"388 330 LINE SMOOTH",
"484 330 OFFCURVE",
"514 270 OFFCURVE",
"514 197 CURVE SMOOTH",
"514 125 OFFCURVE",
"485 80 OFFCURVE",
"373 80 CURVE",
"274 80 LINE"
);
},
{
closed = 1;
nodes = (
"274 630 LINE",
"364 630 LINE",
"425 630 OFFCURVE",
"481 598 OFFCURVE",
"481 529 CURVE SMOOTH",
"481 442 OFFCURVE",
"452 405 OFFCURVE",
"390 405 CURVE SMOOTH",
"274 405 LINE"
);
}
);
width = 708;
},
{
background = {
paths = (
{
closed = 1;
nodes = (
"36 0 LINE",
"36 35 LINE",
"131 64 LINE",
"131 636 LINE",
"36 655 LINE",
"46 700 LINE",
"330 700 LINE",
"439 700 LINE",
"562 609 LINE",
"562 523 LINE",
"562 485 LINE",
"534 431 LINE",
"491 395 LINE",
"437 374 LINE",
"410 370 LINE",
"410 365 LINE",
"444 364 LINE",
"510 342 LINE",
"562 300 LINE",
"595 239 LINE",
"595 198 LINE",
"595 140 LINE",
"558 64 LINE",
"489 19 LINE",
"391 0 LINE",
"330 0 LINE"
);
},
{
closed = 1;
nodes = (
"330 55 LINE",
"374 55 LINE",
"435 79 LINE",
"473 119 LINE",
"490 170 LINE",
"490 197 LINE",
"490 223 LINE",
"471 272 LINE",
"435 311 LINE",
"380 335 LINE",
"344 335 LINE",
"231 335 LINE",
"231 55 LINE"
);
},
{
closed = 1;
nodes = (
"346 385 LINE",
"365 385 LINE",
"405 401 LINE",
"437 434 LINE",
"457 485 LINE",
"457 519 LINE",
"457 578 LINE",
"391 645 LINE",
"330 645 LINE",
"231 645 LINE",
"231 385 LINE"
);
}
);
};
hints = (
{
place = "{131, 100}";
type = Stem;
},
{
place = "{490, 105}";
type = Stem;
},
{
place = "{457, 105}";
type = Stem;
},
{
horizontal = 1;
place = "{0, 55}";
type = Stem;
},
{
horizontal = 1;
place = "{335, 50}";
type = Stem;
},
{
horizontal = 1;
place = "{645, 55}";
type = Stem;
}
);
layerId = UUID0;
paths = (
{
closed = 1;
nodes = (
"330 0 LINE SMOOTH",
"493 0 OFFCURVE",
"595 44 OFFCURVE",
"595 198 CURVE SMOOTH",
"595 306 OFFCURVE",
"500 362 OFFCURVE",
"410 365 CURVE",
"410 370 LINE",
"481 381 OFFCURVE",
"562 423 OFFCURVE",
"562 523 CURVE SMOOTH",
"562 638 OFFCURVE",
"475 700 OFFCURVE",
"330 700 CURVE SMOOTH",
"46 700 LINE",
"36 655 LINE",
"131 636 LINE",
"131 64 LINE",
"36 35 LINE",
"36 0 LINE"
);
},
{
closed = 1;
nodes = (
"231 335 LINE",
"344 335 LINE SMOOTH",
"440 335 OFFCURVE",
"490 265 OFFCURVE",
"490 197 CURVE SMOOTH",
"490 125 OFFCURVE",
"447 55 OFFCURVE",
"330 55 CURVE SMOOTH",
"231 55 LINE"
);
},
{
closed = 1;
nodes = (
"231 645 LINE",
"330 645 LINE SMOOTH",
"411 645 OFFCURVE",
"457 598 OFFCURVE",
"457 519 CURVE SMOOTH",
"457 427 OFFCURVE",
"398 385 OFFCURVE",
"346 385 CURVE SMOOTH",
"231 385 LINE"
);
}
);
width = 636;
}
);
leftKerningGroup = I;
rightKerningGroup = B;
unicode = 0042;
},
{
glyphname = C;
layers = (
{
anchors = (
{
name = bottom;
position = "{442, 0}";
},
{
name = top;
position = "{351, 710}";
}
);
background = {
paths = (
{
closed = 1;
nodes = (
"545 633 LINE",
"521 649 LINE",
"458 658 LINE",
"427 658 LINE",
"380 658 LINE",
"289 621 LINE",
"218 543 LINE",
"176 426 LINE",
"176 347 LINE",
"176 262 LINE",
"218 145 LINE",
"291 74 LINE",
"384 42 LINE",
"437 42 LINE",
"475 42 LINE",
"528 58 LINE",
"550 70 LINE",
"587 225 LINE",
"637 214 LINE",
"637 43 LINE",
"594 22 LINE",
"486 -14 LINE",
"413 -14 LINE",
"344 -14 LINE",
"220 32 LINE",
"127 123 LINE",
"71 259 LINE",
"71 347 LINE",
"71 434 LINE",
"132 569 LINE",
"236 663 LINE",
"371 713 LINE",
"445 713 LINE",
"490 713 LINE",
"583 693 LINE",
"629 672 LINE",
"629 501 LINE",
"578 491 LINE"
);
}
);
};
hints = (
{
place = "{51, 152}";
type = Stem;
},
{
horizontal = 1;
place = "{-14, 71}";
type = Stem;
},
{
horizontal = 1;
place = "{652, 72}";
type = Stem;
}
);
layerId = "03739D6D-2A00-4CFA-A48A-FF6A1F8AF183";
paths = (
{
closed = 1;
nodes = (
"541 -14 OFFCURVE",
"610 15 OFFCURVE",
"667 43 CURVE",
"667 223 LINE",
"601 233 LINE",
"565 80 LINE",
"551 73 OFFCURVE",
"507 57 OFFCURVE",
"466 57 CURVE SMOOTH",
"347 57 OFFCURVE",
"203 113 OFFCURVE",
"203 349 CURVE SMOOTH",
"203 548 OFFCURVE",
"328 652 OFFCURVE",
"457 652 CURVE SMOOTH",
"491 652 OFFCURVE",
"532 646 OFFCURVE",
"561 632 CURVE",
"594 493 LINE",
"659 503 LINE",
"659 682 LINE",
"594 710 OFFCURVE",
"524 724 OFFCURVE",
"456 724 CURVE SMOOTH",
"246 724 OFFCURVE",
"51 592 OFFCURVE",
"51 349 CURVE SMOOTH",
"51 64 OFFCURVE",
"250 -14 OFFCURVE",
"442 -14 CURVE SMOOTH"
);
}
);
width = 702;
},
{
anchors = (
{
name = bottom;
position = "{398, 0}";
},
{
name = top;
position = "{330, 700}";
}
);
background = {
paths = (
{
closed = 1;
nodes = (
"517 633 LINE",
"493 649 LINE",
"430 658 LINE",
"399 658 LINE",
"352 658 LINE",
"261 621 LINE",
"190 543 LINE",
"148 426 LINE",
"148 347 LINE",
"148 262 LINE",
"190 145 LINE",
"263 74 LINE",
"356 42 LINE",
"409 42 LINE",
"447 42 LINE",
"500 58 LINE",
"522 70 LINE",
"559 225 LINE",
"609 214 LINE",
"609 43 LINE",
"566 22 LINE",
"458 -14 LINE",
"385 -14 LINE",
"316 -14 LINE",
"192 32 LINE",
"99 123 LINE",
"43 259 LINE",
"43 347 LINE",
"43 434 LINE",
"104 569 LINE",
"208 663 LINE",
"343 713 LINE",
"417 713 LINE",
"462 713 LINE",
"555 693 LINE",
"601 672 LINE",
"601 501 LINE",
"550 491 LINE"
);
}
);
};
hints = (
{
place = "{43, 105}";
type = Stem;
},
{
place = "{550, 51}";
type = Stem;
},
{
place = "{558, 51}";
type = Stem;
},
{
horizontal = 1;
place = "{-14, 56}";
type = Stem;
},
{
horizontal = 1;
place = "{658, 55}";
type = Stem;
}
);
layerId = UUID0;
paths = (
{
closed = 1;
nodes = (
"483 -14 OFFCURVE",
"552 15 OFFCURVE",
"609 43 CURVE",
"609 215 LINE",
"558 225 LINE",
"522 69 LINE",
"491 54 OFFCURVE",
"459 42 OFFCURVE",
"408 42 CURVE SMOOTH",
"269 42 OFFCURVE",
"148 123 OFFCURVE",
"148 349 CURVE SMOOTH",
"148 558 OFFCURVE",
"270 658 OFFCURVE",
"399 658 CURVE SMOOTH",
"439 658 OFFCURVE",
"482 656 OFFCURVE",
"517 633 CURVE",
"550 491 LINE",
"601 501 LINE",
"601 672 LINE",
"540 700 OFFCURVE",
"477 713 OFFCURVE",
"416 713 CURVE SMOOTH",
"219 713 OFFCURVE",
"43 575 OFFCURVE",
"43 349 CURVE SMOOTH",
"43 114 OFFCURVE",
"202 -14 OFFCURVE",
"384 -14 CURVE SMOOTH"
);
}
);
width = 659;
}
);
leftKerningGroup = O;
rightKerningGroup = C;
unicode = 0043;
},
{
glyphname = Ccedilla;
layers = (
{
components = (
{
name = C;
},
{
name = cedillacomb;
transform = "{1, 0, 0, 1, 269, 0}";
}
);
layerId = "03739D6D-2A00-4CFA-A48A-FF6A1F8AF183";
width = 702;
},
{
background = {
paths = (
{
closed = 1;
nodes = (
"517 632 LINE",
"493 647 LINE",
"430 656 LINE",
"400 656 LINE",
"352 656 LINE",
"261 619 LINE",
"191 543 LINE",
"149 427 LINE",
"149 349 LINE",
"149 264 LINE",
"191 149 LINE",
"263 78 LINE",
"357 47 LINE",
"409 47 LINE",
"447 47 LINE",
"500 63 LINE",
"523 74 LINE",
"559 227 LINE",
"610 217 LINE",
"610 48 LINE",
"567 27 LINE",
"513 9 LINE",
"460 -8 LINE",
"389 -9 LINE",
"389 -32 LINE",
"429 -37 LINE",
"461 -78 LINE",
"461 -109 LINE",
"461 -141 LINE",
"426 -188 LINE",
"372 -220 LINE",
"308 -238 LINE",
"279 -240 LINE",
"272 -210 LINE",
"288 -206 LINE",
"322 -196 LINE",
"352 -180 LINE",
"374 -157 LINE",
"376 -142 LINE",
"381 -113 LINE",
"363 -67 LINE",
"334 -61 LINE",
"334 -5 LINE",
"293 0 LINE",
"255 14 LINE",
"193 37 LINE",
"99 127 LINE",
"44 261 LINE",
"44 349 LINE",
"44 434 LINE",
"105 568 LINE",
"208 661 LINE",
"343 711 LINE",
"417 711 LINE",
"463 711 LINE",
"555 691 LINE",
"601 670 LINE",
"601 501 LINE",
"551 491 LINE"
);
}
);
};
components = (
{
name = C;
},
{
name = cedillacomb;
transform = "{1, 0, 0, 1, 238, 0}";
}
);
layerId = UUID0;
width = 659;
}
);
leftKerningGroup = O;
rightKerningGroup = C;
unicode = 00C7;
},
{
glyphname = D;
layers = (
{
background = {
paths = (
{
closed = 1;
nodes = (
"714 348 LINE",
"714 276 LINE",
"668 149 LINE",
"579 55 LINE",
"449 0 LINE",
"365 0 LINE",
"70 0 LINE",
"70 35 LINE",
"165 64 LINE",
"165 636 LINE",
"70 655 LINE",
"80 700 LINE",
"365 700 LINE",
"452 700 LINE",
"583 644 LINE",
"670 548 LINE",
"714 420 LINE"
);
},
{
closed = 1;
nodes = (
"265 645 LINE",
"265 55 LINE",
"348 55 LINE",
"410 55 LINE",
"507 96 LINE",
"574 172 LINE",
"609 280 LINE",
"609 348 LINE",
"609 415 LINE",
"579 525 LINE",
"516 603 LINE",
"417 645 LINE",
"348 645 LINE"
);
}
);
};
hints = (
{
place = "{120, 145}";
type = Stem;
},
{
place = "{579, 155}";
type = Stem;
},
{
horizontal = 1;
place = "{0, 80}";
type = Stem;
},
{
horizontal = 1;
place = "{630, 80}";
type = Stem;
}
);
layerId = "03739D6D-2A00-4CFA-A48A-FF6A1F8AF183";
paths = (
{
closed = 1;
nodes = (
"355 0 LINE SMOOTH",
"604 0 OFFCURVE",
"734 136 OFFCURVE",
"734 358 CURVE SMOOTH",
"734 570 OFFCURVE",
"607 710 OFFCURVE",
"355 710 CURVE SMOOTH",
"35 710 LINE",
"26 660 LINE",
"120 641 LINE",
"120 69 LINE",
"25 40 LINE",
"25 0 LINE"
);
},
{
closed = 1;
nodes = (
"265 630 LINE",
"338 630 LINE SMOOTH",
"512 630 OFFCURVE",
"579 518 OFFCURVE",
"579 358 CURVE SMOOTH",
"579 198 OFFCURVE",
"493 80 OFFCURVE",
"338 80 CURVE SMOOTH",
"265 80 LINE"
);
}
);
width = 773;
},
{
background = {
paths = (
{
closed = 1;
nodes = (
"680 348 LINE",
"680 276 LINE",
"634 149 LINE",
"545 55 LINE",
"415 0 LINE",
"331 0 LINE",
"36 0 LINE",
"36 35 LINE",
"131 64 LINE",
"131 636 LINE",
"36 655 LINE",
"46 700 LINE",
"331 700 LINE",
"418 700 LINE",
"549 644 LINE",
"636 548 LINE",
"680 420 LINE"
);
},
{
closed = 1;
nodes = (
"231 645 LINE",
"231 55 LINE",
"314 55 LINE",
"376 55 LINE",
"473 96 LINE",
"540 172 LINE",
"575 280 LINE",
"575 348 LINE",
"575 415 LINE",
"545 525 LINE",
"482 603 LINE",
"383 645 LINE",
"314 645 LINE"
);
}
);
};
hints = (
{
place = "{131, 100}";
type = Stem;
},
{
place = "{575, 105}";
type = Stem;
},
{
horizontal = 1;
place = "{0, 55}";
type = Stem;
},
{
horizontal = 1;
place = "{645, 55}";
type = Stem;
}
);
layerId = UUID0;
paths = (
{
closed = 1;
nodes = (
"331 0 LINE SMOOTH",
"555 0 OFFCURVE",
"680 156 OFFCURVE",
"680 348 CURVE SMOOTH",
"680 540 OFFCURVE",
"563 700 OFFCURVE",
"331 700 CURVE SMOOTH",
"46 700 LINE",
"36 655 LINE",
"131 636 LINE",
"131 64 LINE",
"36 35 LINE",
"36 0 LINE"
);
},
{
closed = 1;
nodes = (
"231 645 LINE",
"314 645 LINE SMOOTH",
"498 645 OFFCURVE",
"575 528 OFFCURVE",
"575 348 CURVE SMOOTH",
"575 168 OFFCURVE",
"479 55 OFFCURVE",
"314 55 CURVE SMOOTH",
"231 55 LINE"
);
}
);
width = 725;
}
);
leftKerningGroup = I;
rightKerningGroup = O;
unicode = 0044;
},
{
glyphname = Eth;
layers = (
{
background = {
paths = (
{
closed = 1;
nodes = (
"38 396 LINE",
"131 396 LINE",
"131 636 LINE",
"37 655 LINE",
"46 700 LINE",
"332 700 LINE",
"418 700 LINE",
"549 644 LINE",
"636 548 LINE",
"681 420 LINE",
"681 348 LINE",
"681 276 LINE",
"634 149 LINE",
"545 55 LINE",
"416 0 LINE",
"332 0 LINE",
"37 0 LINE",
"37 35 LINE",
"131 64 LINE",
"131 331 LINE",
"38 331 LINE"
);
},
{
closed = 1;
nodes = (
"231 645 LINE",
"231 396 LINE",
"336 396 LINE",
"336 331 LINE",
"231 331 LINE",
"231 55 LINE",
"314 55 LINE",
"376 55 LINE",
"474 96 LINE",
"541 172 LINE",
"576 280 LINE",
"576 348 LINE",
"576 415 LINE",
"545 525 LINE",
"482 603 LINE",
"383 645 LINE",
"314 645 LINE"
);
}
);
};
hints = (
{
place = "{127, 145}";
type = Stem;
},
{
place = "{586, 155}";
type = Stem;
},
{
horizontal = 1;
place = "{0, 80}";
type = Stem;
},
{
horizontal = 1;
place = "{314, 105}";
type = Stem;
},
{
horizontal = 1;
place = "{630, 80}";
type = Stem;
}
);
layerId = "03739D6D-2A00-4CFA-A48A-FF6A1F8AF183";
paths = (
{
closed = 1;
nodes = (
"362 0 LINE SMOOTH",
"611 0 OFFCURVE",
"741 136 OFFCURVE",
"741 358 CURVE SMOOTH",
"741 570 OFFCURVE",
"614 710 OFFCURVE",
"362 710 CURVE SMOOTH",
"42 710 LINE",
"33 660 LINE",
"127 641 LINE",
"127 419 LINE",
"42 419 LINE",
"42 314 LINE",
"127 314 LINE",
"127 69 LINE",
"32 40 LINE",
"32 0 LINE"
);
},
{
closed = 1;
nodes = (
"272 314 LINE",
"356 314 LINE",
"356 419 LINE",
"272 419 LINE",
"272 630 LINE",
"345 630 LINE SMOOTH",
"519 630 OFFCURVE",
"586 518 OFFCURVE",
"586 358 CURVE SMOOTH",
"586 198 OFFCURVE",
"500 80 OFFCURVE",
"345 80 CURVE SMOOTH",
"272 80 LINE"
);
}
);
width = 784;
},
{
background = {
paths = (
{
closed = 1;
nodes = (
"38 396 LINE",
"131 396 LINE",
"131 636 LINE",
"37 655 LINE",
"46 700 LINE",
"332 700 LINE",
"418 700 LINE",
"549 644 LINE",
"636 548 LINE",
"681 420 LINE",
"681 348 LINE",
"681 276 LINE",
"634 149 LINE",
"545 55 LINE",
"416 0 LINE",
"332 0 LINE",
"37 0 LINE",
"37 35 LINE",
"131 64 LINE",
"131 331 LINE",
"38 331 LINE"
);
},
{
closed = 1;
nodes = (
"231 645 LINE",
"231 396 LINE",
"336 396 LINE",
"336 331 LINE",
"231 331 LINE",
"231 55 LINE",
"314 55 LINE",
"376 55 LINE",
"474 96 LINE",
"541 172 LINE",
"576 280 LINE",
"576 348 LINE",
"576 415 LINE",
"545 525 LINE",
"482 603 LINE",
"383 645 LINE",
"314 645 LINE"
);
}
);
};
hints = (
{
place = "{132, 100}";
type = Stem;
},
{
place = "{576, 105}";
type = Stem;
},
{
horizontal = 1;
place = "{0, 55}";
type = Stem;
},
{
horizontal = 1;
place = "{331, 65}";
type = Stem;
},
{
horizontal = 1;
place = "{645, 55}";
type = Stem;
}
);
layerId = UUID0;
paths = (
{
closed = 1;
nodes = (
"332 0 LINE SMOOTH",
"556 0 OFFCURVE",
"681 156 OFFCURVE",
"681 348 CURVE SMOOTH",
"681 540 OFFCURVE",
"564 700 OFFCURVE",
"332 700 CURVE SMOOTH",
"47 700 LINE",
"37 655 LINE",
"132 636 LINE",
"132 396 LINE",
"38 396 LINE",
"38 331 LINE",
"132 331 LINE",
"132 64 LINE",
"37 35 LINE",
"37 0 LINE"
);
},
{
closed = 1;
nodes = (
"232 331 LINE",
"337 331 LINE",
"337 396 LINE",
"232 396 LINE",
"232 645 LINE",
"315 645 LINE SMOOTH",
"499 645 OFFCURVE",
"576 528 OFFCURVE",
"576 348 CURVE SMOOTH",
"576 168 OFFCURVE",
"480 55 OFFCURVE",
"315 55 CURVE SMOOTH",
"232 55 LINE"
);
}
);
width = 725;
}
);
leftKerningGroup = Hbar;
rightKerningGroup = E;
unicode = 00D0;
},
{
glyphname = E;
layers = (
{
anchors = (
{
name = bottom;
position = "{321, 0}";
},
{
name = ogonek;
position = "{578, 10}";
},
{
name = top;
position = "{348, 710}";
},
{
name = topleft;
position = "{20, 710}";
}
);
background = {
paths = (
{
closed = 1;
nodes = (
"550 171 LINE",
"602 160 LINE",
"602 0 LINE",
"60 0 LINE",
"60 35 LINE",
"155 64 LINE",
"155 636 LINE",
"60 655 LINE",
"70 700 LINE",
"581 700 LINE",
"581 536 LINE",
"531 526 LINE",
"499 645 LINE",
"255 645 LINE",
"255 391 LINE",
"424 395 LINE",
"451 462 LINE",
"486 452 LINE",
"486 275 LINE",
"458 265 LINE",
"424 331 LINE",
"255 336 LINE",
"255 55 LINE",
"518 55 LINE"
);
},
{
closed = 1;
nodes = (
"518 55 LINE",
"255 55 LINE",
"255 336 LINE",
"424 331 LINE",
"458 265 LINE",
"486 275 LINE",
"486 452 LINE",
"451 462 LINE",
"424 395 LINE",
"255 391 LINE",
"255 645 LINE",
"499 645 LINE",
"531 526 LINE",
"581 536 LINE",
"581 700 LINE",
"70 700 LINE",
"60 655 LINE",
"155 636 LINE",
"155 64 LINE",
"60 35 LINE",
"60 0 LINE",
"602 0 LINE",
"602 160 LINE",
"550 171 LINE"
);
}
);
};
hints = (
{
place = "{120, 145}";
type = Stem;
},
{
horizontal = 1;
place = "{0, 75}";
type = Stem;
},
{
horizontal = 1;
place = "{326, 74}";
type = Stem;
},
{
horizontal = 1;
place = "{635, 75}";
type = Stem;
}
);
layerId = "03739D6D-2A00-4CFA-A48A-FF6A1F8AF183";
paths = (
{
closed = 1;
nodes = (
"602 0 LINE",
"603 179 LINE",
"537 189 LINE",
"510 75 LINE",
"265 75 LINE",
"265 329 LINE",
"434 324 LINE",
"468 258 LINE",
"496 268 LINE",
"496 459 LINE",
"461 469 LINE",
"434 402 LINE",
"265 398 LINE",
"265 635 LINE",
"499 635 LINE",
"529 515 LINE",
"594 525 LINE",
"594 710 LINE",
"35 710 LINE",
"25 660 LINE",
"120 641 LINE",
"120 69 LINE",
"25 40 LINE",
"25 0 LINE"
);
}
);
width = 642;
},
{
anchors = (
{
name = bottom;
position = "{306, 0}";
},
{
name = ogonek;
position = "{550, 10}";
},
{
name = top;
position = "{330, 700}";
},
{
name = topleft;
position = "{20, 700}";
}
);
background = {
paths = (
{
closed = 1;
nodes = (
"526 171 LINE",
"578 160 LINE",
"578 0 LINE",
"36 0 LINE",
"36 35 LINE",
"131 64 LINE",
"131 636 LINE",
"36 655 LINE",
"46 700 LINE",
"557 700 LINE",
"557 536 LINE",
"507 526 LINE",
"475 645 LINE",
"231 645 LINE",
"231 391 LINE",
"400 395 LINE",
"427 462 LINE",
"462 452 LINE",
"462 275 LINE",
"434 265 LINE",
"400 331 LINE",
"231 336 LINE",
"231 55 LINE",
"494 55 LINE"
);
}
);
};
hints = (
{
place = "{131, 100}";
type = Stem;
},
{
place = "{434, 28}";
type = Stem;
},
{
place = "{526, 52}";
type = Stem;
},
{
place = "{507, 50}";
type = Stem;
},
{
horizontal = 1;
place = "{0, 55}";
type = Stem;
},
{
horizontal = 1;
place = "{333, 59}";
type = Stem;
},
{
horizontal = 1;
place = "{645, 55}";
type = Stem;
}
);
layerId = UUID0;
paths = (
{
closed = 1;
nodes = (
"578 0 LINE",
"578 160 LINE",
"526 171 LINE",
"494 55 LINE",
"231 55 LINE",
"231 336 LINE",
"400 331 LINE",
"434 265 LINE",
"462 275 LINE",
"462 452 LINE",
"427 462 LINE",
"400 395 LINE",
"231 391 LINE",
"231 645 LINE",
"475 645 LINE",
"507 526 LINE",
"557 536 LINE",
"557 700 LINE",
"46 700 LINE",
"36 655 LINE",
"131 636 LINE",
"131 64 LINE",
"36 35 LINE",
"36 0 LINE"
);
}
);
width = 611;
}
);
leftKerningGroup = I;
rightKerningGroup = E;
unicode = 0045;
},
{
glyphname = Eacute;
layers = (
{
components = (
{
name = E;
},
{
name = acutecomb;
transform = "{1, 0, 0, 1, 248, 180}";
}
);
layerId = "03739D6D-2A00-4CFA-A48A-FF6A1F8AF183";
width = 642;
},
{
background = {
paths = (
{
closed = 1;
nodes = (
"526 171 LINE",
"578 160 LINE",
"578 0 LINE",
"36 0 LINE",
"36 35 LINE",
"131 64 LINE",
"131 636 LINE",
"36 655 LINE",
"46 700 LINE",
"557 700 LINE",
"557 536 LINE",
"507 526 LINE",
"475 645 LINE",
"231 645 LINE",
"231 391 LINE",
"400 395 LINE",
"427 462 LINE",
"462 452 LINE",
"462 275 LINE",
"434 265 LINE",
"400 331 LINE",
"231 336 LINE",
"231 55 LINE",
"494 55 LINE"
);
},
{
closed = 1;
nodes = (
"354 746 LINE",
"299 746 LINE",
"386 929 LINE",
"484 929 LINE"
);
}
);
};
components = (
{
name = E;
},
{
name = acutecomb;
transform = "{1, 0, 0, 1, 269, 180}";
}
);
layerId = UUID0;
width = 611;
}
);
leftKerningGroup = I;
rightKerningGroup = E;
unicode = 00C9;
},
{
glyphname = Ecircumflex;
layers = (
{
components = (
{
name = E;
},
{
name = circumflexcomb;
transform = "{1, 0, 0, 1, 86, 180}";
}
);
layerId = "03739D6D-2A00-4CFA-A48A-FF6A1F8AF183";
width = 642;
},
{
background = {
paths = (
{
closed = 1;
nodes = (
"526 171 LINE",
"578 160 LINE",
"578 0 LINE",
"36 0 LINE",
"36 35 LINE",
"131 64 LINE",
"131 636 LINE",
"36 655 LINE",
"46 700 LINE",
"557 700 LINE",
"557 536 LINE",
"507 526 LINE",
"475 645 LINE",
"231 645 LINE",
"231 391 LINE",
"400 395 LINE",
"427 462 LINE",
"462 452 LINE",
"462 275 LINE",
"434 265 LINE",
"400 331 LINE",
"231 336 LINE",
"231 55 LINE",
"494 55 LINE"
);
},
{
closed = 1;
nodes = (
"328 882 LINE",
"232 751 LINE",
"177 751 LINE",
"293 930 LINE",
"293 931 LINE",
"364 931 LINE",
"363 930 LINE",
"480 751 LINE",
"425 751 LINE"
);
}
);
};
components = (
{
name = E;
},
{
name = circumflexcomb;
transform = "{1, 0, 0, 1, 68, 180}";
}
);
layerId = UUID0;
width = 611;
}
);
leftKerningGroup = I;
rightKerningGroup = E;
unicode = 00CA;
},
{
glyphname = Edieresis;
layers = (
{
components = (
{
name = E;
},
{
name = dieresiscomb;
transform = "{1, 0, 0, 1, 160, 180}";
}
);
layerId = "03739D6D-2A00-4CFA-A48A-FF6A1F8AF183";
width = 642;
},
{
background = {
paths = (
{
closed = 1;
nodes = (
"526 171 LINE",
"578 160 LINE",
"578 0 LINE",
"36 0 LINE",
"36 35 LINE",
"131 64 LINE",
"131 636 LINE",
"36 655 LINE",
"46 700 LINE",
"557 700 LINE",
"557 536 LINE",
"507 526 LINE",
"475 645 LINE",
"231 645 LINE",
"231 391 LINE",
"400 395 LINE",
"427 462 LINE",
"462 452 LINE",
"462 275 LINE",
"434 265 LINE",
"400 331 LINE",
"231 336 LINE",
"231 55 LINE",
"494 55 LINE"
);
},
{
closed = 1;
nodes = (
"346 839 LINE",
"369 880 LINE",
"411 903 LINE",
"451 881 LINE",
"473 841 LINE",
"449 800 LINE",
"408 777 LINE",
"367 798 LINE"
);
},
{
closed = 1;
nodes = (
"135 839 LINE",
"158 880 LINE",
"200 903 LINE",
"240 881 LINE",
"262 841 LINE",
"238 800 LINE",
"197 777 LINE",
"156 798 LINE"
);
}
);
};
components = (
{
name = E;
},
{
name = dieresiscomb;
transform = "{1, 0, 0, 1, 142, 180}";
}
);
layerId = UUID0;
width = 611;
}
);
leftKerningGroup = I;
rightKerningGroup = E;
unicode = 00CB;
},
{
glyphname = Egrave;
layers = (
{
components = (
{
name = E;
},
{
name = gravecomb;
transform = "{1, 0, 0, 1, 52, 180}";
}
);
layerId = "03739D6D-2A00-4CFA-A48A-FF6A1F8AF183";
width = 642;
},
{
background = {
paths = (
{
closed = 1;
nodes = (
"526 171 LINE",
"578 160 LINE",
"578 0 LINE",
"36 0 LINE",
"36 35 LINE",
"131 64 LINE",
"131 636 LINE",
"36 655 LINE",
"46 700 LINE",
"557 700 LINE",
"557 536 LINE",
"507 526 LINE",
"475 645 LINE",
"231 645 LINE",
"231 391 LINE",
"400 395 LINE",
"427 462 LINE",
"462 452 LINE",
"462 275 LINE",
"434 265 LINE",
"400 331 LINE",
"231 336 LINE",
"231 55 LINE",
"494 55 LINE"
);
},
{
closed = 1;
nodes = (
"152 931 LINE",
"250 931 LINE",
"357 763 LINE",
"303 763 LINE"
);
}
);
};
components = (
{
name = E;
},
{
name = gravecomb;
transform = "{1, 0, 0, 1, 53, 180}";
}
);
layerId = UUID0;
width = 611;
}
);
leftKerningGroup = I;
rightKerningGroup = E;
unicode = 00C8;
},
{
glyphname = F;
layers = (
{
background = {
paths = (
{
closed = 1;
nodes = (
"424 395 LINE",
"451 462 LINE",
"486 452 LINE",
"486 275 LINE",
"458 265 LINE",
"424 331 LINE",
"255 336 LINE",
"255 64 LINE",
"369 45 LINE",
"359 0 LINE",
"60 0 LINE",
"60 35 LINE",
"155 64 LINE",
"155 636 LINE",
"60 655 LINE",
"70 700 LINE",
"581 700 LINE",
"581 531 LINE",
"531 521 LINE",
"499 645 LINE",
"255 645 LINE",
"255 391 LINE"
);
}
);
};
hints = (
{
place = "{120, 145}";
type = Stem;
},
{
horizontal = 1;
place = "{325, 75}";
type = Stem;
},
{
horizontal = 1;
place = "{635, 75}";
type = Stem;
},
{
horizontal = 1;
place = "{0, 21}";
target = up;
type = BottomGhost;
}
);
layerId = "03739D6D-2A00-4CFA-A48A-FF6A1F8AF183";
paths = (
{
closed = 1;
nodes = (
"380 0 LINE",
"390 50 LINE",
"265 69 LINE",
"265 326 LINE",
"433 324 LINE",
"467 258 LINE",
"495 268 LINE",
"495 459 LINE",
"460 469 LINE",
"433 402 LINE",
"265 398 LINE",
"265 635 LINE",
"487 635 LINE",
"517 515 LINE",
"582 525 LINE",
"582 710 LINE",
"35 710 LINE",
"25 665 LINE",
"120 646 LINE",
"120 69 LINE",
"25 40 LINE",
"25 0 LINE"
);
}
);
width = 616;
},
{
background = {
paths = (
{
closed = 1;
nodes = (
"400 395 LINE",
"427 462 LINE",
"462 452 LINE",
"462 275 LINE",
"434 265 LINE",
"400 331 LINE",
"231 336 LINE",
"231 64 LINE",
"345 45 LINE",
"335 0 LINE",
"36 0 LINE",
"36 35 LINE",
"131 64 LINE",
"131 636 LINE",
"36 655 LINE",
"46 700 LINE",
"557 700 LINE",
"557 531 LINE",
"507 521 LINE",
"475 645 LINE",
"231 645 LINE",
"231 391 LINE"
);
}
);
};
hints = (
{
place = "{131, 100}";
type = Stem;
},
{
place = "{507, 50}";
type = Stem;
},
{
place = "{434, 28}";
type = Stem;
},
{
horizontal = 1;
place = "{0, 35}";
type = Stem;
},
{
horizontal = 1;
place = "{333, 59}";
type = Stem;
},
{
horizontal = 1;
place = "{645, 55}";
type = Stem;
},
{
horizontal = 1;
place = "{0, 64}";
type = Stem;
}
);
layerId = UUID0;
paths = (
{
closed = 1;
nodes = (
"335 0 LINE",
"345 45 LINE",
"231 64 LINE",
"231 336 LINE",
"400 331 LINE",
"434 265 LINE",
"462 275 LINE",
"462 452 LINE",
"427 462 LINE",
"400 395 LINE",
"231 391 LINE",
"231 645 LINE",
"475 645 LINE",
"507 521 LINE",
"557 531 LINE",
"557 700 LINE",
"46 700 LINE",
"36 655 LINE",
"131 636 LINE",
"131 64 LINE",
"36 35 LINE",
"36 0 LINE"
);
}
);
width = 577;
}
);
leftKerningGroup = I;
rightKerningGroup = F;
unicode = 0046;
},
{
glyphname = G;
layers = (
{
background = {
paths = (
{
closed = 1;
nodes = (
"646 501 LINE",
"596 491 LINE",
"561 631 LINE",
"538 646 LINE",
"475 659 LINE",
"445 659 LINE",
"385 659 LINE",
"283 620 LINE",
"208 542 LINE",
"166 425 LINE",
"166 347 LINE",
"166 305 LINE",
"179 234 LINE",
"202 175 LINE",
"233 129 LINE",
"252 111 LINE",
"271 93 LINE",
"313 68 LINE",
"357 52 LINE",
"401 45 LINE",
"422 45 LINE",
"454 45 LINE",
"517 60 LINE",
"546 70 LINE",
"546 252 LINE",
"447 271 LINE",
"447 306 LINE",
"703 306 LINE",
"703 271 LINE",
"646 253 LINE",
"646 46 LINE",
"593 19 LINE",
"475 -14 LINE",
"409 -14 LINE",
"340 -14 LINE",
"215 32 LINE",
"119 124 LINE",
"61 258 LINE",
"61 347 LINE",
"61 411 LINE",
"90 515 LINE",
"141 596 LINE",
"212 656 LINE",
"297 695 LINE",
"394 714 LINE",
"446 714 LINE",
"551 714 LINE",
"646 669 LINE"
);
}
);
};
hints = (
{
place = "{40, 154}";
type = Stem;
},
{
place = "{510, 135}";
type = Stem;
},
{
horizontal = 1;
place = "{-14, 76}";
type = Stem;
},
{
horizontal = 1;
place = "{649, 75}";
type = Stem;
}
);
layerId = "03739D6D-2A00-4CFA-A48A-FF6A1F8AF183";
paths = (
{
closed = 1;
nodes = (
"520 -14 OFFCURVE",
"589 15 OFFCURVE",
"646 43 CURVE",
"645 248 LINE",
"703 279 LINE",
"703 319 LINE",
"424 319 LINE",
"424 269 LINE",
"510 247 LINE",
"510 70 LINE",
"492 66 OFFCURVE",
"468 62 OFFCURVE",
"445 62 CURVE SMOOTH",
"326 62 OFFCURVE",
"194 113 OFFCURVE",
"194 349 CURVE SMOOTH",
"194 548 OFFCURVE",
"317 649 OFFCURVE",
"446 649 CURVE SMOOTH",
"480 649 OFFCURVE",
"519 648 OFFCURVE",
"550 632 CURVE",
"583 493 LINE",
"648 503 LINE",
"648 682 LINE",
"583 710 OFFCURVE",
"513 724 OFFCURVE",
"445 724 CURVE SMOOTH",
"235 724 OFFCURVE",
"40 592 OFFCURVE",
"40 349 CURVE SMOOTH",
"40 64 OFFCURVE",
"229 -14 OFFCURVE",
"421 -14 CURVE SMOOTH"
);
}
);
width = 719;
},
{
background = {
paths = (
{
closed = 1;
nodes = (
"629 501 LINE",
"579 491 LINE",
"544 631 LINE",
"521 646 LINE",
"458 659 LINE",
"428 659 LINE",
"368 659 LINE",
"266 620 LINE",
"191 542 LINE",
"149 425 LINE",
"149 347 LINE",
"149 305 LINE",
"162 234 LINE",
"185 175 LINE",
"216 129 LINE",
"235 111 LINE",
"254 93 LINE",
"296 68 LINE",
"340 52 LINE",
"384 45 LINE",
"405 45 LINE",
"437 45 LINE",
"500 60 LINE",
"529 70 LINE",
"529 252 LINE",
"430 271 LINE",
"430 306 LINE",
"686 306 LINE",
"686 271 LINE",
"629 253 LINE",
"629 46 LINE",
"576 19 LINE",
"458 -14 LINE",
"392 -14 LINE",
"323 -14 LINE",
"198 32 LINE",
"102 124 LINE",
"44 258 LINE",
"44 347 LINE",
"44 411 LINE",
"73 515 LINE",
"124 596 LINE",
"195 656 LINE",
"280 695 LINE",
"377 714 LINE",
"429 714 LINE",
"534 714 LINE",
"629 669 LINE"
);
}
);
};
hints = (
{
place = "{44, 105}";
type = Stem;
},
{
place = "{529, 100}";
type = Stem;
},
{
horizontal = 1;
place = "{-14, 59}";
type = Stem;
},
{
horizontal = 1;
place = "{271, 35}";
type = Stem;
},
{
horizontal = 1;
place = "{659, 55}";
type = Stem;
}
);
layerId = UUID0;
paths = (
{
closed = 1;
nodes = (
"478 -14 OFFCURVE",
"558 11 OFFCURVE",
"629 46 CURVE",
"629 253 LINE",
"685 271 LINE",
"685 306 LINE",
"429 306 LINE",
"429 271 LINE",
"529 252 LINE",
"529 70 LINE",
"489 55 OFFCURVE",
"446 45 OFFCURVE",
"405 45 CURVE SMOOTH",
"292 45 OFFCURVE",
"149 122 OFFCURVE",
"149 349 CURVE SMOOTH",
"149 558 OFFCURVE",
"268 659 OFFCURVE",
"427 659 CURVE SMOOTH",
"467 659 OFFCURVE",
"512 652 OFFCURVE",
"544 632 CURVE",
"578 491 LINE",
"629 501 LINE",
"629 670 LINE",
"565 699 OFFCURVE",
"498 714 OFFCURVE",
"428 714 CURVE SMOOTH",
"223 714 OFFCURVE",
"44 602 OFFCURVE",
"44 349 CURVE SMOOTH",
"44 114 OFFCURVE",
"209 -14 OFFCURVE",
"391 -14 CURVE SMOOTH"
);
}
);
width = 713;
}
);
leftKerningGroup = O;
rightKerningGroup = C;
unicode = 0047;
},
{
glyphname = H;
layers = (
{
background = {
paths = (
{
closed = 1;
nodes = (
"764 45 LINE",
"754 0 LINE",
"474 0 LINE",
"474 35 LINE",
"569 64 LINE",
"569 329 LINE",
"229 329 LINE",
"229 64 LINE",
"324 45 LINE",
"314 0 LINE",
"34 0 LINE",
"34 35 LINE",
"129 64 LINE",
"129 636 LINE",
"34 655 LINE",
"44 700 LINE",
"324 700 LINE",
"324 665 LINE",
"229 636 LINE",
"229 384 LINE",
"569 384 LINE",
"569 636 LINE",
"474 655 LINE",
"484 700 LINE",
"764 700 LINE",
"764 665 LINE",
"669 636 LINE",
"669 64 LINE"
);
},
{
closed = 1;
nodes = (
"669 64 LINE",
"669 636 LINE",
"764 665 LINE",
"764 700 LINE",
"484 700 LINE",
"474 655 LINE",
"569 636 LINE",
"569 384 LINE",
"229 384 LINE",
"229 636 LINE",
"324 665 LINE",
"324 700 LINE",
"44 700 LINE",
"34 655 LINE",
"129 636 LINE",
"129 64 LINE",
"34 35 LINE",
"34 0 LINE",
"314 0 LINE",
"324 45 LINE",
"229 64 LINE",
"229 329 LINE",
"569 329 LINE",
"569 64 LINE",
"474 35 LINE",
"474 0 LINE",
"754 0 LINE",
"764 45 LINE"
);
}
);
};
hints = (
{
place = "{124, 135}";
type = Stem;
},
{
place = "{569, 135}";
type = Stem;
},
{
horizontal = 1;
place = "{309, 75}";
type = Stem;
},
{
horizontal = 1;
place = "{710, -20}";
target = down;
type = TopGhost;
},
{
horizontal = 1;
place = "{0, 21}";
target = up;
type = BottomGhost;
}
);
layerId = "03739D6D-2A00-4CFA-A48A-FF6A1F8AF183";
paths = (
{
closed = 1;
nodes = (
"344 0 LINE",
"354 50 LINE",
"259 69 LINE",
"259 309 LINE",
"569 309 LINE",
"569 69 LINE",
"474 40 LINE",
"474 0 LINE",
"789 0 LINE",
"799 50 LINE",
"704 69 LINE",
"704 641 LINE",
"799 670 LINE",
"799 710 LINE",
"484 710 LINE",
"474 660 LINE",
"569 641 LINE",
"569 384 LINE",
"259 384 LINE",
"259 641 LINE",
"354 670 LINE",
"354 710 LINE",
"39 710 LINE",
"29 660 LINE",
"124 641 LINE",
"124 69 LINE",
"29 40 LINE",
"29 0 LINE"
);
}
);
width = 831;
},
{
background = {
paths = (
{
closed = 1;
nodes = (
"766 45 LINE",
"756 0 LINE",
"476 0 LINE",
"476 35 LINE",
"571 64 LINE",
"571 329 LINE",
"231 329 LINE",
"231 64 LINE",
"326 45 LINE",
"316 0 LINE",
"36 0 LINE",
"36 35 LINE",
"131 64 LINE",
"131 636 LINE",
"36 655 LINE",
"46 700 LINE",
"326 700 LINE",
"326 665 LINE",
"231 636 LINE",
"231 384 LINE",
"571 384 LINE",
"571 636 LINE",
"476 655 LINE",
"486 700 LINE",
"766 700 LINE",
"766 665 LINE",
"671 636 LINE",
"671 64 LINE"
);
}
);
};
hints = (
{
place = "{131, 100}";
type = Stem;
},
{
place = "{571, 100}";
type = Stem;
},
{
horizontal = 1;
place = "{0, 64}";
type = Stem;
},
{
horizontal = 1;
place = "{329, 55}";
type = Stem;
},
{
horizontal = 1;
place = "{636, 64}";
type = Stem;
},
{
horizontal = 1;
place = "{0, 35}";
type = Stem;
},
{
horizontal = 1;
place = "{665, 35}";
type = Stem;
},
{
horizontal = 1;
place = "{655, 45}";
type = Stem;
}
);
layerId = UUID0;
paths = (
{
closed = 1;
nodes = (
"316 0 LINE",
"326 45 LINE",
"231 64 LINE",
"231 329 LINE",
"571 329 LINE",
"571 64 LINE",
"476 35 LINE",
"476 0 LINE",
"756 0 LINE",
"766 45 LINE",
"671 64 LINE",
"671 636 LINE",
"766 665 LINE",
"766 700 LINE",
"486 700 LINE",
"476 655 LINE",
"571 636 LINE",
"571 384 LINE",
"231 384 LINE",
"231 636 LINE",
"326 665 LINE",
"326 700 LINE",
"46 700 LINE",
"36 655 LINE",
"131 636 LINE",
"131 64 LINE",
"36 35 LINE",
"36 0 LINE"
);
}
);
width = 802;
}
);
leftKerningGroup = I;
rightKerningGroup = I;
unicode = 0048;
},
{
glyphname = I;
layers = (
{
anchors = (
{
name = bottom;
position = "{208, 0}";
},
{
name = ogonek;
position = "{374, 10}";
},
{
name = top;
position = "{208, 710}";
},
{
name = topleft;
position = "{20, 710}";
}
);
background = {
paths = (
{
closed = 1;
nodes = (
"235 636 LINE",
"235 64 LINE",
"330 45 LINE",
"320 0 LINE",
"40 0 LINE",
"40 35 LINE",
"135 64 LINE",
"135 636 LINE",
"40 655 LINE",
"50 700 LINE",
"330 700 LINE",
"330 665 LINE"
);
}
);
};
hints = (
{
place = "{135, 145}";
type = Stem;
},
{
horizontal = 1;
place = "{710, -20}";
target = down;
type = TopGhost;
},
{
horizontal = 1;
place = "{0, 21}";
target = up;
type = BottomGhost;
}
);
layerId = "03739D6D-2A00-4CFA-A48A-FF6A1F8AF183";
paths = (
{
closed = 1;
nodes = (
"365 0 LINE",
"375 50 LINE",
"280 69 LINE",
"280 641 LINE",
"375 670 LINE",
"375 710 LINE",
"50 710 LINE",
"40 660 LINE",
"135 641 LINE",
"135 69 LINE",
"40 40 LINE",
"40 0 LINE"
);
}
);
width = 416;
},
{
anchors = (
{
name = bottom;
position = "{181, 0}";
},
{
name = ogonek;
position = "{326, 10}";
},
{
name = top;
position = "{181, 700}";
},
{
name = topleft;
position = "{20, 700}";
}
);
background = {
paths = (
{
closed = 1;
nodes = (
"231 636 LINE",
"231 64 LINE",
"326 45 LINE",
"316 0 LINE",
"36 0 LINE",
"36 35 LINE",
"131 64 LINE",
"131 636 LINE",
"36 655 LINE",
"46 700 LINE",
"326 700 LINE",
"326 665 LINE"
);
}
);
};
hints = (
{
place = "{131, 100}";
type = Stem;
},
{
horizontal = 1;
place = "{0, 35}";
type = Stem;
},
{
horizontal = 1;
place = "{665, 35}";
type = Stem;
},
{
horizontal = 1;
place = "{655, 45}";
type = Stem;
},
{
horizontal = 1;
place = "{0, 64}";
type = Stem;
},
{
horizontal = 1;
place = "{636, 64}";
type = Stem;
}
);
layerId = UUID0;
paths = (
{
closed = 1;
nodes = (
"316 0 LINE",
"326 45 LINE",
"231 64 LINE",
"231 636 LINE",
"326 665 LINE",
"326 700 LINE",
"46 700 LINE",
"36 655 LINE",
"131 636 LINE",
"131 64 LINE",
"36 35 LINE",
"36 0 LINE"
);
}
);
width = 362;
}
);
leftKerningGroup = I;
rightKerningGroup = I;
unicode = 0049;
},
{
glyphname = Iacute;
layers = (
{
components = (
{
name = I;
},
{
name = acutecomb;
transform = "{1, 0, 0, 1, 108, 180}";
}
);
layerId = "03739D6D-2A00-4CFA-A48A-FF6A1F8AF183";
width = 416;
},
{
background = {
paths = (
{
closed = 1;
nodes = (
"231 636 LINE",
"231 64 LINE",
"326 45 LINE",
"316 0 LINE",
"36 0 LINE",
"36 35 LINE",
"131 64 LINE",
"131 636 LINE",
"36 655 LINE",
"46 700 LINE",
"326 700 LINE",
"326 665 LINE"
);
},
{
closed = 1;
nodes = (
"211 746 LINE",
"157 746 LINE",
"244 929 LINE",
"342 929 LINE"
);
}
);
};
components = (
{
name = I;
},
{
name = acutecomb;
transform = "{1, 0, 0, 1, 120, 180}";
}
);
layerId = UUID0;
width = 362;
}
);
leftKerningGroup = I;
rightKerningGroup = I;
unicode = 00CD;
},
{
glyphname = Icircumflex;
layers = (
{
components = (
{
name = I;
},
{
name = circumflexcomb;
transform = "{1, 0, 0, 1, -54, 180}";
}
);
layerId = "03739D6D-2A00-4CFA-A48A-FF6A1F8AF183";
width = 416;
},
{
background = {
paths = (
{
closed = 1;
nodes = (
"231 636 LINE",
"231 64 LINE",
"326 45 LINE",
"316 0 LINE",
"36 0 LINE",
"36 35 LINE",
"131 64 LINE",
"131 636 LINE",
"36 655 LINE",
"46 700 LINE",
"326 700 LINE",
"326 665 LINE"
);
},
{
closed = 1;
nodes = (
"186 882 LINE",
"89 751 LINE",
"34 751 LINE",
"150 930 LINE",
"150 931 LINE",
"221 931 LINE",
"220 930 LINE",
"337 751 LINE",
"282 751 LINE"
);
}
);
};
components = (
{
name = I;
},
{
name = circumflexcomb;
transform = "{1, 0, 0, 1, -81, 180}";
}
);
layerId = UUID0;
width = 362;
}
);
leftKerningGroup = I;
rightKerningGroup = I;
unicode = 00CE;
},
{
glyphname = Idieresis;
layers = (
{
components = (
{
name = I;
},
{
name = dieresiscomb;
transform = "{1, 0, 0, 1, 20, 180}";
}
);
layerId = "03739D6D-2A00-4CFA-A48A-FF6A1F8AF183";
width = 416;
},
{
background = {
paths = (
{
closed = 1;
nodes = (
"231 636 LINE",
"231 64 LINE",
"326 45 LINE",
"316 0 LINE",
"36 0 LINE",
"36 35 LINE",
"131 64 LINE",
"131 636 LINE",
"36 655 LINE",
"46 700 LINE",
"326 700 LINE",
"326 665 LINE"
);
},
{
closed = 1;
nodes = (
"223 839 LINE",
"246 880 LINE",
"288 903 LINE",
"328 881 LINE",
"350 841 LINE",
"326 800 LINE",
"285 777 LINE",
"244 798 LINE"
);
},
{
closed = 1;
nodes = (
"12 839 LINE",
"35 880 LINE",
"77 903 LINE",
"117 881 LINE",
"139 841 LINE",
"115 800 LINE",
"74 777 LINE",
"33 798 LINE"
);
}
);
};
components = (
{
name = I;
},
{
name = dieresiscomb;
transform = "{1, 0, 0, 1, -7, 180}";
}
);
layerId = UUID0;
width = 362;
}
);
leftKerningGroup = I;
rightKerningGroup = I;
unicode = 00CF;
},
{
glyphname = Igrave;
layers = (
{
components = (
{
name = I;
},
{
name = gravecomb;
transform = "{1, 0, 0, 1, -88, 180}";
}
);
layerId = "03739D6D-2A00-4CFA-A48A-FF6A1F8AF183";
width = 416;
},
{
background = {
paths = (
{
closed = 1;
nodes = (
"231 636 LINE",
"231 64 LINE",
"326 45 LINE",
"316 0 LINE",
"36 0 LINE",
"36 35 LINE",
"131 64 LINE",
"131 636 LINE",
"36 655 LINE",
"46 700 LINE",
"326 700 LINE",
"326 665 LINE"
);
},
{
closed = 1;
nodes = (
"2 931 LINE",
"101 931 LINE",
"208 763 LINE",
"153 763 LINE"
);
}
);
};
components = (
{
name = I;
},
{
name = gravecomb;
transform = "{1, 0, 0, 1, -96, 180}";
}
);
layerId = UUID0;
width = 362;
}
);
leftKerningGroup = I;
rightKerningGroup = I;
unicode = 00CC;
},
{
glyphname = J;
layers = (
{
background = {
paths = (
{
closed = 1;
nodes = (
"301 42 LINE",
"274 12 LINE",
"208 -13 LINE",
"170 -13 LINE",
"129 -13 LINE",
"47 10 LINE",
"13 27 LINE",
"13 191 LINE",
"64 201 LINE",
"101 53 LINE",
"130 43 LINE",
"156 43 LINE",
"189 43 LINE",
"228 72 LINE",
"247 120 LINE",
"251 183 LINE",
"251 218 LINE",
"251 261 LINE",
"251 636 LINE",
"157 655 LINE",
"167 700 LINE",
"439 700 LINE",
"439 665 LINE",
"352 636 LINE",
"352 269 LINE",
"352 240 LINE",
"351 180 LINE",
"342 121 LINE",
"321 66 LINE"
);
}
);
};
hints = (
{
place = "{252, 145}";
type = Stem;
},
{
horizontal = 1;
place = "{-13, 69}";
type = Stem;
},
{
horizontal = 1;
place = "{708, -20}";
target = down;
type = TopGhost;
}
);
layerId = "03739D6D-2A00-4CFA-A48A-FF6A1F8AF183";
paths = (
{
closed = 1;
nodes = (
"260 -13 OFFCURVE",
"311 2 OFFCURVE",
"346 42 CURVE",
"399 106 OFFCURVE",
"397 192 OFFCURVE",
"397 269 CURVE",
"397 639 LINE",
"492 668 LINE",
"492 708 LINE",
"167 708 LINE",
"157 658 LINE",
"252 639 LINE",
"252 261 LINE",
"252 218 LINE SMOOTH",
"252 126 OFFCURVE",
"242 56 OFFCURVE",
"162 56 CURVE SMOOTH",
"148 56 OFFCURVE",
"144 55 OFFCURVE",
"124 63 CURVE",
"107 207 LINE",
"33 192 LINE",
"33 27 LINE",
"73 2 OFFCURVE",
"149 -13 OFFCURVE",
"191 -13 CURVE SMOOTH"
);
}
);
width = 518;
},
{
background = {
paths = (
{
closed = 1;
nodes = (
"321 42 LINE",
"294 12 LINE",
"228 -13 LINE",
"190 -13 LINE",
"149 -13 LINE",
"67 10 LINE",
"33 27 LINE",
"33 191 LINE",
"84 201 LINE",
"121 53 LINE",
"150 43 LINE",
"176 43 LINE",
"209 43 LINE",
"248 72 LINE",
"267 120 LINE",
"271 183 LINE",
"271 218 LINE",
"271 261 LINE",
"271 636 LINE",
"177 655 LINE",
"187 700 LINE",
"459 700 LINE",
"459 665 LINE",
"372 636 LINE",
"372 269 LINE",
"372 240 LINE",
"371 180 LINE",
"362 121 LINE",
"341 66 LINE"
);
}
);
};
hints = (
{
place = "{272, 100}";
type = Stem;
},
{
horizontal = 1;
place = "{-13, 56}";
type = Stem;
},
{
horizontal = 1;
place = "{665, 35}";
type = Stem;
},
{
horizontal = 1;
place = "{636, 64}";
type = Stem;
},
{
horizontal = 1;
place = "{655, 45}";
type = Stem;
}
);
layerId = UUID0;
paths = (
{
closed = 1;
nodes = (
"240 -13 OFFCURVE",
"286 2 OFFCURVE",
"321 42 CURVE",
"374 106 OFFCURVE",
"372 192 OFFCURVE",
"372 269 CURVE SMOOTH",
"372 636 LINE",
"460 665 LINE",
"460 700 LINE",
"187 700 LINE",
"177 655 LINE",
"272 636 LINE",
"272 261 LINE",
"272 218 LINE SMOOTH",
"272 126 OFFCURVE",
"266 43 OFFCURVE",
"176 43 CURVE SMOOTH",
"159 43 OFFCURVE",
"141 46 OFFCURVE",
"121 53 CURVE",
"85 201 LINE",
"33 191 LINE",
"33 27 LINE",
"80 4 OFFCURVE",
"136 -13 OFFCURVE",
"191 -13 CURVE SMOOTH"
);
}
);
width = 483;
}
);
leftKerningGroup = J;
rightKerningGroup = U;
unicode = 004A;
},
{
glyphname = K;
layers = (
{
background = {
paths = (
{
closed = 1;
nodes = (
"245 328 LINE",
"245 64 LINE",
"330 45 LINE",
"320 0 LINE",
"50 0 LINE",
"50 35 LINE",
"145 64 LINE",
"145 636 LINE",
"50 655 LINE",
"60 700 LINE",
"320 700 LINE",
"320 665 LINE",
"245 636 LINE",
"245 383 LINE",
"335 383 LINE",
"526 645 LINE",
"462 655 LINE",
"472 700 LINE",
"673 700 LINE",
"673 665 LINE",
"588 637 LINE",
"403 385 LINE",
"619 63 LINE",
"714 45 LINE",
"704 0 LINE",
"541 0 LINE",
"321 328 LINE"
);
}
);
};
hints = (
{
place = "{120, 145}";
type = Stem;
},
{
horizontal = 1;
place = "{313, 80}";
type = Stem;
},
{
horizontal = 1;
place = "{0, 21}";
target = up;
type = BottomGhost;
},
{
horizontal = 1;
place = "{710, -20}";
target = down;
type = TopGhost;
}
);
layerId = "03739D6D-2A00-4CFA-A48A-FF6A1F8AF183";
paths = (
{
closed = 1;
nodes = (
"340 0 LINE",
"350 50 LINE",
"265 69 LINE",
"265 313 LINE",
"336 313 LINE",
"547 0 LINE",
"731 0 LINE",
"743 56 LINE",
"678 68 LINE",
"439 391 LINE",
"624 642 LINE",
"709 670 LINE",
"709 710 LINE",
"477 710 LINE",
"467 660 LINE",
"531 650 LINE",
"340 393 LINE",
"265 393 LINE",
"265 641 LINE",
"340 670 LINE",
"340 710 LINE",
"35 710 LINE",
"25 660 LINE",
"120 641 LINE",
"120 69 LINE",
"25 40 LINE",
"25 0 LINE"
);
}
);
width = 786;
},
{
background = {
paths = (
{
closed = 1;
nodes = (
"231 328 LINE",
"231 64 LINE",
"316 45 LINE",
"306 0 LINE",
"36 0 LINE",
"36 35 LINE",
"131 64 LINE",
"131 636 LINE",
"36 655 LINE",
"46 700 LINE",
"306 700 LINE",
"306 665 LINE",
"231 636 LINE",
"231 383 LINE",
"321 383 LINE",
"512 645 LINE",
"448 655 LINE",
"458 700 LINE",
"659 700 LINE",
"659 665 LINE",
"574 637 LINE",
"389 385 LINE",
"605 63 LINE",
"700 45 LINE",
"690 0 LINE",
"527 0 LINE",
"307 328 LINE"
);
}
);
};
hints = (
{
place = "{131, 100}";
type = Stem;
},
{
horizontal = 1;
place = "{0, 35}";
type = Stem;
},
{
horizontal = 1;
place = "{328, 55}";
type = Stem;
},
{
horizontal = 1;
place = "{665, 35}";
type = Stem;
},
{
horizontal = 1;
place = "{655, 45}";
type = Stem;
},
{
horizontal = 1;
place = "{645, 55}";
type = Stem;
},
{
horizontal = 1;
place = "{0, 64}";
type = Stem;
},
{
horizontal = 1;
place = "{636, 64}";
type = Stem;
}
);
layerId = UUID0;
paths = (
{
closed = 1;
nodes = (
"306 0 LINE",
"316 45 LINE",
"231 64 LINE",
"231 328 LINE",
"307 328 LINE",
"527 0 LINE",
"690 0 LINE",
"700 45 LINE",
"605 63 LINE",
"389 385 LINE",
"574 637 LINE",
"659 665 LINE",
"659 700 LINE",
"458 700 LINE",
"448 655 LINE",
"512 645 LINE",
"321 383 LINE",
"231 383 LINE",
"231 636 LINE",
"306 665 LINE",
"306 700 LINE",
"46 700 LINE",
"36 655 LINE",
"131 636 LINE",
"131 64 LINE",
"36 35 LINE",
"36 0 LINE"
);
}
);
width = 687;
}
);
leftKerningGroup = I;
rightKerningGroup = K;
unicode = 004B;
},
{
glyphname = L;
layers = (
{
background = {
paths = (
{
closed = 1;
nodes = (
"517 199 LINE",
"567 189 LINE",
"567 0 LINE",
"60 0 LINE",
"60 35 LINE",
"155 64 LINE",
"155 636 LINE",
"60 655 LINE",
"70 700 LINE",
"360 700 LINE",
"360 665 LINE",
"255 636 LINE",
"255 55 LINE",
"483 55 LINE"
);
}
);
};
hints = (
{
place = "{120, 145}";
type = Stem;
},
{
horizontal = 1;
place = "{0, 80}";
type = Stem;
},
{
horizontal = 1;
place = "{710, -20}";
target = down;
type = TopGhost;
}
);
layerId = "03739D6D-2A00-4CFA-A48A-FF6A1F8AF183";
paths = (
{
closed = 1;
nodes = (
"576 0 LINE",
"576 214 LINE",
"510 224 LINE",
"483 80 LINE",
"265 80 LINE",
"265 641 LINE",
"370 670 LINE",
"370 710 LINE",
"35 710 LINE",
"25 660 LINE",
"120 641 LINE",
"120 74 LINE",
"25 40 LINE",
"25 0 LINE"
);
}
);
width = 610;
},
{
background = {
paths = (
{
closed = 1;
nodes = (
"493 199 LINE",
"543 189 LINE",
"543 0 LINE",
"36 0 LINE",
"36 35 LINE",
"131 64 LINE",
"131 636 LINE",
"36 655 LINE",
"46 700 LINE",
"336 700 LINE",
"336 665 LINE",
"231 636 LINE",
"231 55 LINE",
"459 55 LINE"
);
}
);
};
hints = (
{
place = "{131, 100}";
type = Stem;
},
{
place = "{493, 50}";
type = Stem;
},
{
horizontal = 1;
place = "{0, 55}";
type = Stem;
},
{
horizontal = 1;
place = "{665, 35}";
type = Stem;
},
{
horizontal = 1;
place = "{636, 64}";
type = Stem;
},
{
horizontal = 1;
place = "{655, 45}";
type = Stem;
}
);
layerId = UUID0;
paths = (
{
closed = 1;
nodes = (
"543 0 LINE",
"543 189 LINE",
"493 199 LINE",
"459 55 LINE",
"231 55 LINE",
"231 636 LINE",
"336 665 LINE",
"336 700 LINE",
"46 700 LINE",
"36 655 LINE",
"131 636 LINE",
"131 64 LINE",
"36 35 LINE",
"36 0 LINE"
);
}
);
width = 562;
}
);
leftKerningGroup = I;
rightKerningGroup = L;
unicode = 004C;
},
{
glyphname = M;
layers = (
{
background = {
paths = (
{
closed = 1;
nodes = (
"829 636 LINE",
"829 64 LINE",
"924 45 LINE",
"914 0 LINE",
"635 0 LINE",
"635 35 LINE",
"729 63 LINE",
"729 567 LINE",
"482 64 LINE",
"447 64 LINE",
"199 554 LINE",
"199 64 LINE",
"294 45 LINE",
"284 0 LINE",
"44 0 LINE",
"44 35 LINE",
"139 64 LINE",
"139 636 LINE",
"45 655 LINE",
"55 700 LINE",
"232 700 LINE",
"484 200 LINE",
"730 700 LINE",
"924 700 LINE",
"924 665 LINE"
);
}
);
};
hints = (
{
place = "{124, 85}";
type = Stem;
},
{
place = "{714, 145}";
type = Stem;
},
{
horizontal = 1;
place = "{710, -20}";
target = down;
type = TopGhost;
},
{
horizontal = 1;
place = "{0, 21}";
target = up;
type = BottomGhost;
}
);
layerId = "03739D6D-2A00-4CFA-A48A-FF6A1F8AF183";
paths = (
{
closed = 1;
nodes = (
"294 0 LINE",
"304 50 LINE",
"209 69 LINE",
"209 534 LINE",
"447 64 LINE",
"492 64 LINE",
"714 552 LINE",
"714 68 LINE",
"620 40 LINE",
"620 0 LINE",
"944 0 LINE",
"954 50 LINE",
"859 69 LINE",
"859 641 LINE",
"954 670 LINE",
"954 710 LINE",
"699 710 LINE",
"498 272 LINE",
"275 710 LINE",
"40 710 LINE",
"30 660 LINE",
"124 641 LINE",
"124 69 LINE",
"29 40 LINE",
"29 0 LINE"
);
}
);
width = 982;
},
{
background = {
paths = (
{
closed = 1;
nodes = (
"821 636 LINE",
"821 64 LINE",
"916 45 LINE",
"906 0 LINE",
"627 0 LINE",
"627 35 LINE",
"721 63 LINE",
"721 567 LINE",
"474 64 LINE",
"439 64 LINE",
"191 554 LINE",
"191 64 LINE",
"286 45 LINE",
"276 0 LINE",
"36 0 LINE",
"36 35 LINE",
"131 64 LINE",
"131 636 LINE",
"37 655 LINE",
"47 700 LINE",
"224 700 LINE",
"476 200 LINE",
"722 700 LINE",
"916 700 LINE",
"916 665 LINE"
);
}
);
};
hints = (
{
place = "{131, 60}";
type = Stem;
},
{
place = "{721, 100}";
type = Stem;
},
{
horizontal = 1;
place = "{0, 35}";
type = Stem;
},
{
horizontal = 1;
place = "{665, 35}";
type = Stem;
},
{
horizontal = 1;
place = "{655, 45}";
type = Stem;
},
{
horizontal = 1;
place = "{636, 64}";
type = Stem;
}
);
layerId = UUID0;
paths = (
{
closed = 1;
nodes = (
"276 0 LINE",
"286 45 LINE",
"191 64 LINE",
"191 554 LINE",
"439 64 LINE",
"474 64 LINE",
"721 567 LINE",
"721 63 LINE",
"627 35 LINE",
"627 0 LINE",
"906 0 LINE",
"916 45 LINE",
"821 64 LINE",
"821 636 LINE",
"916 665 LINE",
"916 700 LINE",
"722 700 LINE",
"476 200 LINE",
"224 700 LINE",
"47 700 LINE",
"37 655 LINE",
"131 636 LINE",
"131 64 LINE",
"36 35 LINE",
"36 0 LINE"
);
}
);
width = 952;
}
);
leftKerningGroup = I;
rightKerningGroup = I;
unicode = 004D;
},
{
glyphname = N;
layers = (
{
anchors = (
{
name = bottom;
position = "{406, 0}";
},
{
name = top;
position = "{406, 710}";
}
);
background = {
paths = (
{
closed = 1;
nodes = (
"197 700 LINE",
"606 157 LINE",
"606 636 LINE",
"512 655 LINE",
"522 700 LINE",
"761 700 LINE",
"761 665 LINE",
"666 636 LINE",
"666 0 LINE",
"606 0 LINE",
"197 544 LINE",
"197 64 LINE",
"292 45 LINE",
"282 0 LINE",
"42 0 LINE",
"42 35 LINE",
"137 64 LINE",
"137 636 LINE",
"42 655 LINE",
"52 700 LINE"
);
}
);
};
hints = (
{
place = "{120, 85}";
type = Stem;
},
{
place = "{601, 85}";
type = Stem;
},
{
horizontal = 1;
place = "{0, 21}";
target = up;
type = BottomGhost;
},
{
horizontal = 1;
place = "{710, -20}";
target = down;
type = TopGhost;
}
);
layerId = "03739D6D-2A00-4CFA-A48A-FF6A1F8AF183";
paths = (
{
closed = 1;
nodes = (
"290 0 LINE",
"300 50 LINE",
"205 69 LINE",
"205 534 LINE",
"601 0 LINE",
"686 0 LINE",
"686 641 LINE",
"781 670 LINE",
"781 710 LINE",
"516 710 LINE",
"506 660 LINE",
"601 641 LINE",
"601 235 LINE",
"249 710 LINE",
"36 710 LINE",
"26 660 LINE",
"120 641 LINE",
"120 69 LINE",
"25 40 LINE",
"25 0 LINE"
);
}
);
width = 812;
},
{
anchors = (
{
name = bottom;
position = "{391, 0}";
},
{
name = top;
position = "{391, 700}";
}
);
background = {
paths = (
{
closed = 1;
nodes = (
"191 700 LINE",
"600 157 LINE",
"600 636 LINE",
"506 655 LINE",
"516 700 LINE",
"755 700 LINE",
"755 665 LINE",
"660 636 LINE",
"660 0 LINE",
"600 0 LINE",
"191 544 LINE",
"191 64 LINE",
"286 45 LINE",
"276 0 LINE",
"36 0 LINE",
"36 35 LINE",
"131 64 LINE",
"131 636 LINE",
"36 655 LINE",
"46 700 LINE"
);
}
);
};
hints = (
{
place = "{131, 60}";
type = Stem;
},
{
place = "{600, 60}";
type = Stem;
},
{
horizontal = 1;
place = "{0, 35}";
type = Stem;
},
{
horizontal = 1;
place = "{665, 35}";
type = Stem;
},
{
horizontal = 1;
place = "{655, 45}";
type = Stem;
},
{
horizontal = 1;
place = "{0, 64}";
type = Stem;
},
{
horizontal = 1;
place = "{636, 64}";
type = Stem;
}
);
layerId = UUID0;
paths = (
{
closed = 1;
nodes = (
"276 0 LINE",
"286 45 LINE",
"191 64 LINE",
"191 544 LINE",
"600 0 LINE",
"660 0 LINE",
"660 636 LINE",
"755 665 LINE",
"755 700 LINE",
"516 700 LINE",
"506 655 LINE",
"600 636 LINE",
"600 157 LINE",
"191 700 LINE",
"46 700 LINE",
"36 655 LINE",
"131 636 LINE",
"131 64 LINE",
"36 35 LINE",
"36 0 LINE"
);
}
);
width = 782;
}
);
leftKerningGroup = I;
rightKerningGroup = I;
unicode = 004E;
},
{
glyphname = Ntilde;
layers = (
{
components = (
{
name = N;
},
{
name = tildecomb;
transform = "{1, 0, 0, 1, 10, 180}";
}
);
layerId = "03739D6D-2A00-4CFA-A48A-FF6A1F8AF183";
width = 812;
},
{
background = {
paths = (
{
closed = 1;
nodes = (
"191 700 LINE",
"600 157 LINE",
"600 636 LINE",
"506 655 LINE",
"516 700 LINE",
"755 700 LINE",
"755 665 LINE",
"660 636 LINE",
"660 0 LINE",
"600 0 LINE",
"191 544 LINE",
"191 64 LINE",
"286 45 LINE",
"276 0 LINE",
"36 0 LINE",
"36 35 LINE",
"131 64 LINE",
"131 636 LINE",
"36 655 LINE",
"46 700 LINE"
);
},
{
closed = 1;
nodes = (
"375 805 LINE",
"341 827 LINE",
"327 836 LINE",
"316 836 LINE",
"311 835 LINE",
"288 821 LINE",
"271 805 LINE",
"244 778 LINE",
"213 811 LINE",
"215 814 LINE",
"237 841 LINE",
"266 872 LINE",
"296 900 LINE",
"307 905 LINE",
"319 911 LINE",
"331 911 LINE",
"343 911 LINE",
"367 903 LINE",
"390 892 LINE",
"409 880 LINE",
"417 876 LINE",
"423 872 LINE",
"438 861 LINE",
"454 852 LINE",
"469 846 LINE",
"476 846 LINE",
"485 846 LINE",
"521 876 LINE",
"548 903 LINE",
"579 870 LINE",
"578 868 LINE",
"567 855 LINE",
"551 836 LINE",
"531 815 LINE",
"511 795 LINE",
"492 780 LINE",
"485 776 LINE",
"472 771 LINE",
"459 771 LINE",
"448 771 LINE",
"423 778 LINE",
"401 789 LINE",
"382 801 LINE"
);
}
);
};
components = (
{
name = N;
},
{
name = tildecomb;
transform = "{1, 0, 0, 1, -12, 180}";
}
);
layerId = UUID0;
width = 782;
}
);
leftKerningGroup = I;
rightKerningGroup = I;
unicode = 00D1;
},
{
glyphname = O;
layers = (
{
anchors = (
{
name = bottom;
position = "{401, 0}";
},
{
name = center;
position = "{401, 355}";
},
{
name = ogonek;
position = "{721, 10}";
},
{
name = top;
position = "{401, 710}";
},
{
name = topleft;
position = "{20, 710}";
},
{
name = topright;
position = "{781, 710}";
}
);
background = {
paths = (
{
closed = 1;
nodes = (
"411 41 LINE",
"461 41 LINE",
"543 89 LINE",
"601 169 LINE",
"633 275 LINE",
"633 332 LINE",
"633 394 LINE",
"605 512 LINE",
"545 603 LINE",
"452 659 LINE",
"388 659 LINE",
"338 659 LINE",
"256 611 LINE",
"198 531 LINE",
"166 425 LINE",
"166 368 LINE",
"166 306 LINE",
"194 188 LINE",
"254 97 LINE",
"347 41 LINE"
);
},
{
closed = 1;
nodes = (
"399 714 LINE",
"482 714 LINE",
"609 654 LINE",
"694 553 LINE",
"738 421 LINE",
"738 349 LINE",
"738 274 LINE",
"691 141 LINE",
"604 43 LINE",
"479 -14 LINE",
"400 -14 LINE",
"317 -14 LINE",
"190 46 LINE",
"104 147 LINE",
"61 279 LINE",
"61 351 LINE",
"61 426 LINE",
"108 559 LINE",
"195 657 LINE",
"320 714 LINE"
);
}
);
};
hints = (
{
place = "{36, 152}";
type = Stem;
},
{
place = "{610, 153}";
type = Stem;
},
{
horizontal = 1;
place = "{-14, 70}";
type = Stem;
},
{
horizontal = 1;
place = "{654, 70}";
type = Stem;
}
);
layerId = "03739D6D-2A00-4CFA-A48A-FF6A1F8AF183";
paths = (
{
closed = 1;
nodes = (
"630 -14 OFFCURVE",
"763 138 OFFCURVE",
"763 359 CURVE SMOOTH",
"763 561 OFFCURVE",
"630 724 OFFCURVE",
"399 724 CURVE SMOOTH",
"179 724 OFFCURVE",
"36 582 OFFCURVE",
"36 361 CURVE SMOOTH",
"36 149 OFFCURVE",
"168 -14 OFFCURVE",
"400 -14 CURVE SMOOTH"
);
},
{
closed = 1;
nodes = (
"242 56 OFFCURVE",
"188 233 OFFCURVE",
"188 378 CURVE SMOOTH",
"188 511 OFFCURVE",
"263 654 OFFCURVE",
"388 654 CURVE SMOOTH",
"557 654 OFFCURVE",
"610 487 OFFCURVE",
"610 342 CURVE SMOOTH",
"610 209 OFFCURVE",
"541 56 OFFCURVE",
"411 56 CURVE SMOOTH"
);
}
);
width = 801;
},
{
anchors = (
{
name = bottom;
position = "{383, 0}";
},
{
name = center;
position = "{383, 350}";
},
{
name = ogonek;
position = "{689, 10}";
},
{
name = top;
position = "{383, 700}";
},
{
name = topleft;
position = "{20, 700}";
},
{
name = topright;
position = "{745, 700}";
}
);
background = {
paths = (
{
closed = 1;
nodes = (
"394 41 LINE",
"444 41 LINE",
"526 89 LINE",
"584 169 LINE",
"616 275 LINE",
"616 332 LINE",
"616 394 LINE",
"588 512 LINE",
"528 603 LINE",
"435 659 LINE",
"371 659 LINE",
"321 659 LINE",
"239 611 LINE",
"181 531 LINE",
"149 425 LINE",
"149 368 LINE",
"149 306 LINE",
"177 188 LINE",
"237 97 LINE",
"330 41 LINE"
);
},
{
closed = 1;
nodes = (
"382 714 LINE",
"465 714 LINE",
"592 654 LINE",
"677 553 LINE",
"721 421 LINE",
"721 349 LINE",
"721 274 LINE",
"674 141 LINE",
"587 43 LINE",
"462 -14 LINE",
"383 -14 LINE",
"300 -14 LINE",
"173 46 LINE",
"87 147 LINE",
"44 279 LINE",
"44 351 LINE",
"44 426 LINE",
"91 559 LINE",
"178 657 LINE",
"303 714 LINE"
);
}
);
};
hints = (
{
place = "{44, 105}";
type = Stem;
},
{
place = "{616, 105}";
type = Stem;
},
{
horizontal = 1;
place = "{-14, 55}";
type = Stem;
},
{
horizontal = 1;
place = "{659, 55}";
type = Stem;
}
);
layerId = UUID0;
paths = (
{
closed = 1;
nodes = (
"593 -14 OFFCURVE",
"721 148 OFFCURVE",
"721 349 CURVE SMOOTH",
"721 541 OFFCURVE",
"603 714 OFFCURVE",
"382 714 CURVE SMOOTH",
"172 714 OFFCURVE",
"44 552 OFFCURVE",
"44 351 CURVE SMOOTH",
"44 159 OFFCURVE",
"161 -14 OFFCURVE",
"383 -14 CURVE SMOOTH"
);
},
{
closed = 1;
nodes = (
"222 41 OFFCURVE",
"149 203 OFFCURVE",
"149 368 CURVE SMOOTH",
"149 521 OFFCURVE",
"238 659 OFFCURVE",
"371 659 CURVE SMOOTH",
"543 659 OFFCURVE",
"616 497 OFFCURVE",
"616 332 CURVE SMOOTH",
"616 179 OFFCURVE",
"527 41 OFFCURVE",
"394 41 CURVE SMOOTH"
);
}
);
width = 765;
}
);
leftKerningGroup = O;
rightKerningGroup = O;
unicode = 004F;
},
{
glyphname = Oacute;
layers = (
{
components = (
{
name = O;
},
{
name = acutecomb;
transform = "{1, 0, 0, 1, 301, 180}";
}
);
layerId = "03739D6D-2A00-4CFA-A48A-FF6A1F8AF183";
width = 801;
},
{
background = {
paths = (
{
closed = 1;
nodes = (
"394 41 LINE",
"444 41 LINE",
"526 89 LINE",
"584 169 LINE",
"616 275 LINE",
"616 332 LINE",
"616 394 LINE",
"588 512 LINE",
"528 603 LINE",
"435 659 LINE",
"371 659 LINE",
"321 659 LINE",
"239 611 LINE",
"181 531 LINE",
"149 425 LINE",
"149 368 LINE",
"149 306 LINE",
"177 188 LINE",
"237 97 LINE",
"330 41 LINE"
);
},
{
closed = 1;
nodes = (
"382 714 LINE",
"465 714 LINE",
"592 654 LINE",
"677 553 LINE",
"721 421 LINE",
"721 349 LINE",
"721 274 LINE",
"674 141 LINE",
"587 43 LINE",
"462 -14 LINE",
"383 -14 LINE",
"300 -14 LINE",
"173 46 LINE",
"87 147 LINE",
"44 279 LINE",
"44 351 LINE",
"44 426 LINE",
"91 559 LINE",
"178 657 LINE",
"303 714 LINE"
);
},
{
closed = 1;
nodes = (
"405 746 LINE",
"350 746 LINE",
"437 929 LINE",
"535 929 LINE"
);
}
);
};
components = (
{
name = O;
},
{
name = acutecomb;
transform = "{1, 0, 0, 1, 322, 180}";
}
);
layerId = UUID0;
width = 765;
}
);
leftKerningGroup = O;
rightKerningGroup = O;
unicode = 00D3;
},
{
glyphname = Ocircumflex;
layers = (
{
components = (
{
name = O;
},
{
name = circumflexcomb;
transform = "{1, 0, 0, 1, 139, 180}";
}
);
layerId = "03739D6D-2A00-4CFA-A48A-FF6A1F8AF183";
width = 801;
},
{
background = {
paths = (
{
closed = 1;
nodes = (
"394 41 LINE",
"444 41 LINE",
"526 89 LINE",
"584 169 LINE",
"616 275 LINE",
"616 332 LINE",
"616 394 LINE",
"588 512 LINE",
"528 603 LINE",
"435 659 LINE",
"371 659 LINE",
"321 659 LINE",
"239 611 LINE",
"181 531 LINE",
"149 425 LINE",
"149 368 LINE",
"149 306 LINE",
"177 188 LINE",
"237 97 LINE",
"330 41 LINE"
);
},
{
closed = 1;
nodes = (
"382 714 LINE",
"465 714 LINE",
"592 654 LINE",
"677 553 LINE",
"721 421 LINE",
"721 349 LINE",
"721 274 LINE",
"674 141 LINE",
"587 43 LINE",
"462 -14 LINE",
"383 -14 LINE",
"300 -14 LINE",
"173 46 LINE",
"87 147 LINE",
"44 279 LINE",
"44 351 LINE",
"44 426 LINE",
"91 559 LINE",
"178 657 LINE",
"303 714 LINE"
);
},
{
closed = 1;
nodes = (
"377 882 LINE",
"281 750 LINE",
"226 750 LINE",
"342 930 LINE",
"342 931 LINE",
"413 931 LINE",
"412 930 LINE",
"529 750 LINE",
"474 750 LINE"
);
}
);
};
components = (
{
name = O;
},
{
name = circumflexcomb;
transform = "{1, 0, 0, 1, 121, 180}";
}
);
layerId = UUID0;
width = 765;
}
);
leftKerningGroup = O;
rightKerningGroup = O;
unicode = 00D4;
},
{
glyphname = Odieresis;
layers = (
{
components = (
{
name = O;
},
{
name = dieresiscomb;
transform = "{1, 0, 0, 1, 213, 180}";
}
);
layerId = "03739D6D-2A00-4CFA-A48A-FF6A1F8AF183";
width = 801;
},
{
background = {
paths = (
{
closed = 1;
nodes = (
"394 41 LINE",
"444 41 LINE",
"526 89 LINE",
"584 169 LINE",
"616 275 LINE",
"616 332 LINE",
"616 394 LINE",
"588 512 LINE",
"528 603 LINE",
"435 659 LINE",
"371 659 LINE",
"321 659 LINE",
"239 611 LINE",
"181 531 LINE",
"149 425 LINE",
"149 368 LINE",
"149 306 LINE",
"177 188 LINE",
"237 97 LINE",
"330 41 LINE"
);
},
{
closed = 1;
nodes = (
"382 714 LINE",
"465 714 LINE",
"592 654 LINE",
"677 553 LINE",
"721 421 LINE",
"721 349 LINE",
"721 274 LINE",
"674 141 LINE",
"587 43 LINE",
"462 -14 LINE",
"383 -14 LINE",
"300 -14 LINE",
"173 46 LINE",
"87 147 LINE",
"44 279 LINE",
"44 351 LINE",
"44 426 LINE",
"91 559 LINE",
"178 657 LINE",
"303 714 LINE"
);
},
{
closed = 1;
nodes = (
"420 839 LINE",
"443 880 LINE",
"485 903 LINE",
"525 881 LINE",
"547 841 LINE",
"523 800 LINE",
"482 777 LINE",
"441 798 LINE"
);
},
{
closed = 1;
nodes = (
"209 839 LINE",
"232 880 LINE",
"274 903 LINE",
"314 881 LINE",
"336 841 LINE",
"312 800 LINE",
"271 777 LINE",
"230 798 LINE"
);
}
);
};
components = (
{
name = O;
},
{
name = dieresiscomb;
transform = "{1, 0, 0, 1, 195, 180}";
}
);
layerId = UUID0;
width = 765;
}
);
leftKerningGroup = O;
rightKerningGroup = O;
unicode = 00D6;
},
{
glyphname = Ograve;
layers = (
{
components = (
{
name = O;
},
{
name = gravecomb;
transform = "{1, 0, 0, 1, 105, 180}";
}
);
layerId = "03739D6D-2A00-4CFA-A48A-FF6A1F8AF183";
width = 801;
},
{
background = {
paths = (
{
closed = 1;
nodes = (
"394 41 LINE",
"444 41 LINE",
"526 89 LINE",
"584 169 LINE",
"616 275 LINE",
"616 332 LINE",
"616 394 LINE",
"588 512 LINE",
"528 603 LINE",
"435 659 LINE",
"371 659 LINE",
"321 659 LINE",
"239 611 LINE",
"181 531 LINE",
"149 425 LINE",
"149 368 LINE",
"149 306 LINE",
"177 188 LINE",
"237 97 LINE",
"330 41 LINE"
);
},
{
closed = 1;
nodes = (
"382 714 LINE",
"465 714 LINE",
"592 654 LINE",
"677 553 LINE",
"721 421 LINE",
"721 349 LINE",
"721 274 LINE",
"674 141 LINE",
"587 43 LINE",
"462 -14 LINE",
"383 -14 LINE",
"300 -14 LINE",
"173 46 LINE",
"87 147 LINE",
"44 279 LINE",
"44 351 LINE",
"44 426 LINE",
"91 559 LINE",
"178 657 LINE",
"303 714 LINE"
);
},
{
closed = 1;
nodes = (
"220 931 LINE",
"318 931 LINE",
"425 763 LINE",
"370 763 LINE"
);
}
);
};
components = (
{
name = O;
},
{
name = gravecomb;
transform = "{1, 0, 0, 1, 106, 180}";
}
);
layerId = UUID0;
width = 765;
}
);
leftKerningGroup = O;
rightKerningGroup = O;
unicode = 00D2;
},
{
glyphname = Oslash;
layers = (
{
background = {
paths = (
{
closed = 1;
nodes = (
"363 714 LINE",
"406 714 LINE",
"482 697 LINE",
"514 682 LINE",
"557 761 LINE",
"607 736 LINE",
"562 653 LINE",
"631 602 LINE",
"703 441 LINE",
"703 349 LINE",
"703 274 LINE",
"655 141 LINE",
"568 43 LINE",
"443 -14 LINE",
"364 -14 LINE",
"322 -14 LINE",
"252 1 LINE",
"219 15 LINE",
"166 -85 LINE",
"117 -56 LINE",
"169 43 LINE",
"98 94 LINE",
"25 257 LINE",
"25 351 LINE",
"25 426 LINE",
"72 559 LINE",
"160 657 LINE",
"285 714 LINE"
);
},
{
closed = 1;
nodes = (
"130 368 LINE",
"130 296 LINE",
"169 163 LINE",
"209 116 LINE",
"481 620 LINE",
"455 638 LINE",
"391 659 LINE",
"353 659 LINE",
"302 659 LINE",
"221 611 LINE",
"163 531 LINE",
"130 425 LINE"
);
},
{
closed = 1;
nodes = (
"376 41 LINE",
"425 41 LINE",
"507 89 LINE",
"565 169 LINE",
"598 275 LINE",
"598 332 LINE",
"598 402 LINE",
"561 532 LINE",
"523 580 LINE",
"253 77 LINE",
"277 60 LINE",
"338 41 LINE"
);
}
);
};
hints = (
{
place = "{36, 152}";
type = Stem;
},
{
place = "{610, 153}";
type = Stem;
},
{
horizontal = 1;
place = "{-14, 70}";
type = Stem;
},
{
horizontal = 1;
place = "{654, 70}";
type = Stem;
},
{
horizontal = 1;
place = "{-85, 21}";
target = up;
type = BottomGhost;
},
{
horizontal = 1;
place = "{787, -20}";
target = down;
type = TopGhost;
}
);
layerId = "03739D6D-2A00-4CFA-A48A-FF6A1F8AF183";
paths = (
{
closed = 1;
nodes = (
"246 14 LINE",
"291 -4 OFFCURVE",
"342 -14 OFFCURVE",
"400 -14 CURVE SMOOTH",
"630 -14 OFFCURVE",
"763 138 OFFCURVE",
"763 359 CURVE SMOOTH",
"763 483 OFFCURVE",
"712 593 OFFCURVE",
"619 659 CURVE",
"668 744 LINE",
"594 787 LINE",
"543 699 LINE",
"501 715 OFFCURVE",
"452 724 OFFCURVE",
"399 724 CURVE SMOOTH",
"179 724 OFFCURVE",
"36 582 OFFCURVE",
"36 361 CURVE SMOOTH",
"36 233 OFFCURVE",
"83 124 OFFCURVE",
"172 56 CURVE",
"115 -42 LINE",
"189 -85 LINE"
);
},
{
closed = 1;
nodes = (
"201 227 OFFCURVE",
"188 306 OFFCURVE",
"188 378 CURVE SMOOTH",
"188 511 OFFCURVE",
"263 654 OFFCURVE",
"388 654 CURVE SMOOTH",
"432 654 OFFCURVE",
"469 642 OFFCURVE",
"499 622 CURVE",
"234 165 LINE"
);
},
{
closed = 1;
nodes = (
"362 56 OFFCURVE",
"324 70 OFFCURVE",
"293 94 CURVE",
"560 556 LINE",
"596 496 OFFCURVE",
"610 416 OFFCURVE",
"610 342 CURVE SMOOTH",
"610 209 OFFCURVE",
"541 56 OFFCURVE",
"411 56 CURVE SMOOTH"
);
}
);
width = 801;
},
{
background = {
paths = (
{
closed = 1;
nodes = (
"381 714 LINE",
"424 714 LINE",
"500 697 LINE",
"532 682 LINE",
"575 761 LINE",
"625 736 LINE",
"580 653 LINE",
"649 602 LINE",
"721 441 LINE",
"721 349 LINE",
"721 274 LINE",
"673 141 LINE",
"586 43 LINE",
"461 -14 LINE",
"382 -14 LINE",
"340 -14 LINE",
"270 1 LINE",
"237 15 LINE",
"184 -85 LINE",
"135 -56 LINE",
"187 43 LINE",
"116 94 LINE",
"43 257 LINE",
"43 351 LINE",
"43 426 LINE",
"90 559 LINE",
"178 657 LINE",
"303 714 LINE"
);
},
{
closed = 1;
nodes = (
"148 368 LINE",
"148 296 LINE",
"187 163 LINE",
"227 116 LINE",
"499 620 LINE",
"473 638 LINE",
"409 659 LINE",
"371 659 LINE",
"320 659 LINE",
"239 611 LINE",
"181 531 LINE",
"148 425 LINE"
);
},
{
closed = 1;
nodes = (
"394 41 LINE",
"443 41 LINE",
"525 89 LINE",
"583 169 LINE",
"616 275 LINE",
"616 332 LINE",
"616 402 LINE",
"579 532 LINE",
"541 580 LINE",
"271 77 LINE",
"295 60 LINE",
"356 41 LINE"
);
}
);
};
hints = (
{
place = "{43, 105}";
type = Stem;
},
{
place = "{615, 105}";
type = Stem;
},
{
horizontal = 1;
place = "{-14, 55}";
type = Stem;
},
{
horizontal = 1;
place = "{659, 55}";
type = Stem;
}
);
layerId = UUID0;
paths = (
{
closed = 1;
nodes = (
"237 15 LINE",
"280 -4 OFFCURVE",
"326 -14 OFFCURVE",
"382 -14 CURVE SMOOTH",
"592 -14 OFFCURVE",
"720 148 OFFCURVE",
"720 349 CURVE SMOOTH",
"720 472 OFFCURVE",
"672 585 OFFCURVE",
"579 653 CURVE",
"624 736 LINE",
"574 761 LINE",
"531 682 LINE",
"488 702 OFFCURVE",
"438 714 OFFCURVE",
"381 714 CURVE SMOOTH",
"171 714 OFFCURVE",
"43 552 OFFCURVE",
"43 351 CURVE SMOOTH",
"43 226 OFFCURVE",
"91 111 OFFCURVE",
"187 43 CURVE",
"134 -56 LINE",
"183 -85 LINE"
);
},
{
closed = 1;
nodes = (
"173 179 OFFCURVE",
"148 272 OFFCURVE",
"148 368 CURVE SMOOTH",
"148 521 OFFCURVE",
"237 659 OFFCURVE",
"370 659 CURVE SMOOTH",
"421 659 OFFCURVE",
"463 644 OFFCURVE",
"498 620 CURVE",
"226 116 LINE"
);
},
{
closed = 1;
nodes = (
"344 41 OFFCURVE",
"303 54 OFFCURVE",
"270 77 CURVE",
"540 580 LINE",
"591 516 OFFCURVE",
"615 425 OFFCURVE",
"615 332 CURVE SMOOTH",
"615 179 OFFCURVE",
"526 41 OFFCURVE",
"393 41 CURVE SMOOTH"
);
}
);
width = 764;
}
);
leftKerningGroup = O;
rightKerningGroup = O;
unicode = 00D8;
},
{
glyphname = Otilde;
layers = (
{
components = (
{
name = O;
},
{
name = tildecomb;
transform = "{1, 0, 0, 1, 5, 180}";
}
);
layerId = "03739D6D-2A00-4CFA-A48A-FF6A1F8AF183";
width = 801;
},
{
background = {
paths = (
{
closed = 1;
nodes = (
"394 41 LINE",
"444 41 LINE",
"526 89 LINE",
"584 169 LINE",
"616 275 LINE",
"616 332 LINE",
"616 394 LINE",
"588 512 LINE",
"528 603 LINE",
"435 659 LINE",
"371 659 LINE",
"321 659 LINE",
"239 611 LINE",
"181 531 LINE",
"149 425 LINE",
"149 368 LINE",
"149 306 LINE",
"177 188 LINE",
"237 97 LINE",
"330 41 LINE"
);
},
{
closed = 1;
nodes = (
"382 714 LINE",
"465 714 LINE",
"592 654 LINE",
"677 553 LINE",
"721 421 LINE",
"721 349 LINE",
"721 274 LINE",
"674 141 LINE",
"587 43 LINE",
"462 -14 LINE",
"383 -14 LINE",
"300 -14 LINE",
"173 46 LINE",
"87 147 LINE",
"44 279 LINE",
"44 351 LINE",
"44 426 LINE",
"91 559 LINE",
"178 657 LINE",
"303 714 LINE"
);
},
{
closed = 1;
nodes = (
"356 805 LINE",
"323 827 LINE",
"308 836 LINE",
"297 836 LINE",
"292 835 LINE",
"270 821 LINE",
"253 805 LINE",
"225 778 LINE",
"194 811 LINE",
"196 814 LINE",
"218 841 LINE",
"248 872 LINE",
"278 900 LINE",
"288 905 LINE",
"300 911 LINE",
"312 911 LINE",
"325 911 LINE",
"349 903 LINE",
"371 892 LINE",
"391 880 LINE",
"398 876 LINE",
"404 872 LINE",
"420 861 LINE",
"436 852 LINE",
"451 846 LINE",
"457 846 LINE",
"467 846 LINE",
"502 876 LINE",
"529 903 LINE",
"560 870 LINE",
"559 868 LINE",
"548 855 LINE",
"532 836 LINE",
"513 815 LINE",
"492 795 LINE",
"474 780 LINE",
"466 776 LINE",
"454 771 LINE",
"441 771 LINE",
"429 771 LINE",
"405 778 LINE",
"382 789 LINE",
"363 801 LINE"
);
}
);
};
components = (
{
name = O;
},
{
name = tildecomb;
transform = "{1, 0, 0, 1, -20, 180}";
}
);
layerId = UUID0;
width = 765;
}
);
leftKerningGroup = O;
rightKerningGroup = O;
unicode = 00D5;
},
{
glyphname = OE;
layers = (
{
background = {
paths = (
{
closed = 1;
nodes = (
"875 171 LINE",
"927 160 LINE",
"927 0 LINE",
"479 0 LINE",
"455 -7 LINE",
"405 -14 LINE",
"377 -14 LINE",
"294 -14 LINE",
"167 46 LINE",
"81 147 LINE",
"38 279 LINE",
"38 351 LINE",
"38 426 LINE",
"85 559 LINE",
"172 657 LINE",
"297 714 LINE",
"376 714 LINE",
"429 714 LINE",
"479 700 LINE",
"906 700 LINE",
"906 536 LINE",
"856 526 LINE",
"824 645 LINE",
"580 645 LINE",
"580 395 LINE",
"749 395 LINE",
"776 462 LINE",
"811 452 LINE",
"811 275 LINE",
"783 265 LINE",
"749 336 LINE",
"580 336 LINE",
"580 55 LINE",
"843 55 LINE"
);
},
{
closed = 1;
nodes = (
"388 41 LINE",
"408 41 LINE",
"460 58 LINE",
"479 67 LINE",
"479 629 LINE",
"455 643 LINE",
"398 659 LINE",
"365 659 LINE",
"315 659 LINE",
"233 611 LINE",
"175 531 LINE",
"143 425 LINE",
"143 368 LINE",
"143 306 LINE",
"171 188 LINE",
"231 97 LINE",
"324 41 LINE"
);
}
);
};
hints = (
{
place = "{42, 155}";
type = Stem;
},
{
place = "{507, 145}";
type = Stem;
},
{
horizontal = 1;
place = "{-14, 89}";
type = Stem;
},
{
horizontal = 1;
place = "{0, 75}";
type = Stem;
},
{
horizontal = 1;
place = "{326, 74}";
type = Stem;
},
{
horizontal = 1;
place = "{644, 66}";
type = Stem;
},
{
horizontal = 1;
place = "{644, 80}";
type = Stem;
}
);
layerId = "03739D6D-2A00-4CFA-A48A-FF6A1F8AF183";
paths = (
{
closed = 1;
nodes = (
"446 -14 OFFCURVE",
"483 -9 OFFCURVE",
"517 0 CURVE",
"989 0 LINE",
"990 179 LINE",
"924 189 LINE",
"897 75 LINE",
"652 75 LINE",
"652 329 LINE",
"821 324 LINE",
"855 258 LINE",
"883 268 LINE",
"883 459 LINE",
"848 469 LINE",
"821 402 LINE",
"652 398 LINE",
"652 635 LINE",
"886 635 LINE",
"916 515 LINE",
"981 525 LINE",
"981 710 LINE",
"516 710 LINE",
"482 719 OFFCURVE",
"445 724 OFFCURVE",
"405 724 CURVE SMOOTH",
"185 724 OFFCURVE",
"42 582 OFFCURVE",
"42 361 CURVE SMOOTH",
"42 149 OFFCURVE",
"174 -14 OFFCURVE",
"406 -14 CURVE SMOOTH"
);
},
{
closed = 1;
nodes = (
"255 66 OFFCURVE",
"197 233 OFFCURVE",
"197 378 CURVE SMOOTH",
"197 511 OFFCURVE",
"271 644 OFFCURVE",
"394 644 CURVE SMOOTH",
"440 644 OFFCURVE",
"477 631 OFFCURVE",
"507 610 CURVE",
"507 95 LINE",
"481 77 OFFCURVE",
"451 66 OFFCURVE",
"417 66 CURVE SMOOTH"
);
}
);
width = 1023;
},
{
background = {
paths = (
{
closed = 1;
nodes = (
"881 171 LINE",
"933 160 LINE",
"933 0 LINE",
"485 0 LINE",
"461 -7 LINE",
"411 -14 LINE",
"383 -14 LINE",
"300 -14 LINE",
"173 46 LINE",
"87 147 LINE",
"44 279 LINE",
"44 351 LINE",
"44 426 LINE",
"91 559 LINE",
"178 657 LINE",
"303 714 LINE",
"382 714 LINE",
"435 714 LINE",
"485 700 LINE",
"912 700 LINE",
"912 536 LINE",
"862 526 LINE",
"830 645 LINE",
"586 645 LINE",
"586 395 LINE",
"755 395 LINE",
"782 462 LINE",
"817 452 LINE",
"817 275 LINE",
"789 265 LINE",
"755 336 LINE",
"586 336 LINE",
"586 55 LINE",
"849 55 LINE"
);
},
{
closed = 1;
nodes = (
"394 41 LINE",
"414 41 LINE",
"466 58 LINE",
"485 67 LINE",
"485 629 LINE",
"461 643 LINE",
"404 659 LINE",
"371 659 LINE",
"321 659 LINE",
"239 611 LINE",
"181 531 LINE",
"149 425 LINE",
"149 368 LINE",
"149 306 LINE",
"177 188 LINE",
"237 97 LINE",
"330 41 LINE"
);
}
);
};
hints = (
{
place = "{44, 105}";
type = Stem;
},
{
place = "{485, 101}";
type = Stem;
},
{
place = "{789, 28}";
type = Stem;
},
{
place = "{881, 52}";
type = Stem;
},
{
place = "{862, 50}";
type = Stem;
},
{
horizontal = 1;
place = "{0, 55}";
type = Stem;
},
{
horizontal = 1;
place = "{336, 59}";
type = Stem;
},
{
horizontal = 1;
place = "{645, 55}";
type = Stem;
},
{
horizontal = 1;
place = "{-14, 55}";
type = Stem;
},
{
horizontal = 1;
place = "{659, 55}";
type = Stem;
}
);
layerId = UUID0;
paths = (
{
closed = 1;
nodes = (
"420 -14 OFFCURVE",
"453 -9 OFFCURVE",
"485 0 CURVE",
"933 0 LINE",
"933 160 LINE",
"881 171 LINE",
"849 55 LINE",
"586 55 LINE",
"586 336 LINE",
"755 336 LINE",
"789 265 LINE",
"817 275 LINE",
"817 452 LINE",
"782 462 LINE",
"755 395 LINE",
"586 395 LINE",
"586 645 LINE",
"830 645 LINE",
"862 526 LINE",
"912 536 LINE",
"912 700 LINE",
"485 700 LINE",
"452 709 OFFCURVE",
"417 714 OFFCURVE",
"382 714 CURVE SMOOTH",
"172 714 OFFCURVE",
"44 552 OFFCURVE",
"44 351 CURVE SMOOTH",
"44 159 OFFCURVE",
"161 -14 OFFCURVE",
"383 -14 CURVE SMOOTH"
);
},
{
closed = 1;
nodes = (
"222 41 OFFCURVE",
"149 203 OFFCURVE",
"149 368 CURVE SMOOTH",
"149 521 OFFCURVE",
"238 659 OFFCURVE",
"371 659 CURVE SMOOTH",
"415 659 OFFCURVE",
"453 648 OFFCURVE",
"485 629 CURVE",
"485 67 LINE",
"460 55 OFFCURVE",
"421 41 OFFCURVE",
"394 41 CURVE SMOOTH"
);
}
);
width = 966;
}
);
leftKerningGroup = O;
rightKerningGroup = E;
unicode = 0152;
},
{
glyphname = P;
layers = (
{
background = {
paths = (
{
closed = 1;
nodes = (
"329 700 LINE",
"375 700 LINE",
"472 689 LINE",
"553 645 LINE",
"605 558 LINE",
"605 482 LINE",
"605 415 LINE",
"553 333 LINE",
"472 288 LINE",
"375 272 LINE",
"329 272 LINE",
"265 272 LINE",
"265 64 LINE",
"380 45 LINE",
"370 0 LINE",
"70 0 LINE",
"70 35 LINE",
"165 64 LINE",
"165 636 LINE",
"70 655 LINE",
"80 700 LINE"
);
},
{
closed = 1;
nodes = (
"265 645 LINE",
"265 327 LINE",
"329 327 LINE",
"361 327 LINE",
"422 336 LINE",
"470 367 LINE",
"500 429 LINE",
"500 482 LINE",
"500 529 LINE",
"473 592 LINE",
"427 629 LINE",
"365 645 LINE",
"329 645 LINE"
);
}
);
};
hints = (
{
place = "{120, 145}";
type = Stem;
},
{
place = "{480, 155}";
type = Stem;
},
{
horizontal = 1;
place = "{262, 80}";
type = Stem;
},
{
horizontal = 1;
place = "{630, 80}";
type = Stem;
},
{
horizontal = 1;
place = "{0, 21}";
target = up;
type = BottomGhost;
}
);
layerId = "03739D6D-2A00-4CFA-A48A-FF6A1F8AF183";
paths = (
{
closed = 1;
nodes = (
"370 0 LINE",
"380 50 LINE",
"265 69 LINE",
"265 262 LINE",
"329 262 LINE SMOOTH",
"451 262 OFFCURVE",
"635 294 OFFCURVE",
"635 492 CURVE SMOOTH",
"635 705 OFFCURVE",
"451 710 OFFCURVE",
"329 710 CURVE SMOOTH",
"38 710 LINE",
"26 660 LINE",
"120 641 LINE",
"120 69 LINE",
"25 40 LINE",
"25 0 LINE"
);
},
{
closed = 1;
nodes = (
"265 630 LINE",
"329 630 LINE SMOOTH",
"434 630 OFFCURVE",
"480 587 OFFCURVE",
"480 492 CURVE SMOOTH",
"480 381 OFFCURVE",
"423 342 OFFCURVE",
"329 342 CURVE SMOOTH",
"265 342 LINE"
);
}
);
width = 665;
},
{
background = {
paths = (
{
closed = 1;
nodes = (
"295 700 LINE",
"341 700 LINE",
"438 689 LINE",
"519 645 LINE",
"571 558 LINE",
"571 482 LINE",
"571 415 LINE",
"519 333 LINE",
"438 288 LINE",
"341 272 LINE",
"295 272 LINE",
"231 272 LINE",
"231 64 LINE",
"346 45 LINE",
"336 0 LINE",
"36 0 LINE",
"36 35 LINE",
"131 64 LINE",
"131 636 LINE",
"36 655 LINE",
"46 700 LINE"
);
},
{
closed = 1;
nodes = (
"231 645 LINE",
"231 327 LINE",
"295 327 LINE",
"327 327 LINE",
"388 336 LINE",
"436 367 LINE",
"466 429 LINE",
"466 482 LINE",
"466 529 LINE",
"439 592 LINE",
"393 629 LINE",
"331 645 LINE",
"295 645 LINE"
);
}
);
};
hints = (
{
place = "{131, 100}";
type = Stem;
},
{
place = "{466, 105}";
type = Stem;
},
{
horizontal = 1;
place = "{0, 35}";
type = Stem;
},
{
horizontal = 1;
place = "{272, 55}";
type = Stem;
},
{
horizontal = 1;
place = "{645, 55}";
type = Stem;
},
{
horizontal = 1;
place = "{0, 64}";
type = Stem;
}
);
layerId = UUID0;
paths = (
{
closed = 1;
nodes = (
"336 0 LINE",
"346 45 LINE",
"231 64 LINE",
"231 272 LINE",
"295 272 LINE SMOOTH",
"417 272 OFFCURVE",
"571 304 OFFCURVE",
"571 482 CURVE SMOOTH",
"571 685 OFFCURVE",
"417 700 OFFCURVE",
"295 700 CURVE SMOOTH",
"46 700 LINE",
"36 655 LINE",
"131 636 LINE",
"131 64 LINE",
"36 35 LINE",
"36 0 LINE"
);
},
{
closed = 1;
nodes = (
"231 645 LINE",
"295 645 LINE SMOOTH",
"390 645 OFFCURVE",
"466 607 OFFCURVE",
"466 482 CURVE SMOOTH",
"466 341 OFFCURVE",
"379 327 OFFCURVE",
"295 327 CURVE SMOOTH",
"231 327 LINE"
);
}
);
width = 599;
}
);
leftKerningGroup = I;
rightKerningGroup = P;
unicode = 0050;
},
{
glyphname = Thorn;
layers = (
{
background = {
paths = (
{
closed = 1;
nodes = (
"376 45 LINE",
"366 0 LINE",
"66 0 LINE",
"66 35 LINE",
"161 64 LINE",
"161 636 LINE",
"66 655 LINE",
"76 700 LINE",
"356 700 LINE",
"356 665 LINE",
"261 636 LINE",
"261 565 LINE",
"335 565 LINE",
"451 565 LINE",
"583 463 LINE",
"583 373 LINE",
"583 333 LINE",
"554 256 LINE",
"495 195 LINE",
"405 158 LINE",
"345 158 LINE",
"261 158 LINE",
"261 64 LINE"
);
},
{
closed = 1;
nodes = (
"261 510 LINE",
"261 213 LINE",
"305 213 LINE",
"402 213 LINE",
"483 294 LINE",
"483 372 LINE",
"483 400 LINE",
"460 450 LINE",
"418 488 LINE",
"360 510 LINE",
"325 510 LINE"
);
}
);
};
hints = (
{
place = "{121, 140}";
type = Stem;
},
{
place = "{460, 133}";
type = Stem;
},
{
horizontal = 1;
place = "{0, 233}";
type = Stem;
},
{
horizontal = 1;
place = "{148, 85}";
type = Stem;
},
{
horizontal = 1;
place = "{492, 83}";
type = Stem;
},
{
horizontal = 1;
place = "{492, 208}";
type = Stem;
}
);
layerId = "03739D6D-2A00-4CFA-A48A-FF6A1F8AF183";
paths = (
{
closed = 1;
nodes = (
"366 0 LINE",
"376 45 LINE",
"261 64 LINE",
"261 148 LINE",
"345 148 LINE SMOOTH",
"531 148 OFFCURVE",
"593 266 OFFCURVE",
"593 373 CURVE SMOOTH",
"593 493 OFFCURVE",
"507 575 OFFCURVE",
"335 575 CURVE SMOOTH",
"261 575 LINE",
"261 636 LINE",
"356 665 LINE",
"356 700 LINE",
"36 700 LINE",
"26 655 LINE",
"121 636 LINE",
"121 64 LINE",
"26 35 LINE",
"26 0 LINE"
);
},
{
closed = 1;
nodes = (
"261 492 LINE",
"325 492 LINE SMOOTH",
"389 492 OFFCURVE",
"460 459 OFFCURVE",
"460 372 CURVE SMOOTH",
"460 271 OFFCURVE",
"421 233 OFFCURVE",
"305 233 CURVE SMOOTH",
"261 233 LINE"
);
}
);
width = 622;
},
{
background = {
paths = (
{
closed = 1;
nodes = (
"346 45 LINE",
"336 0 LINE",
"36 0 LINE",
"36 35 LINE",
"131 64 LINE",
"131 636 LINE",
"36 655 LINE",
"46 700 LINE",
"326 700 LINE",
"326 665 LINE",
"231 636 LINE",
"231 565 LINE",
"305 565 LINE",
"421 565 LINE",
"553 463 LINE",
"553 373 LINE",
"553 333 LINE",
"524 256 LINE",
"465 195 LINE",
"375 158 LINE",
"315 158 LINE",
"231 158 LINE",
"231 64 LINE"
);
},
{
closed = 1;
nodes = (
"231 510 LINE",
"231 213 LINE",
"275 213 LINE",
"372 213 LINE",
"453 294 LINE",
"453 372 LINE",
"453 400 LINE",
"430 450 LINE",
"388 488 LINE",
"330 510 LINE",
"295 510 LINE"
);
}
);
};
hints = (
{
place = "{131, 100}";
type = Stem;
},
{
place = "{453, 100}";
type = Stem;
},
{
horizontal = 1;
place = "{0, 64}";
type = Stem;
},
{
horizontal = 1;
place = "{158, 55}";
type = Stem;
},
{
horizontal = 1;
place = "{510, 55}";
type = Stem;
},
{
horizontal = 1;
place = "{636, 64}";
type = Stem;
},
{
horizontal = 1;
place = "{0, 35}";
type = Stem;
},
{
horizontal = 1;
place = "{665, 35}";
type = Stem;
},
{
horizontal = 1;
place = "{655, 45}";
type = Stem;
}
);
layerId = UUID0;
paths = (
{
closed = 1;
nodes = (
"336 0 LINE",
"346 45 LINE",
"231 64 LINE",
"231 158 LINE",
"315 158 LINE SMOOTH",
"476 158 OFFCURVE",
"553 266 OFFCURVE",
"553 373 CURVE SMOOTH",
"553 493 OFFCURVE",
"460 565 OFFCURVE",
"305 565 CURVE SMOOTH",
"231 565 LINE",
"231 636 LINE",
"326 665 LINE",
"326 700 LINE",
"46 700 LINE",
"36 655 LINE",
"131 636 LINE",
"131 64 LINE",
"36 35 LINE",
"36 0 LINE"
);
},
{
closed = 1;
nodes = (
"231 510 LINE",
"295 510 LINE SMOOTH",
"388 510 OFFCURVE",
"453 447 OFFCURVE",
"453 372 CURVE SMOOTH",
"453 268 OFFCURVE",
"404 213 OFFCURVE",
"275 213 CURVE SMOOTH",
"231 213 LINE"
);
}
);
width = 579;
}
);
leftKerningGroup = I;
rightKerningGroup = P;
unicode = 00DE;
},
{
glyphname = Q;
layers = (
{
background = {
paths = (
{
closed = 1;
nodes = (
"395 714 LINE",
"478 714 LINE",
"605 654 LINE",
"691 553 LINE",
"735 421 LINE",
"735 349 LINE",
"735 284 LINE",
"700 169 LINE",
"636 76 LINE",
"541 10 LINE",
"483 -4 LINE",
"505 -38 LINE",
"573 -77 LINE",
"646 -94 LINE",
"721 -93 LINE",
"750 -87 LINE",
"750 -124 LINE",
"701 -144 LINE",
"592 -157 LINE",
"488 -133 LINE",
"399 -69 LINE",
"371 -13 LINE",
"295 -8 LINE",
"177 55 LINE",
"97 155 LINE",
"57 282 LINE",
"57 351 LINE",
"57 426 LINE",
"104 559 LINE",
"192 657 LINE",
"317 714 LINE"
);
},
{
closed = 1;
nodes = (
"408 41 LINE",
"457 41 LINE",
"539 89 LINE",
"597 169 LINE",
"630 275 LINE",
"630 332 LINE",
"630 394 LINE",
"601 512 LINE",
"541 603 LINE",
"449 659 LINE",
"385 659 LINE",
"334 659 LINE",
"253 611 LINE",
"195 531 LINE",
"162 425 LINE",
"162 368 LINE",
"162 306 LINE",
"191 188 LINE",
"250 97 LINE",
"344 41 LINE"
);
}
);
};
hints = (
{
place = "{36, 153}";
type = Stem;
},
{
place = "{610, 153}";
type = Stem;
},
{
horizontal = 1;
place = "{654, 70}";
type = Stem;
}
);
layerId = "03739D6D-2A00-4CFA-A48A-FF6A1F8AF183";
paths = (
{
closed = 1;
nodes = (
"756 -65 LINE",
"682 -79 OFFCURVE",
"545 -82 OFFCURVE",
"480 -7 CURVE",
"660 24 OFFCURVE",
"763 165 OFFCURVE",
"763 359 CURVE SMOOTH",
"763 561 OFFCURVE",
"630 724 OFFCURVE",
"399 724 CURVE SMOOTH",
"179 724 OFFCURVE",
"36 582 OFFCURVE",
"36 361 CURVE SMOOTH",
"36 177 OFFCURVE",
"135 30 OFFCURVE",
"312 -5 CURVE",
"406 -201 OFFCURVE",
"628 -181 OFFCURVE",
"756 -130 CURVE"
);
},
{
closed = 1;
nodes = (
"249 56 OFFCURVE",
"189 233 OFFCURVE",
"189 378 CURVE SMOOTH",
"189 511 OFFCURVE",
"265 654 OFFCURVE",
"388 654 CURVE SMOOTH",
"550 654 OFFCURVE",
"610 487 OFFCURVE",
"610 342 CURVE SMOOTH",
"610 209 OFFCURVE",
"534 56 OFFCURVE",
"411 56 CURVE SMOOTH"
);
}
);
width = 793;
},
{
background = {
paths = (
{
closed = 1;
nodes = (
"382 714 LINE",
"465 714 LINE",
"592 654 LINE",
"678 553 LINE",
"722 421 LINE",
"722 349 LINE",
"722 284 LINE",
"687 169 LINE",
"623 76 LINE",
"528 10 LINE",
"470 -4 LINE",
"492 -38 LINE",
"560 -77 LINE",
"633 -94 LINE",
"708 -93 LINE",
"737 -87 LINE",
"737 -124 LINE",
"688 -144 LINE",
"579 -157 LINE",
"475 -133 LINE",
"386 -69 LINE",
"358 -13 LINE",
"282 -8 LINE",
"164 55 LINE",
"84 155 LINE",
"44 282 LINE",
"44 351 LINE",
"44 426 LINE",
"91 559 LINE",
"179 657 LINE",
"304 714 LINE"
);
},
{
closed = 1;
nodes = (
"395 41 LINE",
"444 41 LINE",
"526 89 LINE",
"584 169 LINE",
"617 275 LINE",
"617 332 LINE",
"617 394 LINE",
"588 512 LINE",
"528 603 LINE",
"436 659 LINE",
"372 659 LINE",
"321 659 LINE",
"240 611 LINE",
"182 531 LINE",
"149 425 LINE",
"149 368 LINE",
"149 306 LINE",
"178 188 LINE",
"237 97 LINE",
"331 41 LINE"
);
}
);
};
hints = (
{
place = "{44, 105}";
type = Stem;
},
{
place = "{616, 105}";
type = Stem;
},
{
horizontal = 1;
place = "{-152, 58}";
type = Stem;
},
{
horizontal = 1;
place = "{-4, 45}";
type = Stem;
},
{
horizontal = 1;
place = "{659, 55}";
type = Stem;
}
);
layerId = UUID0;
paths = (
{
closed = 1;
nodes = (
"737 -87 LINE",
"659 -103 OFFCURVE",
"528 -95 OFFCURVE",
"469 -4 CURVE",
"627 34 OFFCURVE",
"721 177 OFFCURVE",
"721 349 CURVE SMOOTH",
"721 541 OFFCURVE",
"603 714 OFFCURVE",
"382 714 CURVE SMOOTH",
"172 714 OFFCURVE",
"44 552 OFFCURVE",
"44 351 CURVE SMOOTH",
"44 167 OFFCURVE",
"152 0 OFFCURVE",
"358 -13 CURVE",
"431 -163 OFFCURVE",
"607 -177 OFFCURVE",
"737 -124 CURVE"
);
},
{
closed = 1;
nodes = (
"222 41 OFFCURVE",
"149 203 OFFCURVE",
"149 368 CURVE SMOOTH",
"149 521 OFFCURVE",
"238 659 OFFCURVE",
"371 659 CURVE SMOOTH",
"543 659 OFFCURVE",
"616 497 OFFCURVE",
"616 332 CURVE SMOOTH",
"616 179 OFFCURVE",
"527 41 OFFCURVE",
"394 41 CURVE SMOOTH"
);
}
);
width = 766;
}
);
leftKerningGroup = O;
rightKerningGroup = O;
unicode = 0051;
},
{
glyphname = R;
layers = (
{
background = {
paths = (
{
closed = 1;
nodes = (
"319 700 LINE",
"365 700 LINE",
"464 687 LINE",
"546 644 LINE",
"600 559 LINE",
"600 487 LINE",
"600 452 LINE",
"580 396 LINE",
"546 354 LINE",
"500 323 LINE",
"473 313 LINE",
"626 61 LINE",
"707 45 LINE",
"697 0 LINE",
"546 0 LINE",
"376 290 LINE",
"346 287 LINE",
"319 287 LINE",
"255 287 LINE",
"255 64 LINE",
"350 45 LINE",
"340 0 LINE",
"60 0 LINE",
"60 35 LINE",
"155 64 LINE",
"155 636 LINE",
"60 655 LINE",
"70 700 LINE"
);
},
{
closed = 1;
nodes = (
"255 645 LINE",
"255 342 LINE",
"319 342 LINE",
"351 342 LINE",
"414 352 LINE",
"464 383 LINE",
"495 440 LINE",
"495 487 LINE",
"495 536 LINE",
"464 597 LINE",
"414 632 LINE",
"351 645 LINE",
"319 645 LINE"
);
}
);
};
hints = (
{
place = "{120, 145}";
type = Stem;
},
{
place = "{480, 155}";
type = Stem;
},
{
horizontal = 1;
place = "{277, 80}";
type = Stem;
},
{
horizontal = 1;
place = "{630, 80}";
type = Stem;
},
{
horizontal = 1;
place = "{0, 21}";
target = up;
type = BottomGhost;
}
);
layerId = "03739D6D-2A00-4CFA-A48A-FF6A1F8AF183";
paths = (
{
closed = 1;
nodes = (
"348 0 LINE",
"358 50 LINE",
"265 68 LINE",
"265 277 LINE",
"319 277 LINE SMOOTH",
"335 277 OFFCURVE",
"345 277 OFFCURVE",
"362 278 CURVE",
"549 0 LINE",
"725 0 LINE",
"739 57 LINE",
"680 68 LINE",
"498 313 LINE",
"564 345 OFFCURVE",
"635 397 OFFCURVE",
"635 497 CURVE SMOOTH",
"635 699 OFFCURVE",
"451 710 OFFCURVE",
"329 710 CURVE",
"38 710 LINE",
"26 660 LINE",
"120 641 LINE",
"120 69 LINE",
"25 40 LINE",
"25 0 LINE"
);
},
{
closed = 1;
nodes = (
"265 630 LINE",
"329 630 LINE SMOOTH",
"394 630 OFFCURVE",
"480 607 OFFCURVE",
"480 497 CURVE SMOOTH",
"480 382 OFFCURVE",
"404 357 OFFCURVE",
"319 357 CURVE SMOOTH",
"265 357 LINE"
);
}
);
width = 756;
},
{
background = {
paths = (
{
closed = 1;
nodes = (
"295 700 LINE",
"341 700 LINE",
"440 687 LINE",
"522 644 LINE",
"576 559 LINE",
"576 487 LINE",
"576 452 LINE",
"556 396 LINE",
"522 354 LINE",
"476 323 LINE",
"449 313 LINE",
"602 61 LINE",
"683 45 LINE",
"673 0 LINE",
"522 0 LINE",
"352 290 LINE",
"322 287 LINE",
"295 287 LINE",
"231 287 LINE",
"231 64 LINE",
"326 45 LINE",
"316 0 LINE",
"36 0 LINE",
"36 35 LINE",
"131 64 LINE",
"131 636 LINE",
"36 655 LINE",
"46 700 LINE"
);
},
{
closed = 1;
nodes = (
"231 645 LINE",
"231 342 LINE",
"295 342 LINE",
"327 342 LINE",
"390 352 LINE",
"440 383 LINE",
"471 440 LINE",
"471 487 LINE",
"471 536 LINE",
"440 597 LINE",
"390 632 LINE",
"327 645 LINE",
"295 645 LINE"
);
}
);
};
hints = (
{
place = "{131, 100}";
type = Stem;
},
{
place = "{471, 105}";
type = Stem;
},
{
horizontal = 1;
place = "{0, 35}";
type = Stem;
},
{
horizontal = 1;
place = "{287, 55}";
type = Stem;
},
{
horizontal = 1;
place = "{645, 55}";
type = Stem;
},
{
horizontal = 1;
place = "{0, 64}";
type = Stem;
}
);
layerId = UUID0;
paths = (
{
closed = 1;
nodes = (
"316 0 LINE",
"326 45 LINE",
"231 64 LINE",
"231 287 LINE",
"295 287 LINE SMOOTH",
"313 287 OFFCURVE",
"332 288 OFFCURVE",
"352 290 CURVE",
"522 0 LINE",
"673 0 LINE",
"683 45 LINE",
"602 61 LINE",
"449 313 LINE",
"520 339 OFFCURVE",
"576 394 OFFCURVE",
"576 487 CURVE SMOOTH",
"576 679 OFFCURVE",
"417 700 OFFCURVE",
"295 700 CURVE SMOOTH",
"46 700 LINE",
"36 655 LINE",
"131 636 LINE",
"131 64 LINE",
"36 35 LINE",
"36 0 LINE"
);
},
{
closed = 1;
nodes = (
"231 645 LINE",
"295 645 LINE SMOOTH",
"380 645 OFFCURVE",
"471 617 OFFCURVE",
"471 487 CURVE SMOOTH",
"471 362 OFFCURVE",
"380 342 OFFCURVE",
"295 342 CURVE SMOOTH",
"231 342 LINE"
);
}
);
width = 663;
}
);
leftKerningGroup = I;
rightKerningGroup = R;
unicode = 0052;
},
{
glyphname = S;
layers = (
{
background = {
paths = (
{
closed = 1;
nodes = (
"68 197 LINE",
"118 207 LINE",
"155 62 LINE",
"182 52 LINE",
"236 41 LINE",
"264 41 LINE",
"293 41 LINE",
"346 53 LINE",
"387 83 LINE",
"411 133 LINE",
"411 170 LINE",
"411 216 LINE",
"386 243 LINE",
"361 271 LINE",
"287 311 LINE",
"243 327 LINE",
"221 335 LINE",
"180 356 LINE",
"162 369 LINE",
"124 393 LINE",
"99 430 LINE",
"74 467 LINE",
"74 529 LINE",
"74 563 LINE",
"95 618 LINE",
"131 659 LINE",
"180 687 LINE",
"235 706 LINE",
"295 714 LINE",
"324 714 LINE",
"379 714 LINE",
"424 702 LINE",
"470 691 LINE",
"489 670 LINE",
"489 501 LINE",
"439 491 LINE",
"401 642 LINE",
"360 659 LINE",
"319 659 LINE",
"291 659 LINE",
"240 643 LINE",
"202 611 LINE",
"179 562 LINE",
"179 529 LINE",
"179 488 LINE",
"204 463 LINE",
"229 437 LINE",
"304 398 LINE",
"348 379 LINE",
"391 360 LINE",
"429 334 LINE",
"466 308 LINE",
"491 269 LINE",
"516 229 LINE",
"516 170 LINE",
"516 116 LINE",
"473 45 LINE",
"437 23 LINE",
"420 12 LINE",
"379 -2 LINE",
"336 -11 LINE",
"290 -15 LINE",
"268 -15 LINE",
"235 -15 LINE",
"172 -8 LINE",
"119 4 LINE",
"78 21 LINE",
"68 29 LINE"
);
}
);
};
hints = (
{
place = "{44, 155}";
type = Stem;
},
{
place = "{391, 128}";
type = Stem;
},
{
place = "{391, 155}";
type = Stem;
},
{
horizontal = 1;
place = "{-16, 80}";
type = Stem;
},
{
horizontal = 1;
place = "{643, 80}";
type = Stem;
}
);
layerId = "03739D6D-2A00-4CFA-A48A-FF6A1F8AF183";
paths = (
{
closed = 1;
nodes = (
"422 -16 OFFCURVE",
"546 27 OFFCURVE",
"546 173 CURVE SMOOTH",
"546 317 OFFCURVE",
"427 366 OFFCURVE",
"328 412 CURVE SMOOTH",
"259 444 OFFCURVE",
"199 475 OFFCURVE",
"199 535 CURVE SMOOTH",
"199 616 OFFCURVE",
"265 643 OFFCURVE",
"332 643 CURVE SMOOTH",
"363 643 OFFCURVE",
"395 638 OFFCURVE",
"420 628 CURVE",
"454 481 LINE",
"519 491 LINE",
"519 680 LINE",
"472 706 OFFCURVE",
"395 723 OFFCURVE",
"317 723 CURVE SMOOTH",
"183 723 OFFCURVE",
"44 674 OFFCURVE",
"44 536 CURVE SMOOTH",
"44 411 OFFCURVE",
"131 358 OFFCURVE",
"218 317 CURVE SMOOTH",
"305 277 OFFCURVE",
"391 248 OFFCURVE",
"391 173 CURVE SMOOTH",
"391 90 OFFCURVE",
"339 67 OFFCURVE",
"279 64 CURVE SMOOTH",
"209 60 OFFCURVE",
"166 73 OFFCURVE",
"136 82 CURVE",
"103 224 LINE",
"38 214 LINE",
"38 29 LINE",
"95 7 OFFCURVE",
"190 -16 OFFCURVE",
"287 -16 CURVE SMOOTH"
);
}
);
width = 582;
},
{
background = {
paths = (
{
closed = 1;
nodes = (
"52 197 LINE",
"102 207 LINE",
"139 62 LINE",
"166 52 LINE",
"220 41 LINE",
"248 41 LINE",
"277 41 LINE",
"330 53 LINE",
"371 83 LINE",
"395 133 LINE",
"395 170 LINE",
"395 216 LINE",
"370 243 LINE",
"345 271 LINE",
"271 311 LINE",
"227 327 LINE",
"205 335 LINE",
"164 356 LINE",
"146 369 LINE",
"108 393 LINE",
"83 430 LINE",
"58 467 LINE",
"58 529 LINE",
"58 563 LINE",
"79 618 LINE",
"115 659 LINE",
"164 687 LINE",
"219 706 LINE",
"279 714 LINE",
"308 714 LINE",
"363 714 LINE",
"408 702 LINE",
"454 691 LINE",
"473 670 LINE",
"473 501 LINE",
"423 491 LINE",
"385 642 LINE",
"344 659 LINE",
"303 659 LINE",
"275 659 LINE",
"224 643 LINE",
"186 611 LINE",
"163 562 LINE",
"163 529 LINE",
"163 488 LINE",
"188 463 LINE",
"213 437 LINE",
"288 398 LINE",
"332 379 LINE",
"375 360 LINE",
"413 334 LINE",
"450 308 LINE",
"475 269 LINE",
"500 229 LINE",
"500 170 LINE",
"500 116 LINE",
"457 45 LINE",
"421 23 LINE",
"404 12 LINE",
"363 -2 LINE",
"320 -11 LINE",
"274 -15 LINE",
"252 -15 LINE",
"219 -15 LINE",
"156 -8 LINE",
"103 4 LINE",
"62 21 LINE",
"52 29 LINE"
);
}
);
};
hints = (
{
place = "{58, 105}";
type = Stem;
},
{
place = "{395, 105}";
type = Stem;
},
{
place = "{423, 50}";
type = Stem;
},
{
horizontal = 1;
place = "{-15, 56}";
type = Stem;
},
{
horizontal = 1;
place = "{659, 54}";
type = Stem;
}
);
layerId = UUID0;
paths = (
{
closed = 1;
nodes = (
"380 -15 OFFCURVE",
"500 27 OFFCURVE",
"500 173 CURVE SMOOTH",
"500 309 OFFCURVE",
"387 353 OFFCURVE",
"292 397 CURVE SMOOTH",
"223 428 OFFCURVE",
"163 459 OFFCURVE",
"163 525 CURVE SMOOTH",
"163 613 OFFCURVE",
"225 659 OFFCURVE",
"303 659 CURVE SMOOTH",
"330 659 OFFCURVE",
"357 652 OFFCURVE",
"385 641 CURVE",
"423 491 LINE",
"473 501 LINE",
"473 670 LINE",
"446 697 OFFCURVE",
"381 713 OFFCURVE",
"308 713 CURVE SMOOTH",
"184 713 OFFCURVE",
"58 662 OFFCURVE",
"58 526 CURVE SMOOTH",
"58 401 OFFCURVE",
"150 359 OFFCURVE",
"238 323 CURVE SMOOTH",
"318 289 OFFCURVE",
"395 260 OFFCURVE",
"395 173 CURVE SMOOTH",
"395 74 OFFCURVE",
"333 41 OFFCURVE",
"248 41 CURVE SMOOTH",
"211 41 OFFCURVE",
"174 49 OFFCURVE",
"139 62 CURVE",
"102 207 LINE",
"52 197 LINE",
"52 29 LINE",
"78 8 OFFCURVE",
"165 -15 OFFCURVE",
"252 -15 CURVE SMOOTH"
);
}
);
width = 545;
}
);
leftKerningGroup = S;
rightKerningGroup = S;
unicode = 0053;
},
{
glyphname = T;
layers = (
{
background = {
paths = (
{
closed = 1;
nodes = (
"80 501 LINE",
"30 511 LINE",
"30 700 LINE",
"617 700 LINE",
"617 511 LINE",
"567 501 LINE",
"534 645 LINE",
"375 645 LINE",
"375 64 LINE",
"470 45 LINE",
"460 0 LINE",
"180 0 LINE",
"180 35 LINE",
"275 64 LINE",
"275 645 LINE",
"113 645 LINE"
);
},
{
closed = 1;
nodes = (
"113 645 LINE",
"275 645 LINE",
"275 64 LINE",
"180 35 LINE",
"180 0 LINE",
"460 0 LINE",
"470 45 LINE",
"375 64 LINE",
"375 645 LINE",
"534 645 LINE",
"567 501 LINE",
"617 511 LINE",
"617 700 LINE",
"30 700 LINE",
"30 511 LINE",
"80 501 LINE"
);
}
);
};
hints = (
{
place = "{277, 145}";
type = Stem;
},
{
horizontal = 1;
place = "{630, 80}";
type = Stem;
},
{
horizontal = 1;
place = "{0, 21}";
target = up;
type = BottomGhost;
}
);
layerId = "03739D6D-2A00-4CFA-A48A-FF6A1F8AF183";
paths = (
{
closed = 1;
nodes = (
"507 0 LINE",
"517 50 LINE",
"422 69 LINE",
"422 630 LINE",
"580 630 LINE",
"607 486 LINE",
"673 496 LINE",
"673 710 LINE",
"26 710 LINE",
"26 496 LINE",
"92 486 LINE",
"119 630 LINE",
"277 630 LINE",
"277 69 LINE",
"172 40 LINE",
"172 0 LINE"
);
}
);
width = 702;
},
{
background = {
paths = (
{
closed = 1;
nodes = (
"70 501 LINE",
"20 511 LINE",
"20 700 LINE",
"607 700 LINE",
"607 511 LINE",
"557 501 LINE",
"524 645 LINE",
"365 645 LINE",
"365 64 LINE",
"460 45 LINE",
"450 0 LINE",
"170 0 LINE",
"170 35 LINE",
"265 64 LINE",
"265 645 LINE",
"103 645 LINE"
);
}
);
};
hints = (
{
place = "{20, 50}";
type = Stem;
},
{
place = "{265, 100}";
type = Stem;
},
{
place = "{557, 50}";
type = Stem;
},
{
horizontal = 1;
place = "{0, 35}";
type = Stem;
},
{
horizontal = 1;
place = "{645, 55}";
type = Stem;
},
{
horizontal = 1;
place = "{0, 64}";
type = Stem;
}
);
layerId = UUID0;
paths = (
{
closed = 1;
nodes = (
"450 0 LINE",
"460 45 LINE",
"365 64 LINE",
"365 645 LINE",
"524 645 LINE",
"557 501 LINE",
"607 511 LINE",
"607 700 LINE",
"20 700 LINE",
"20 511 LINE",
"70 501 LINE",
"103 645 LINE",
"265 645 LINE",
"265 64 LINE",
"170 35 LINE",
"170 0 LINE"
);
}
);
width = 627;
}
);
leftKerningGroup = T;
rightKerningGroup = T;
unicode = 0054;
},
{
glyphname = U;
layers = (
{
anchors = (
{
name = bottom;
position = "{401, 0}";
},
{
name = ogonek;
position = "{721, 10}";
},
{
name = top;
position = "{401, 710}";
},
{
name = topright;
position = "{781, 710}";
}
);
background = {
paths = (
{
closed = 1;
nodes = (
"249 636 LINE",
"249 228 LINE",
"249 134 LINE",
"347 41 LINE",
"438 41 LINE",
"505 41 LINE",
"576 83 LINE",
"606 151 LINE",
"609 233 LINE",
"609 271 LINE",
"607 636 LINE",
"512 655 LINE",
"522 700 LINE",
"762 700 LINE",
"762 665 LINE",
"677 636 LINE",
"677 250 LINE",
"677 207 LINE",
"660 113 LINE",
"609 36 LINE",
"513 -14 LINE",
"434 -14 LINE",
"293 -14 LINE",
"149 99 LINE",
"149 229 LINE",
"149 636 LINE",
"54 655 LINE",
"64 700 LINE",
"344 700 LINE",
"344 665 LINE"
);
}
);
};
hints = (
{
place = "{124, 145}";
type = Stem;
},
{
place = "{607, 80}";
type = Stem;
},
{
horizontal = 1;
place = "{-15, 77}";
type = Stem;
},
{
horizontal = 1;
place = "{710, -20}";
target = down;
type = TopGhost;
}
);
layerId = "03739D6D-2A00-4CFA-A48A-FF6A1F8AF183";
paths = (
{
closed = 1;
nodes = (
"660 -15 OFFCURVE",
"687 148 OFFCURVE",
"687 265 CURVE SMOOTH",
"687 641 LINE",
"772 670 LINE",
"772 710 LINE",
"522 710 LINE",
"512 660 LINE",
"607 641 LINE",
"607 291 LINE SMOOTH",
"607 189 OFFCURVE",
"603 62 OFFCURVE",
"438 62 CURVE SMOOTH",
"337 62 OFFCURVE",
"269 122 OFFCURVE",
"269 247 CURVE SMOOTH",
"269 641 LINE",
"364 670 LINE",
"364 710 LINE",
"39 710 LINE",
"29 660 LINE",
"124 641 LINE",
"124 248 LINE SMOOTH",
"124 75 OFFCURVE",
"226 -15 OFFCURVE",
"434 -15 CURVE SMOOTH"
);
}
);
width = 801;
},
{
anchors = (
{
name = bottom;
position = "{375, 0}";
},
{
name = ogonek;
position = "{674, 10}";
},
{
name = top;
position = "{375, 700}";
},
{
name = topright;
position = "{729, 700}";
}
);
background = {
paths = (
{
closed = 1;
nodes = (
"213 636 LINE",
"213 228 LINE",
"213 134 LINE",
"311 41 LINE",
"402 41 LINE",
"469 41 LINE",
"540 83 LINE",
"570 151 LINE",
"573 233 LINE",
"573 271 LINE",
"571 636 LINE",
"476 655 LINE",
"486 700 LINE",
"726 700 LINE",
"726 665 LINE",
"641 636 LINE",
"641 250 LINE",
"641 207 LINE",
"624 113 LINE",
"573 36 LINE",
"477 -14 LINE",
"398 -14 LINE",
"257 -14 LINE",
"113 99 LINE",
"113 229 LINE",
"113 636 LINE",
"18 655 LINE",
"28 700 LINE",
"308 700 LINE",
"308 665 LINE"
);
}
);
};
hints = (
{
place = "{113, 100}";
type = Stem;
},
{
place = "{573, 68}";
type = Stem;
},
{
horizontal = 1;
place = "{-10, 55}";
type = Stem;
},
{
horizontal = 1;
place = "{665, 35}";
type = Stem;
},
{
horizontal = 1;
place = "{655, 45}";
type = Stem;
},
{
horizontal = 1;
place = "{636, 64}";
type = Stem;
}
);
layerId = UUID0;
paths = (
{
closed = 1;
nodes = (
"609 -10 OFFCURVE",
"641 138 OFFCURVE",
"641 255 CURVE SMOOTH",
"641 636 LINE",
"726 665 LINE",
"726 700 LINE",
"486 700 LINE",
"476 655 LINE",
"571 636 LINE",
"573 276 LINE SMOOTH",
"573 174 OFFCURVE",
"582 45 OFFCURVE",
"402 45 CURVE SMOOTH",
"281 45 OFFCURVE",
"213 107 OFFCURVE",
"213 232 CURVE SMOOTH",
"213 636 LINE",
"308 665 LINE",
"308 700 LINE",
"28 700 LINE",
"18 655 LINE",
"113 636 LINE",
"113 233 LINE SMOOTH",
"113 60 OFFCURVE",
"210 -10 OFFCURVE",
"398 -10 CURVE SMOOTH"
);
}
);
width = 749;
}
);
leftKerningGroup = U;
rightKerningGroup = U;
unicode = 0055;
},
{
glyphname = Uacute;
layers = (
{
components = (
{
name = U;
},
{
name = acutecomb;
transform = "{1, 0, 0, 1, 301, 180}";
}
);
layerId = "03739D6D-2A00-4CFA-A48A-FF6A1F8AF183";
width = 801;
},
{
background = {
paths = (
{
closed = 1;
nodes = (
"213 636 LINE",
"213 228 LINE",
"213 134 LINE",
"311 41 LINE",
"402 41 LINE",
"469 41 LINE",
"540 83 LINE",
"570 151 LINE",
"573 233 LINE",
"573 271 LINE",
"571 636 LINE",
"476 655 LINE",
"486 700 LINE",
"726 700 LINE",
"726 665 LINE",
"641 636 LINE",
"641 250 LINE",
"641 207 LINE",
"624 113 LINE",
"573 36 LINE",
"477 -14 LINE",
"398 -14 LINE",
"257 -14 LINE",
"113 99 LINE",
"113 229 LINE",
"113 636 LINE",
"18 655 LINE",
"28 700 LINE",
"308 700 LINE",
"308 665 LINE"
);
},
{
closed = 1;
nodes = (
"380 746 LINE",
"326 746 LINE",
"413 929 LINE",
"511 929 LINE"
);
}
);
};
components = (
{
name = U;
},
{
name = acutecomb;
transform = "{1, 0, 0, 1, 314, 180}";
}
);
layerId = UUID0;
width = 749;
}
);
leftKerningGroup = U;
rightKerningGroup = U;
unicode = 00DA;
},
{
glyphname = Ucircumflex;
layers = (
{
components = (
{
name = U;
},
{
name = circumflexcomb;
transform = "{1, 0, 0, 1, 139, 180}";
}
);
layerId = "03739D6D-2A00-4CFA-A48A-FF6A1F8AF183";
width = 801;
},
{
background = {
paths = (
{
closed = 1;
nodes = (
"213 636 LINE",
"213 228 LINE",
"213 134 LINE",
"311 41 LINE",
"402 41 LINE",
"469 41 LINE",
"540 83 LINE",
"570 151 LINE",
"573 233 LINE",
"573 271 LINE",
"571 636 LINE",
"476 655 LINE",
"486 700 LINE",
"726 700 LINE",
"726 665 LINE",
"641 636 LINE",
"641 250 LINE",
"641 207 LINE",
"624 113 LINE",
"573 36 LINE",
"477 -14 LINE",
"398 -14 LINE",
"257 -14 LINE",
"113 99 LINE",
"113 229 LINE",
"113 636 LINE",
"18 655 LINE",
"28 700 LINE",
"308 700 LINE",
"308 665 LINE"
);
},
{
closed = 1;
nodes = (
"358 882 LINE",
"262 751 LINE",
"207 751 LINE",
"323 930 LINE",
"323 931 LINE",
"394 931 LINE",
"393 930 LINE",
"510 751 LINE",
"455 751 LINE"
);
}
);
};
components = (
{
name = U;
},
{
name = circumflexcomb;
transform = "{1, 0, 0, 1, 113, 180}";
}
);
layerId = UUID0;
width = 749;
}
);
leftKerningGroup = U;
rightKerningGroup = U;
unicode = 00DB;
},
{
glyphname = Udieresis;
layers = (
{
components = (
{
name = U;
},
{
name = dieresiscomb;
transform = "{1, 0, 0, 1, 213, 180}";
}
);
layerId = "03739D6D-2A00-4CFA-A48A-FF6A1F8AF183";
width = 801;
},
{
background = {
paths = (
{
closed = 1;
nodes = (
"213 636 LINE",
"213 228 LINE",
"213 134 LINE",
"311 41 LINE",
"402 41 LINE",
"469 41 LINE",
"540 83 LINE",
"570 151 LINE",
"573 233 LINE",
"573 271 LINE",
"571 636 LINE",
"476 655 LINE",
"486 700 LINE",
"726 700 LINE",
"726 665 LINE",
"641 636 LINE",
"641 250 LINE",
"641 207 LINE",
"624 113 LINE",
"573 36 LINE",
"477 -14 LINE",
"398 -14 LINE",
"257 -14 LINE",
"113 99 LINE",
"113 229 LINE",
"113 636 LINE",
"18 655 LINE",
"28 700 LINE",
"308 700 LINE",
"308 665 LINE"
);
},
{
closed = 1;
nodes = (
"406 839 LINE",
"429 880 LINE",
"471 903 LINE",
"511 881 LINE",
"533 841 LINE",
"509 800 LINE",
"468 777 LINE",
"427 798 LINE"
);
},
{
closed = 1;
nodes = (
"195 839 LINE",
"218 880 LINE",
"260 903 LINE",
"300 881 LINE",
"322 841 LINE",
"298 800 LINE",
"257 777 LINE",
"216 798 LINE"
);
}
);
};
components = (
{
name = U;
},
{
name = dieresiscomb;
transform = "{1, 0, 0, 1, 187, 180}";
}
);
layerId = UUID0;
width = 749;
}
);
leftKerningGroup = U;
rightKerningGroup = U;
unicode = 00DC;
},
{
glyphname = Ugrave;
layers = (
{
components = (
{
name = U;
},
{
name = gravecomb;
transform = "{1, 0, 0, 1, 105, 180}";
}
);
layerId = "03739D6D-2A00-4CFA-A48A-FF6A1F8AF183";
width = 801;
},
{
background = {
paths = (
{
closed = 1;
nodes = (
"213 636 LINE",
"213 228 LINE",
"213 134 LINE",
"311 41 LINE",
"402 41 LINE",
"469 41 LINE",
"540 83 LINE",
"570 151 LINE",
"573 233 LINE",
"573 271 LINE",
"571 636 LINE",
"476 655 LINE",
"486 700 LINE",
"726 700 LINE",
"726 665 LINE",
"641 636 LINE",
"641 250 LINE",
"641 207 LINE",
"624 113 LINE",
"573 36 LINE",
"477 -14 LINE",
"398 -14 LINE",
"257 -14 LINE",
"113 99 LINE",
"113 229 LINE",
"113 636 LINE",
"18 655 LINE",
"28 700 LINE",
"308 700 LINE",
"308 665 LINE"
);
},
{
closed = 1;
nodes = (
"191 931 LINE",
"289 931 LINE",
"396 763 LINE",
"341 763 LINE"
);
}
);
};
components = (
{
name = U;
},
{
name = gravecomb;
transform = "{1, 0, 0, 1, 98, 180}";
}
);
layerId = UUID0;
width = 749;
}
);
leftKerningGroup = U;
rightKerningGroup = U;
unicode = 00D9;
},
{
glyphname = V;
layers = (
{
background = {
paths = (
{
closed = 1;
nodes = (
"388 0 LINE",
"143 636 LINE",
"66 655 LINE",
"76 700 LINE",
"317 700 LINE",
"317 665 LINE",
"242 643 LINE",
"441 131 LINE",
"619 640 LINE",
"533 655 LINE",
"544 700 LINE",
"760 700 LINE",
"760 665 LINE",
"682 637 LINE",
"458 0 LINE"
);
}
);
};
hints = (
{
horizontal = 1;
place = "{0, 21}";
target = up;
type = BottomGhost;
},
{
horizontal = 1;
place = "{710, -20}";
target = down;
type = TopGhost;
}
);
layerId = "03739D6D-2A00-4CFA-A48A-FF6A1F8AF183";
paths = (
{
closed = 1;
nodes = (
"467 0 LINE",
"694 642 LINE",
"772 670 LINE",
"772 710 LINE",
"529 710 LINE",
"519 660 LINE",
"605 645 LINE",
"439 177 LINE",
"259 648 LINE",
"334 670 LINE",
"334 710 LINE",
"45 710 LINE",
"35 660 LINE",
"112 641 LINE",
"357 0 LINE"
);
}
);
width = 806;
},
{
background = {
paths = (
{
closed = 1;
nodes = (
"301 0 LINE",
"56 636 LINE",
"-21 655 LINE",
"-11 700 LINE",
"230 700 LINE",
"230 665 LINE",
"155 643 LINE",
"354 131 LINE",
"532 640 LINE",
"446 655 LINE",
"457 700 LINE",
"673 700 LINE",
"673 665 LINE",
"595 637 LINE",
"371 0 LINE"
);
}
);
};
hints = (
{
place = "{-21, 694}";
type = Stem;
},
{
horizontal = 1;
place = "{0, 21}";
target = up;
type = BottomGhost;
},
{
horizontal = 1;
place = "{665, 35}";
type = Stem;
},
{
horizontal = 1;
place = "{655, 45}";
type = Stem;
}
);
layerId = UUID0;
paths = (
{
closed = 1;
nodes = (
"370 0 LINE",
"595 637 LINE",
"673 665 LINE",
"673 700 LINE",
"456 700 LINE",
"446 655 LINE",
"532 640 LINE",
"353 131 LINE",
"155 643 LINE",
"230 665 LINE",
"230 700 LINE",
"-11 700 LINE",
"-21 655 LINE",
"56 636 LINE",
"301 0 LINE"
);
}
);
width = 661;
}
);
leftKerningGroup = V;
rightKerningGroup = V;
unicode = 0056;
},
{
glyphname = W;
layers = (
{
background = {
paths = (
{
closed = 1;
nodes = (
"270 0 LINE",
"78 637 LINE",
"-2 655 LINE",
"8 700 LINE",
"262 700 LINE",
"262 665 LINE",
"176 641 LINE",
"322 157 LINE",
"509 700 LINE",
"566 700 LINE",
"737 155 LINE",
"904 639 LINE",
"816 655 LINE",
"826 700 LINE",
"1050 700 LINE",
"1050 665 LINE",
"967 639 LINE",
"748 0 LINE",
"686 0 LINE",
"517 538 LINE",
"331 0 LINE"
);
},
{
closed = 1;
nodes = (
"381 0 LINE",
"512 442 LINE",
"645 0 LINE",
"757 0 LINE",
"982 642 LINE",
"1060 670 LINE",
"1060 710 LINE",
"816 710 LINE",
"806 660 LINE",
"892 645 LINE",
"742 198 LINE",
"592 710 LINE",
"507 710 LINE",
"361 205 LINE",
"231 648 LINE",
"306 670 LINE",
"306 710 LINE",
"15 710 LINE",
"5 660 LINE",
"82 641 LINE",
"275 0 LINE"
);
}
);
};
hints = (
{
horizontal = 1;
place = "{0, 21}";
target = up;
type = BottomGhost;
},
{
horizontal = 1;
place = "{710, -20}";
target = down;
type = TopGhost;
}
);
layerId = "03739D6D-2A00-4CFA-A48A-FF6A1F8AF183";
paths = (
{
closed = 1;
nodes = (
"378 0 LINE",
"521 432 LINE",
"656 0 LINE",
"742 0 LINE",
"933 642 LINE",
"1011 670 LINE",
"1011 710 LINE",
"767 710 LINE",
"757 660 LINE",
"843 645 LINE",
"727 198 LINE",
"570 710 LINE",
"509 710 LINE",
"351 205 LINE",
"227 648 LINE",
"302 670 LINE",
"302 710 LINE",
"18 710 LINE",
"8 660 LINE",
"85 641 LINE",
"279 0 LINE"
);
}
);
width = 1017;
},
{
background = {
paths = (
{
closed = 1;
nodes = (
"264 0 LINE",
"72 637 LINE",
"-8 655 LINE",
"2 700 LINE",
"256 700 LINE",
"256 665 LINE",
"170 641 LINE",
"316 157 LINE",
"503 700 LINE",
"560 700 LINE",
"731 155 LINE",
"898 639 LINE",
"810 655 LINE",
"820 700 LINE",
"1044 700 LINE",
"1044 665 LINE",
"961 639 LINE",
"742 0 LINE",
"680 0 LINE",
"511 538 LINE",
"325 0 LINE"
);
}
);
};
hints = (
{
place = "{-8, 1052}";
type = Stem;
},
{
horizontal = 1;
place = "{0, 21}";
target = up;
type = BottomGhost;
},
{
horizontal = 1;
place = "{665, 35}";
type = Stem;
},
{
horizontal = 1;
place = "{655, 45}";
type = Stem;
}
);
layerId = UUID0;
paths = (
{
closed = 1;
nodes = (
"325 0 LINE",
"511 538 LINE",
"680 0 LINE",
"742 0 LINE",
"961 639 LINE",
"1044 665 LINE",
"1044 700 LINE",
"820 700 LINE",
"810 655 LINE",
"898 639 LINE",
"731 155 LINE",
"560 700 LINE",
"503 700 LINE",
"316 157 LINE",
"170 641 LINE",
"256 665 LINE",
"256 700 LINE",
"2 700 LINE",
"-8 655 LINE",
"72 637 LINE",
"264 0 LINE"
);
}
);
width = 1021;
}
);
leftKerningGroup = V;
rightKerningGroup = V;
unicode = 0057;
},
{
glyphname = X;
layers = (
{
background = {
paths = (
{
closed = 1;
nodes = (
"631 639 LINE",
"433 363 LINE",
"628 64 LINE",
"705 45 LINE",
"695 0 LINE",
"452 0 LINE",
"452 35 LINE",
"520 54 LINE",
"365 293 LINE",
"191 56 LINE",
"263 45 LINE",
"254 0 LINE",
"43 0 LINE",
"43 35 LINE",
"121 62 LINE",
"331 344 LINE",
"142 636 LINE",
"59 655 LINE",
"69 700 LINE",
"321 700 LINE",
"321 665 LINE",
"251 645 LINE",
"400 414 LINE",
"564 644 LINE",
"493 655 LINE",
"504 700 LINE",
"708 700 LINE",
"708 665 LINE"
);
}
);
};
hints = (
{
horizontal = 1;
place = "{710, -20}";
target = down;
type = TopGhost;
},
{
horizontal = 1;
place = "{0, 21}";
target = up;
type = BottomGhost;
}
);
layerId = "03739D6D-2A00-4CFA-A48A-FF6A1F8AF183";
paths = (
{
closed = 1;
nodes = (
"275 0 LINE",
"285 50 LINE",
"212 61 LINE",
"362 262 LINE",
"501 59 LINE",
"433 40 LINE",
"433 0 LINE",
"731 0 LINE",
"741 50 LINE",
"663 69 LINE",
"469 356 LINE",
"676 644 LINE",
"753 670 LINE",
"753 710 LINE",
"515 710 LINE",
"505 660 LINE",
"575 649 LINE",
"415 427 LINE",
"270 650 LINE",
"341 670 LINE",
"341 710 LINE",
"35 710 LINE",
"25 660 LINE",
"108 641 LINE",
"309 333 LINE",
"111 67 LINE",
"32 40 LINE",
"32 0 LINE"
);
}
);
width = 782;
},
{
background = {
paths = (
{
closed = 1;
nodes = (
"585 639 LINE",
"387 363 LINE",
"582 64 LINE",
"659 45 LINE",
"649 0 LINE",
"406 0 LINE",
"406 35 LINE",
"474 54 LINE",
"319 293 LINE",
"145 56 LINE",
"217 45 LINE",
"208 0 LINE",
"-3 0 LINE",
"-3 35 LINE",
"75 62 LINE",
"285 344 LINE",
"96 636 LINE",
"13 655 LINE",
"23 700 LINE",
"275 700 LINE",
"275 665 LINE",
"205 645 LINE",
"354 414 LINE",
"518 644 LINE",
"447 655 LINE",
"458 700 LINE",
"662 700 LINE",
"662 665 LINE"
);
}
);
};
hints = (
{
place = "{-3, 666}";
type = Stem;
},
{
horizontal = 1;
place = "{0, 35}";
type = Stem;
},
{
horizontal = 1;
place = "{665, 35}";
type = Stem;
},
{
horizontal = 1;
place = "{655, 45}";
type = Stem;
},
{
horizontal = 1;
place = "{644, 56}";
type = Stem;
}
);
layerId = UUID0;
paths = (
{
closed = 1;
nodes = (
"208 0 LINE",
"218 45 LINE",
"145 56 LINE",
"320 293 LINE",
"475 54 LINE",
"407 35 LINE",
"407 0 LINE",
"650 0 LINE",
"660 45 LINE",
"582 64 LINE",
"388 363 LINE",
"586 639 LINE",
"663 665 LINE",
"663 700 LINE",
"458 700 LINE",
"448 655 LINE",
"518 644 LINE",
"355 414 LINE",
"205 645 LINE",
"276 665 LINE",
"276 700 LINE",
"24 700 LINE",
"14 655 LINE",
"97 636 LINE",
"286 344 LINE",
"76 62 LINE",
"-3 35 LINE",
"-3 0 LINE"
);
}
);
width = 664;
}
);
leftKerningGroup = X;
rightKerningGroup = X;
unicode = 0058;
},
{
glyphname = Y;
layers = (
{
anchors = (
{
name = bottom;
position = "{400, 0}";
},
{
name = top;
position = "{430, 710}";
},
{
name = topleft;
position = "{20, 710}";
}
);
background = {
paths = (
{
closed = 1;
nodes = (
"387 64 LINE",
"387 298 LINE",
"172 636 LINE",
"94 655 LINE",
"104 700 LINE",
"349 700 LINE",
"349 665 LINE",
"279 645 LINE",
"453 373 LINE",
"619 643 LINE",
"545 655 LINE",
"555 700 LINE",
"764 700 LINE",
"764 665 LINE",
"683 637 LINE",
"487 319 LINE",
"487 64 LINE",
"582 45 LINE",
"572 0 LINE",
"292 0 LINE",
"292 35 LINE"
);
}
);
};
hints = (
{
place = "{342, 145}";
type = Stem;
},
{
horizontal = 1;
place = "{0, 21}";
target = up;
type = BottomGhost;
},
{
horizontal = 1;
place = "{710, -20}";
target = down;
type = TopGhost;
}
);
layerId = "03739D6D-2A00-4CFA-A48A-FF6A1F8AF183";
paths = (
{
closed = 1;
nodes = (
"572 0 LINE",
"582 50 LINE",
"487 69 LINE",
"487 314 LINE",
"689 642 LINE",
"770 670 LINE",
"770 710 LINE",
"529 710 LINE",
"519 660 LINE",
"593 648 LINE",
"440 399 LINE",
"277 650 LINE",
"347 670 LINE",
"347 710 LINE",
"43 710 LINE",
"33 660 LINE",
"111 641 LINE",
"342 293 LINE",
"342 69 LINE",
"247 40 LINE",
"247 0 LINE"
);
}
);
width = 799;
},
{
anchors = (
{
name = bottom;
position = "{319, 0}";
},
{
name = top;
position = "{336, 700}";
},
{
name = topleft;
position = "{20, 700}";
}
);
background = {
paths = (
{
closed = 1;
nodes = (
"273 64 LINE",
"273 298 LINE",
"58 636 LINE",
"-20 655 LINE",
"-10 700 LINE",
"235 700 LINE",
"235 665 LINE",
"165 645 LINE",
"339 373 LINE",
"505 643 LINE",
"431 655 LINE",
"441 700 LINE",
"650 700 LINE",
"650 665 LINE",
"569 637 LINE",
"373 319 LINE",
"373 64 LINE",
"468 45 LINE",
"458 0 LINE",
"178 0 LINE",
"178 35 LINE"
);
}
);
};
hints = (
{
place = "{273, 100}";
type = Stem;
},
{
horizontal = 1;
place = "{0, 35}";
type = Stem;
},
{
horizontal = 1;
place = "{665, 35}";
type = Stem;
},
{
horizontal = 1;
place = "{0, 64}";
type = Stem;
},
{
horizontal = 1;
place = "{655, 45}";
type = Stem;
},
{
horizontal = 1;
place = "{643, 57}";
type = Stem;
}
);
layerId = UUID0;
paths = (
{
closed = 1;
nodes = (
"458 0 LINE",
"468 45 LINE",
"373 64 LINE",
"373 319 LINE",
"569 637 LINE",
"650 665 LINE",
"650 700 LINE",
"441 700 LINE",
"431 655 LINE",
"505 643 LINE",
"339 373 LINE",
"165 645 LINE",
"235 665 LINE",
"235 700 LINE",
"-10 700 LINE",
"-20 655 LINE",
"58 636 LINE",
"273 298 LINE",
"273 64 LINE",
"178 35 LINE",
"178 0 LINE"
);
}
);
width = 637;
}
);
leftKerningGroup = Y;
rightKerningGroup = Y;
unicode = 0059;
},
{
glyphname = Yacute;
layers = (
{
components = (
{
name = Y;
},
{
name = acutecomb;
transform = "{1, 0, 0, 1, 330, 180}";
}
);
layerId = "03739D6D-2A00-4CFA-A48A-FF6A1F8AF183";
width = 799;
},
{
background = {
paths = (
{
closed = 1;
nodes = (
"273 64 LINE",
"273 298 LINE",
"58 636 LINE",
"-20 655 LINE",
"-10 700 LINE",
"235 700 LINE",
"235 665 LINE",
"165 645 LINE",
"339 373 LINE",
"505 643 LINE",
"431 655 LINE",
"441 700 LINE",
"650 700 LINE",
"650 665 LINE",
"569 637 LINE",
"373 319 LINE",
"373 64 LINE",
"468 45 LINE",
"458 0 LINE",
"178 0 LINE",
"178 35 LINE"
);
},
{
closed = 1;
nodes = (
"366 746 LINE",
"311 746 LINE",
"398 929 LINE",
"496 929 LINE"
);
}
);
};
components = (
{
name = Y;
},
{
name = acutecomb;
transform = "{1, 0, 0, 1, 275, 180}";
}
);
layerId = UUID0;
width = 637;
}
);
leftKerningGroup = Y;
rightKerningGroup = Y;
unicode = 00DD;
},
{
glyphname = Z;
layers = (
{
background = {
paths = (
{
closed = 1;
nodes = (
"45 0 LINE",
"45 49 LINE",
"428 645 LINE",
"144 645 LINE",
"106 501 LINE",
"56 511 LINE",
"57 700 LINE",
"545 700 LINE",
"545 649 LINE",
"164 55 LINE",
"473 55 LINE",
"510 196 LINE",
"560 186 LINE",
"560 0 LINE"
);
}
);
};
hints = (
{
horizontal = 1;
place = "{0, 80}";
type = Stem;
},
{
horizontal = 1;
place = "{630, 80}";
type = Stem;
}
);
layerId = "03739D6D-2A00-4CFA-A48A-FF6A1F8AF183";
paths = (
{
closed = 1;
nodes = (
"590 0 LINE",
"590 214 LINE",
"524 224 LINE",
"497 80 LINE",
"204 80 LINE",
"575 634 LINE",
"575 710 LINE",
"37 710 LINE",
"37 496 LINE",
"103 486 LINE",
"130 630 LINE",
"398 630 LINE",
"25 74 LINE",
"25 0 LINE"
);
}
);
width = 614;
},
{
background = {
paths = (
{
closed = 1;
nodes = (
"40 0 LINE",
"40 49 LINE",
"423 645 LINE",
"139 645 LINE",
"101 501 LINE",
"51 511 LINE",
"52 700 LINE",
"540 700 LINE",
"540 649 LINE",
"159 55 LINE",
"468 55 LINE",
"505 196 LINE",
"555 186 LINE",
"555 0 LINE"
);
}
);
};
hints = (
{
place = "{51, 49}";
type = Stem;
},
{
place = "{505, 50}";
type = Stem;
},
{
horizontal = 1;
place = "{0, 55}";
type = Stem;
},
{
horizontal = 1;
place = "{645, 55}";
type = Stem;
}
);
layerId = UUID0;
paths = (
{
closed = 1;
nodes = (
"555 0 LINE",
"555 186 LINE",
"505 196 LINE",
"468 55 LINE",
"159 55 LINE",
"540 649 LINE",
"540 700 LINE",
"52 700 LINE",
"51 511 LINE",
"101 501 LINE",
"139 645 LINE",
"423 645 LINE",
"40 49 LINE",
"40 0 LINE"
);
}
);
width = 597;
}
);
leftKerningGroup = Z;
rightKerningGroup = Z;
unicode = 005A;
},
{
glyphname = a;
layers = (
{
anchors = (
{
name = bottom;
position = "{300, 0}";
},
{
name = ogonek;
position = "{540, 10}";
},
{
name = top;
position = "{280, 530}";
}
);
background = {
paths = (
{
closed = 1;
nodes = (
"377 0 LINE",
"377 81 LINE",
"362 63 LINE",
"319 31 LINE",
"271 6 LINE",
"222 -8 LINE",
"200 -8 LINE",
"173 -8 LINE",
"125 9 LINE",
"89 43 LINE",
"67 91 LINE",
"67 123 LINE",
"67 173 LINE",
"118 236 LINE",
"183 253 LINE",
"232 266 LINE",
"323 283 LINE",
"377 289 LINE",
"377 371 LINE",
"377 399 LINE",
"361 438 LINE",
"333 463 LINE",
"296 474 LINE",
"275 474 LINE",
"252 474 LINE",
"204 468 LINE",
"181 460 LINE",
"153 346 LINE",
"101 355 LINE",
"101 485 LINE",
"140 502 LINE",
"229 529 LINE",
"280 529 LINE",
"319 529 LINE",
"387 513 LINE",
"438 476 LINE",
"467 415 LINE",
"467 370 LINE",
"467 63 LINE",
"539 46 LINE",
"529 0 LINE"
);
},
{
closed = 1;
nodes = (
"167 131 LINE",
"167 107 LINE",
"179 78 LINE",
"200 61 LINE",
"227 55 LINE",
"242 55 LINE",
"260 55 LINE",
"300 70 LINE",
"337 92 LINE",
"368 120 LINE",
"377 133 LINE",
"377 247 LINE",
"345 243 LINE",
"281 234 LINE",
"249 225 LINE",
"202 212 LINE",
"167 162 LINE"
);
}
);
};
hints = (
{
place = "{37, 145}";
type = Stem;
},
{
place = "{362, 140}";
type = Stem;
},
{
horizontal = 1;
place = "{-8, 78}";
type = Stem;
},
{
horizontal = 1;
place = "{467, 72}";
type = Stem;
},
{
horizontal = 1;
place = "{0, 21}";
target = up;
type = BottomGhost;
}
);
layerId = "03739D6D-2A00-4CFA-A48A-FF6A1F8AF183";
paths = (
{
closed = 1;
nodes = (
"258 -8 OFFCURVE",
"322 18 OFFCURVE",
"362 66 CURVE",
"362 0 LINE",
"564 0 LINE",
"574 51 LINE",
"502 68 LINE",
"502 380 LINE SMOOTH",
"502 500 OFFCURVE",
"384 539 OFFCURVE",
"280 539 CURVE SMOOTH",
"212 539 OFFCURVE",
"123 518 OFFCURVE",
"71 495 CURVE",
"71 350 LINE",
"147 338 LINE",
"173 448 LINE",
"193 461 OFFCURVE",
"220 467 OFFCURVE",
"248 467 CURVE SMOOTH",
"324 467 OFFCURVE",
"362 440 OFFCURVE",
"362 381 CURVE SMOOTH",
"362 299 LINE",
"290 291 OFFCURVE",
"248 280 OFFCURVE",
"183 263 CURVE SMOOTH",
"96 240 OFFCURVE",
"37 210 OFFCURVE",
"37 123 CURVE SMOOTH",
"37 9 OFFCURVE",
"129 -8 OFFCURVE",
"200 -8 CURVE SMOOTH"
);
},
{
closed = 1;
nodes = (
"202 70 OFFCURVE",
"182 88 OFFCURVE",
"182 131 CURVE SMOOTH",
"182 152 OFFCURVE",
"186 198 OFFCURVE",
"249 215 CURVE SMOOTH",
"292 227 OFFCURVE",
"319 232 OFFCURVE",
"362 237 CURVE",
"362 148 LINE",
"338 113 OFFCURVE",
"290 70 OFFCURVE",
"242 70 CURVE SMOOTH"
);
}
);
width = 600;
},
{
anchors = (
{
name = bottom;
position = "{263, 0}";
},
{
name = ogonek;
position = "{473, 10}";
},
{
name = top;
position = "{246, 520}";
}
);
background = {
paths = (
{
closed = 1;
nodes = (
"345 0 LINE",
"345 81 LINE",
"330 63 LINE",
"287 31 LINE",
"239 6 LINE",
"190 -8 LINE",
"168 -8 LINE",
"141 -8 LINE",
"93 9 LINE",
"57 43 LINE",
"35 91 LINE",
"35 123 LINE",
"35 173 LINE",
"86 236 LINE",
"151 253 LINE",
"200 266 LINE",
"291 283 LINE",
"345 289 LINE",
"345 371 LINE",
"345 399 LINE",
"329 438 LINE",
"301 463 LINE",
"264 474 LINE",
"243 474 LINE",
"220 474 LINE",
"172 468 LINE",
"149 460 LINE",
"121 346 LINE",
"69 355 LINE",
"69 485 LINE",
"108 502 LINE",
"197 529 LINE",
"248 529 LINE",
"287 529 LINE",
"355 513 LINE",
"406 476 LINE",
"435 415 LINE",
"435 370 LINE",
"435 63 LINE",
"507 46 LINE",
"497 0 LINE"
);
},
{
closed = 1;
nodes = (
"135 131 LINE",
"135 107 LINE",
"147 78 LINE",
"168 61 LINE",
"195 55 LINE",
"210 55 LINE",
"228 55 LINE",
"268 70 LINE",
"305 92 LINE",
"336 120 LINE",
"345 133 LINE",
"345 247 LINE",
"313 243 LINE",
"249 234 LINE",
"217 225 LINE",
"170 212 LINE",
"135 162 LINE"
);
}
);
};
hints = (
{
place = "{35, 100}";
type = Stem;
},
{
place = "{345, 90}";
type = Stem;
},
{
place = "{69, 52}";
type = Stem;
},
{
horizontal = 1;
place = "{0, 63}";
type = Stem;
},
{
horizontal = 1;
place = "{247, 42}";
type = Stem;
},
{
horizontal = 1;
place = "{474, 55}";
type = Stem;
},
{
horizontal = 1;
place = "{0, 46}";
type = Stem;
},
{
horizontal = 1;
place = "{-8, 63}";
type = Stem;
}
);
layerId = UUID0;
paths = (
{
closed = 1;
nodes = (
"226 -8 OFFCURVE",
"305 33 OFFCURVE",
"345 81 CURVE",
"345 0 LINE",
"497 0 LINE",
"507 46 LINE",
"435 63 LINE",
"435 370 LINE SMOOTH",
"435 490 OFFCURVE",
"352 529 OFFCURVE",
"248 529 CURVE SMOOTH",
"180 529 OFFCURVE",
"121 508 OFFCURVE",
"69 485 CURVE",
"69 355 LINE",
"121 346 LINE",
"149 460 LINE",
"180 471 OFFCURVE",
"212 474 OFFCURVE",
"243 474 CURVE SMOOTH",
"299 474 OFFCURVE",
"345 446 OFFCURVE",
"345 371 CURVE SMOOTH",
"345 289 LINE",
"273 281 OFFCURVE",
"216 270 OFFCURVE",
"151 253 CURVE SMOOTH",
"64 230 OFFCURVE",
"35 190 OFFCURVE",
"35 123 CURVE SMOOTH",
"35 39 OFFCURVE",
"97 -8 OFFCURVE",
"168 -8 CURVE SMOOTH"
);
},
{
closed = 1;
nodes = (
"170 55 OFFCURVE",
"135 68 OFFCURVE",
"135 131 CURVE SMOOTH",
"135 172 OFFCURVE",
"154 208 OFFCURVE",
"217 225 CURVE SMOOTH",
"260 237 OFFCURVE",
"302 242 OFFCURVE",
"345 247 CURVE",
"345 133 LINE",
"321 98 OFFCURVE",
"258 55 OFFCURVE",
"210 55 CURVE SMOOTH"
);
}
);
width = 526;
}
);
leftKerningGroup = a;
rightKerningGroup = n;
unicode = 0061;
},
{
glyphname = acircumflex;
layers = (
{
components = (
{
name = a;
},
{
name = circumflexcomb;
transform = "{1, 0, 0, 1, 18, 0}";
}
);
layerId = "03739D6D-2A00-4CFA-A48A-FF6A1F8AF183";
width = 600;
},
{
background = {
paths = (
{
closed = 1;
nodes = (
"345 0 LINE",
"345 81 LINE",
"330 63 LINE",
"287 31 LINE",
"239 6 LINE",
"190 -8 LINE",
"168 -8 LINE",
"141 -8 LINE",
"93 9 LINE",
"57 43 LINE",
"35 91 LINE",
"35 123 LINE",
"35 173 LINE",
"86 236 LINE",
"151 253 LINE",
"200 266 LINE",
"291 283 LINE",
"345 289 LINE",
"345 371 LINE",
"345 399 LINE",
"329 438 LINE",
"301 463 LINE",
"264 474 LINE",
"243 474 LINE",
"220 474 LINE",
"172 468 LINE",
"149 460 LINE",
"121 346 LINE",
"69 355 LINE",
"69 485 LINE",
"108 502 LINE",
"197 529 LINE",
"248 529 LINE",
"287 529 LINE",
"355 513 LINE",
"406 476 LINE",
"435 415 LINE",
"435 370 LINE",
"435 63 LINE",
"507 46 LINE",
"497 0 LINE"
);
},
{
closed = 1;
nodes = (
"135 131 LINE",
"135 107 LINE",
"147 78 LINE",
"168 61 LINE",
"195 55 LINE",
"210 55 LINE",
"228 55 LINE",
"268 70 LINE",
"305 92 LINE",
"336 120 LINE",
"345 133 LINE",
"345 247 LINE",
"313 243 LINE",
"249 234 LINE",
"217 225 LINE",
"170 212 LINE",
"135 162 LINE"
);
},
{
closed = 1;
nodes = (
"248 701 LINE",
"151 570 LINE",
"96 570 LINE",
"212 749 LINE",
"212 750 LINE",
"283 750 LINE",
"282 749 LINE",
"399 570 LINE",
"344 570 LINE"
);
}
);
};
components = (
{
name = a;
},
{
name = circumflexcomb;
transform = "{1, 0, 0, 1, -16, 0}";
}
);
layerId = UUID0;
width = 526;
}
);
leftKerningGroup = a;
rightKerningGroup = n;
unicode = 00E2;
},
{
glyphname = adieresis;
layers = (
{
components = (
{
name = a;
},
{
name = dieresiscomb;
transform = "{1, 0, 0, 1, 92, 0}";
}
);
layerId = "03739D6D-2A00-4CFA-A48A-FF6A1F8AF183";
width = 600;
},
{
background = {
paths = (
{
closed = 1;
nodes = (
"345 0 LINE",
"345 81 LINE",
"330 63 LINE",
"287 31 LINE",
"239 6 LINE",
"190 -8 LINE",
"168 -8 LINE",
"141 -8 LINE",
"93 9 LINE",
"57 43 LINE",
"35 91 LINE",
"35 123 LINE",
"35 173 LINE",
"86 236 LINE",
"151 253 LINE",
"200 266 LINE",
"291 283 LINE",
"345 289 LINE",
"345 371 LINE",
"345 399 LINE",
"329 438 LINE",
"301 463 LINE",
"264 474 LINE",
"243 474 LINE",
"220 474 LINE",
"172 468 LINE",
"149 460 LINE",
"121 346 LINE",
"69 355 LINE",
"69 485 LINE",
"108 502 LINE",
"197 529 LINE",
"248 529 LINE",
"287 529 LINE",
"355 513 LINE",
"406 476 LINE",
"435 415 LINE",
"435 370 LINE",
"435 63 LINE",
"507 46 LINE",
"497 0 LINE"
);
},
{
closed = 1;
nodes = (
"135 131 LINE",
"135 107 LINE",
"147 78 LINE",
"168 61 LINE",
"195 55 LINE",
"210 55 LINE",
"228 55 LINE",
"268 70 LINE",
"305 92 LINE",
"336 120 LINE",
"345 133 LINE",
"345 247 LINE",
"313 243 LINE",
"249 234 LINE",
"217 225 LINE",
"170 212 LINE",
"135 162 LINE"
);
},
{
closed = 1;
nodes = (
"295 658 LINE",
"318 699 LINE",
"360 722 LINE",
"400 700 LINE",
"422 660 LINE",
"398 619 LINE",
"357 596 LINE",
"316 617 LINE"
);
},
{
closed = 1;
nodes = (
"84 658 LINE",
"107 699 LINE",
"149 722 LINE",
"189 700 LINE",
"211 660 LINE",
"187 619 LINE",
"146 596 LINE",
"105 617 LINE"
);
}
);
};
components = (
{
name = a;
},
{
name = dieresiscomb;
transform = "{1, 0, 0, 1, 58, 0}";
}
);
layerId = UUID0;
width = 526;
}
);
leftKerningGroup = a;
rightKerningGroup = n;
unicode = 00E4;
},
{
glyphname = agrave;
layers = (
{
components = (
{
name = a;
},
{
name = gravecomb;
transform = "{1, 0, 0, 1, -16, 0}";
}
);
layerId = "03739D6D-2A00-4CFA-A48A-FF6A1F8AF183";
width = 600;
},
{
background = {
paths = (
{
closed = 1;
nodes = (
"345 0 LINE",
"345 81 LINE",
"330 63 LINE",
"287 31 LINE",
"239 6 LINE",
"190 -8 LINE",
"168 -8 LINE",
"141 -8 LINE",
"93 9 LINE",
"57 43 LINE",
"35 91 LINE",
"35 123 LINE",
"35 173 LINE",
"86 236 LINE",
"151 253 LINE",
"200 266 LINE",
"291 283 LINE",
"345 289 LINE",
"345 371 LINE",
"345 399 LINE",
"329 438 LINE",
"301 463 LINE",
"264 474 LINE",
"243 474 LINE",
"220 474 LINE",
"172 468 LINE",
"149 460 LINE",
"121 346 LINE",
"69 355 LINE",
"69 485 LINE",
"108 502 LINE",
"197 529 LINE",
"248 529 LINE",
"287 529 LINE",
"355 513 LINE",
"406 476 LINE",
"435 415 LINE",
"435 370 LINE",
"435 63 LINE",
"507 46 LINE",
"497 0 LINE"
);
},
{
closed = 1;
nodes = (
"135 131 LINE",
"135 107 LINE",
"147 78 LINE",
"168 61 LINE",
"195 55 LINE",
"210 55 LINE",
"228 55 LINE",
"268 70 LINE",
"305 92 LINE",
"336 120 LINE",
"345 133 LINE",
"345 247 LINE",
"313 243 LINE",
"249 234 LINE",
"217 225 LINE",
"170 212 LINE",
"135 162 LINE"
);
},
{
closed = 1;
nodes = (
"84 750 LINE",
"182 750 LINE",
"289 582 LINE",
"234 582 LINE"
);
}
);
};
components = (
{
name = a;
},
{
name = gravecomb;
transform = "{1, 0, 0, 1, -31, 0}";
}
);
layerId = UUID0;
width = 526;
}
);
leftKerningGroup = a;
rightKerningGroup = n;
unicode = 00E0;
},
{
glyphname = aring;
layers = (
{
components = (
{
name = a;
},
{
name = ringcomb;
transform = "{1, 0, 0, 1, 30, 0}";
}
);
layerId = "03739D6D-2A00-4CFA-A48A-FF6A1F8AF183";
width = 600;
},
{
background = {
paths = (
{
closed = 1;
nodes = (
"345 0 LINE",
"345 81 LINE",
"330 63 LINE",
"287 31 LINE",
"239 6 LINE",
"190 -8 LINE",
"168 -8 LINE",
"141 -8 LINE",
"93 9 LINE",
"57 43 LINE",
"35 91 LINE",
"35 123 LINE",
"35 173 LINE",
"86 236 LINE",
"151 253 LINE",
"200 266 LINE",
"291 283 LINE",
"345 289 LINE",
"345 371 LINE",
"345 399 LINE",
"329 438 LINE",
"301 463 LINE",
"264 474 LINE",
"243 474 LINE",
"220 474 LINE",
"172 468 LINE",
"149 460 LINE",
"121 346 LINE",
"69 355 LINE",
"69 485 LINE",
"108 502 LINE",
"197 529 LINE",
"248 529 LINE",
"287 529 LINE",
"355 513 LINE",
"406 476 LINE",
"435 415 LINE",
"435 370 LINE",
"435 63 LINE",
"507 46 LINE",
"497 0 LINE"
);
},
{
closed = 1;
nodes = (
"135 131 LINE",
"135 107 LINE",
"147 78 LINE",
"168 61 LINE",
"195 55 LINE",
"210 55 LINE",
"228 55 LINE",
"268 70 LINE",
"305 92 LINE",
"336 120 LINE",
"345 133 LINE",
"345 247 LINE",
"313 243 LINE",
"249 234 LINE",
"217 225 LINE",
"170 212 LINE",
"135 162 LINE"
);
},
{
closed = 1;
nodes = (
"146 692 LINE",
"146 716 LINE",
"164 759 LINE",
"195 791 LINE",
"238 809 LINE",
"262 809 LINE",
"286 809 LINE",
"329 791 LINE",
"361 759 LINE",
"379 716 LINE",
"379 692 LINE",
"379 668 LINE",
"361 625 LINE",
"329 594 LINE",
"286 576 LINE",
"262 576 LINE",
"238 576 LINE",
"195 594 LINE",
"164 625 LINE",
"146 668 LINE"
);
},
{
closed = 1;
nodes = (
"195 692 LINE",
"195 655 LINE",
"229 615 LINE",
"262 615 LINE",
"296 615 LINE",
"330 655 LINE",
"330 692 LINE",
"330 730 LINE",
"296 770 LINE",
"262 770 LINE",
"229 770 LINE",
"195 730 LINE"
);
}
);
};
components = (
{
name = a;
},
{
name = ringcomb;
transform = "{1, 0, 0, 1, -6, 0}";
}
);
layerId = UUID0;
width = 526;
}
);
leftKerningGroup = a;
rightKerningGroup = n;
unicode = 00E5;
},
{
glyphname = atilde;
layers = (
{
components = (
{
name = a;
},
{
name = tildecomb;
transform = "{1, 0, 0, 1, -116, 0}";
}
);
layerId = "03739D6D-2A00-4CFA-A48A-FF6A1F8AF183";
width = 600;
},
{
background = {
paths = (
{
closed = 1;
nodes = (
"345 0 LINE",
"345 81 LINE",
"330 63 LINE",
"287 31 LINE",
"239 6 LINE",
"190 -8 LINE",
"168 -8 LINE",
"141 -8 LINE",
"93 9 LINE",
"57 43 LINE",
"35 91 LINE",
"35 123 LINE",
"35 173 LINE",
"86 236 LINE",
"151 253 LINE",
"200 266 LINE",
"291 283 LINE",
"345 289 LINE",
"345 371 LINE",
"345 399 LINE",
"329 438 LINE",
"301 463 LINE",
"264 474 LINE",
"243 474 LINE",
"220 474 LINE",
"172 468 LINE",
"149 460 LINE",
"121 346 LINE",
"69 355 LINE",
"69 485 LINE",
"108 502 LINE",
"197 529 LINE",
"248 529 LINE",
"287 529 LINE",
"355 513 LINE",
"406 476 LINE",
"435 415 LINE",
"435 370 LINE",
"435 63 LINE",
"507 46 LINE",
"497 0 LINE"
);
},
{
closed = 1;
nodes = (
"135 131 LINE",
"135 107 LINE",
"147 78 LINE",
"168 61 LINE",
"195 55 LINE",
"210 55 LINE",
"228 55 LINE",
"268 70 LINE",
"305 92 LINE",
"336 120 LINE",
"345 133 LINE",
"345 247 LINE",
"313 243 LINE",
"249 234 LINE",
"217 225 LINE",
"170 212 LINE",
"135 162 LINE"
);
},
{
closed = 1;
nodes = (
"238 624 LINE",
"205 646 LINE",
"190 655 LINE",
"179 655 LINE",
"174 654 LINE",
"151 640 LINE",
"135 624 LINE",
"107 597 LINE",
"76 630 LINE",
"78 633 LINE",
"100 660 LINE",
"129 691 LINE",
"160 719 LINE",
"170 724 LINE",
"182 729 LINE",
"194 729 LINE",
"207 729 LINE",
"230 722 LINE",
"253 711 LINE",
"272 699 LINE",
"280 695 LINE",
"286 691 LINE",
"302 680 LINE",
"317 671 LINE",
"333 665 LINE",
"339 665 LINE",
"349 665 LINE",
"384 695 LINE",
"411 722 LINE",
"442 689 LINE",
"441 687 LINE",
"430 674 LINE",
"414 655 LINE",
"395 634 LINE",
"374 614 LINE",
"355 599 LINE",
"348 595 LINE",
"335 589 LINE",
"323 589 LINE",
"311 589 LINE",
"287 597 LINE",
"264 607 LINE",
"245 620 LINE"
);
}
);
};
components = (
{
name = a;
},
{
name = tildecomb;
transform = "{1, 0, 0, 1, -157, 0}";
}
);
layerId = UUID0;
width = 526;
}
);
leftKerningGroup = a;
rightKerningGroup = n;
unicode = 00E3;
},
{
glyphname = ae;
layers = (
{
background = {
paths = (
{
closed = 1;
nodes = (
"416 268 LINE",
"416 218 LINE",
"443 140 LINE",
"491 85 LINE",
"556 56 LINE",
"594 56 LINE",
"664 56 LINE",
"741 105 LINE",
"763 67 LINE",
"714 29 LINE",
"610 -9 LINE",
"560 -9 LINE",
"489 -9 LINE",
"397 61 LINE",
"373 115 LINE",
"358 97 LINE",
"320 54 LINE",
"270 17 LINE",
"204 -8 LINE",
"162 -8 LINE",
"135 -8 LINE",
"87 9 LINE",
"51 43 LINE",
"29 91 LINE",
"29 123 LINE",
"29 173 LINE",
"80 236 LINE",
"145 253 LINE",
"194 266 LINE",
"285 283 LINE",
"339 289 LINE",
"339 371 LINE",
"339 399 LINE",
"323 438 LINE",
"295 463 LINE",
"258 474 LINE",
"237 474 LINE",
"214 474 LINE",
"166 468 LINE",
"143 460 LINE",
"115 346 LINE",
"63 355 LINE",
"63 485 LINE",
"102 502 LINE",
"191 529 LINE",
"242 529 LINE",
"296 529 LINE",
"372 498 LINE",
"392 460 LINE",
"427 494 LINE",
"513 528 LINE",
"557 528 LINE",
"624 528 LINE",
"707 482 LINE",
"754 408 LINE",
"771 315 LINE",
"771 268 LINE"
);
},
{
closed = 1;
nodes = (
"129 131 LINE",
"129 107 LINE",
"141 78 LINE",
"162 61 LINE",
"189 55 LINE",
"204 55 LINE",
"222 55 LINE",
"262 70 LINE",
"299 92 LINE",
"330 120 LINE",
"339 133 LINE",
"339 247 LINE",
"307 243 LINE",
"243 234 LINE",
"211 225 LINE",
"164 212 LINE",
"129 162 LINE"
);
},
{
closed = 1;
nodes = (
"671 322 LINE",
"671 361 LINE",
"651 419 LINE",
"619 456 LINE",
"576 474 LINE",
"554 474 LINE",
"530 474 LINE",
"483 454 LINE",
"445 415 LINE",
"420 359 LINE",
"419 322 LINE"
);
}
);
};
hints = (
{
place = "{27, 145}";
type = Stem;
},
{
place = "{352, 145}";
type = Stem;
},
{
place = "{762, 110}";
type = Stem;
},
{
horizontal = 1;
place = "{-8, 80}";
type = Stem;
},
{
horizontal = 1;
place = "{236, 82}";
type = Stem;
},
{
horizontal = 1;
place = "{467, 71}";
type = Stem;
},
{
horizontal = 1;
place = "{539, -20}";
target = down;
type = TopGhost;
},
{
horizontal = 1;
place = "{-9, 21}";
target = up;
type = BottomGhost;
}
);
layerId = "03739D6D-2A00-4CFA-A48A-FF6A1F8AF183";
paths = (
{
closed = 1;
nodes = (
"722 -9 OFFCURVE",
"799 16 OFFCURVE",
"864 67 CURVE",
"835 121 LINE",
"780 86 OFFCURVE",
"732 72 OFFCURVE",
"680 72 CURVE SMOOTH",
"584 72 OFFCURVE",
"497 118 OFFCURVE",
"497 236 CURVE",
"872 236 LINE",
"872 402 OFFCURVE",
"801 538 OFFCURVE",
"637 538 CURVE SMOOTH",
"577 538 OFFCURVE",
"512 521 OFFCURVE",
"455 478 CURVE",
"411 522 OFFCURVE",
"338 539 OFFCURVE",
"272 539 CURVE SMOOTH",
"202 539 OFFCURVE",
"116 519 OFFCURVE",
"61 495 CURVE",
"61 350 LINE",
"137 338 LINE",
"163 448 LINE",
"183 461 OFFCURVE",
"208 467 OFFCURVE",
"241 467 CURVE SMOOTH",
"314 467 OFFCURVE",
"352 439 OFFCURVE",
"352 381 CURVE SMOOTH",
"352 299 LINE",
"307 294 OFFCURVE",
"231 287 OFFCURVE",
"163 264 CURVE SMOOTH",
"90 240 OFFCURVE",
"27 198 OFFCURVE",
"27 123 CURVE SMOOTH",
"27 10 OFFCURVE",
"119 -8 OFFCURVE",
"185 -8 CURVE SMOOTH",
"282 -8 OFFCURVE",
"336 33 OFFCURVE",
"395 118 CURVE",
"447 31 OFFCURVE",
"545 -9 OFFCURVE",
"644 -9 CURVE SMOOTH"
);
},
{
closed = 1;
nodes = (
"191 70 OFFCURVE",
"172 88 OFFCURVE",
"172 132 CURVE SMOOTH",
"172 163 OFFCURVE",
"181 197 OFFCURVE",
"239 215 CURVE SMOOTH",
"261 222 OFFCURVE",
"311 233 OFFCURVE",
"352 237 CURVE",
"352 148 LINE",
"309 88 OFFCURVE",
"279 70 OFFCURVE",
"234 70 CURVE SMOOTH"
);
},
{
closed = 1;
nodes = (
"505 422 OFFCURVE",
"576 463 OFFCURVE",
"639 463 CURVE SMOOTH",
"700 463 OFFCURVE",
"762 423 OFFCURVE",
"762 318 CURVE",
"500 318 LINE"
);
}
);
width = 910;
},
{
background = {
paths = (
{
closed = 1;
nodes = (
"422 268 LINE",
"422 218 LINE",
"449 140 LINE",
"497 85 LINE",
"562 56 LINE",
"600 56 LINE",
"670 56 LINE",
"747 105 LINE",
"769 67 LINE",
"720 29 LINE",
"616 -9 LINE",
"566 -9 LINE",
"495 -9 LINE",
"403 61 LINE",
"379 115 LINE",
"364 97 LINE",
"326 54 LINE",
"276 17 LINE",
"210 -8 LINE",
"168 -8 LINE",
"141 -8 LINE",
"93 9 LINE",
"57 43 LINE",
"35 91 LINE",
"35 123 LINE",
"35 173 LINE",
"86 236 LINE",
"151 253 LINE",
"200 266 LINE",
"291 283 LINE",
"345 289 LINE",
"345 371 LINE",
"345 399 LINE",
"329 438 LINE",
"301 463 LINE",
"264 474 LINE",
"243 474 LINE",
"220 474 LINE",
"172 468 LINE",
"149 460 LINE",
"121 346 LINE",
"69 355 LINE",
"69 485 LINE",
"108 502 LINE",
"197 529 LINE",
"248 529 LINE",
"302 529 LINE",
"378 498 LINE",
"398 460 LINE",
"433 494 LINE",
"519 528 LINE",
"563 528 LINE",
"630 528 LINE",
"713 482 LINE",
"760 408 LINE",
"777 315 LINE",
"777 268 LINE"
);
},
{
closed = 1;
nodes = (
"135 131 LINE",
"135 107 LINE",
"147 78 LINE",
"168 61 LINE",
"195 55 LINE",
"210 55 LINE",
"228 55 LINE",
"268 70 LINE",
"305 92 LINE",
"336 120 LINE",
"345 133 LINE",
"345 247 LINE",
"313 243 LINE",
"249 234 LINE",
"217 225 LINE",
"170 212 LINE",
"135 162 LINE"
);
},
{
closed = 1;
nodes = (
"677 322 LINE",
"677 361 LINE",
"657 419 LINE",
"625 456 LINE",
"582 474 LINE",
"560 474 LINE",
"536 474 LINE",
"489 454 LINE",
"451 415 LINE",
"426 359 LINE",
"425 322 LINE"
);
}
);
};
hints = (
{
place = "{35, 100}";
type = Stem;
},
{
place = "{345, 77}";
type = Stem;
},
{
place = "{677, 100}";
type = Stem;
},
{
place = "{69, 52}";
type = Stem;
},
{
horizontal = 1;
place = "{-9, 65}";
type = Stem;
},
{
horizontal = 1;
place = "{268, 54}";
type = Stem;
},
{
horizontal = 1;
place = "{474, 54}";
type = Stem;
},
{
horizontal = 1;
place = "{474, 55}";
type = Stem;
},
{
horizontal = 1;
place = "{-8, 63}";
type = Stem;
},
{
horizontal = 1;
place = "{247, 42}";
type = Stem;
}
);
layerId = UUID0;
paths = (
{
closed = 1;
nodes = (
"633 -9 OFFCURVE",
"704 16 OFFCURVE",
"769 67 CURVE",
"747 105 LINE",
"696 72 OFFCURVE",
"647 56 OFFCURVE",
"600 56 CURVE SMOOTH",
"499 56 OFFCURVE",
"422 136 OFFCURVE",
"422 268 CURVE",
"777 268 LINE",
"777 393 OFFCURVE",
"741 528 OFFCURVE",
"563 528 CURVE SMOOTH",
"504 528 OFFCURVE",
"445 505 OFFCURVE",
"398 460 CURVE",
"371 511 OFFCURVE",
"320 529 OFFCURVE",
"248 529 CURVE SMOOTH",
"180 529 OFFCURVE",
"121 508 OFFCURVE",
"69 485 CURVE",
"69 355 LINE",
"121 346 LINE",
"149 460 LINE",
"180 471 OFFCURVE",
"212 474 OFFCURVE",
"243 474 CURVE SMOOTH",
"299 474 OFFCURVE",
"345 446 OFFCURVE",
"345 371 CURVE SMOOTH",
"345 289 LINE",
"273 281 OFFCURVE",
"216 270 OFFCURVE",
"151 253 CURVE SMOOTH",
"64 230 OFFCURVE",
"35 190 OFFCURVE",
"35 123 CURVE SMOOTH",
"35 39 OFFCURVE",
"97 -8 OFFCURVE",
"168 -8 CURVE SMOOTH",
"281 -8 OFFCURVE",
"339 67 OFFCURVE",
"379 115 CURVE",
"411 43 OFFCURVE",
"471 -9 OFFCURVE",
"566 -9 CURVE SMOOTH"
);
},
{
closed = 1;
nodes = (
"170 55 OFFCURVE",
"135 68 OFFCURVE",
"135 131 CURVE SMOOTH",
"135 172 OFFCURVE",
"154 208 OFFCURVE",
"217 225 CURVE SMOOTH",
"260 237 OFFCURVE",
"302 242 OFFCURVE",
"345 247 CURVE",
"345 133 LINE",
"321 98 OFFCURVE",
"258 55 OFFCURVE",
"210 55 CURVE SMOOTH"
);
},
{
closed = 1;
nodes = (
"428 420 OFFCURVE",
"497 474 OFFCURVE",
"560 474 CURVE SMOOTH",
"620 474 OFFCURVE",
"677 427 OFFCURVE",
"677 322 CURVE",
"425 322 LINE"
);
}
);
width = 816;
}
);
leftKerningGroup = a;
rightKerningGroup = e;
unicode = 00E6;
},
{
glyphname = b;
layers = (
{
background = {
paths = (
{
closed = 1;
nodes = (
"143 666 LINE",
"60 682 LINE",
"55 726 LINE",
"233 750 LINE",
"233 463 LINE",
"271 497 LINE",
"352 528 LINE",
"391 528 LINE",
"433 528 LINE",
"510 494 LINE",
"569 429 LINE",
"603 338 LINE",
"603 281 LINE",
"603 205 LINE",
"559 94 LINE",
"483 22 LINE",
"380 -13 LINE",
"321 -13 LINE",
"279 -13 LINE",
"182 6 LINE",
"143 26 LINE"
);
},
{
closed = 1;
nodes = (
"233 71 LINE",
"290 42 LINE",
"340 42 LINE",
"378 42 LINE",
"439 73 LINE",
"481 129 LINE",
"504 207 LINE",
"504 253 LINE",
"504 345 LINE",
"426 451 LINE",
"360 451 LINE",
"302 451 LINE",
"233 407 LINE"
);
}
);
};
hints = (
{
place = "{93, 140}";
type = Stem;
},
{
place = "{489, 139}";
type = Stem;
},
{
horizontal = 1;
place = "{-15, 71}";
type = Stem;
},
{
horizontal = 1;
place = "{451, 96}";
type = Stem;
},
{
horizontal = 1;
place = "{760, -20}";
target = down;
type = TopGhost;
}
);
layerId = "03739D6D-2A00-4CFA-A48A-FF6A1F8AF183";
paths = (
{
closed = 1;
nodes = (
"486 -15 OFFCURVE",
"628 69 OFFCURVE",
"628 291 CURVE SMOOTH",
"628 463 OFFCURVE",
"514 547 OFFCURVE",
"391 547 CURVE SMOOTH",
"339 547 OFFCURVE",
"284 527 OFFCURVE",
"233 482 CURVE",
"233 760 LINE",
"8 728 LINE",
"13 677 LINE",
"93 662 LINE",
"93 35 LINE",
"165 4 OFFCURVE",
"247 -15 OFFCURVE",
"323 -15 CURVE SMOOTH"
);
},
{
closed = 1;
nodes = (
"307 56 OFFCURVE",
"271 67 OFFCURVE",
"233 86 CURVE",
"233 407 LINE",
"279 436 OFFCURVE",
"321 451 OFFCURVE",
"360 451 CURVE SMOOTH",
"448 451 OFFCURVE",
"489 376 OFFCURVE",
"489 263 CURVE SMOOTH",
"489 149 OFFCURVE",
"431 56 OFFCURVE",
"340 56 CURVE SMOOTH"
);
}
);
width = 658;
},
{
background = {
paths = (
{
closed = 1;
nodes = (
"78 666 LINE",
"-5 682 LINE",
"-10 726 LINE",
"168 750 LINE",
"168 463 LINE",
"206 497 LINE",
"287 528 LINE",
"326 528 LINE",
"368 528 LINE",
"445 494 LINE",
"504 429 LINE",
"538 338 LINE",
"538 281 LINE",
"538 205 LINE",
"494 94 LINE",
"418 22 LINE",
"315 -13 LINE",
"256 -13 LINE",
"214 -13 LINE",
"117 6 LINE",
"78 26 LINE"
);
},
{
closed = 1;
nodes = (
"168 71 LINE",
"225 42 LINE",
"275 42 LINE",
"313 42 LINE",
"374 73 LINE",
"416 129 LINE",
"439 207 LINE",
"439 253 LINE",
"439 345 LINE",
"361 451 LINE",
"295 451 LINE",
"237 451 LINE",
"168 407 LINE"
);
}
);
};
hints = (
{
place = "{78, 90}";
type = Stem;
},
{
place = "{439, 99}";
type = Stem;
},
{
horizontal = 1;
place = "{-13, 55}";
type = Stem;
},
{
horizontal = 1;
place = "{451, 77}";
type = Stem;
}
);
layerId = UUID0;
paths = (
{
closed = 1;
nodes = (
"413 -13 OFFCURVE",
"538 78 OFFCURVE",
"538 281 CURVE SMOOTH",
"538 433 OFFCURVE",
"439 528 OFFCURVE",
"326 528 CURVE SMOOTH",
"274 528 OFFCURVE",
"219 508 OFFCURVE",
"168 463 CURVE",
"168 750 LINE",
"-10 726 LINE",
"-5 682 LINE",
"78 666 LINE",
"78 26 LINE",
"130 -1 OFFCURVE",
"200 -13 OFFCURVE",
"256 -13 CURVE SMOOTH"
);
},
{
closed = 1;
nodes = (
"242 42 OFFCURVE",
"206 52 OFFCURVE",
"168 71 CURVE",
"168 407 LINE",
"214 436 OFFCURVE",
"256 451 OFFCURVE",
"295 451 CURVE SMOOTH",
"383 451 OFFCURVE",
"439 376 OFFCURVE",
"439 253 CURVE SMOOTH",
"439 129 OFFCURVE",
"376 42 OFFCURVE",
"275 42 CURVE SMOOTH"
);
}
);
width = 579;
}
);
leftKerningGroup = I;
rightKerningGroup = o;
unicode = 0062;
},
{
glyphname = c;
layers = (
{
anchors = (
{
name = bottom;
position = "{317, 0}";
},
{
name = top;
position = "{269, 530}";
}
);
background = {
paths = (
{
closed = 1;
nodes = (
"413 457 LINE",
"370 474 LINE",
"335 474 LINE",
"297 474 LINE",
"235 442 LINE",
"191 387 LINE",
"166 311 LINE",
"166 267 LINE",
"166 227 LINE",
"186 151 LINE",
"228 91 LINE",
"292 55 LINE",
"336 55 LINE",
"370 55 LINE",
"451 81 LINE",
"482 104 LINE",
"504 66 LINE",
"464 28 LINE",
"368 -11 LINE",
"317 -11 LINE",
"266 -11 LINE",
"175 25 LINE",
"106 94 LINE",
"66 195 LINE",
"66 260 LINE",
"66 324 LINE",
"111 424 LINE",
"185 493 LINE",
"281 529 LINE",
"332 529 LINE",
"373 529 LINE",
"453 506 LINE",
"491 482 LINE",
"491 349 LINE",
"441 339 LINE"
);
}
);
};
hints = (
{
place = "{37, 138}";
type = Stem;
},
{
horizontal = 1;
place = "{-11, 80}";
type = Stem;
},
{
horizontal = 1;
place = "{466, 73}";
type = Stem;
}
);
layerId = "03739D6D-2A00-4CFA-A48A-FF6A1F8AF183";
paths = (
{
closed = 1;
nodes = (
"385 -11 OFFCURVE",
"451 15 OFFCURVE",
"504 66 CURVE",
"473 119 LINE",
"432 88 OFFCURVE",
"381 69 OFFCURVE",
"336 69 CURVE SMOOTH",
"219 69 OFFCURVE",
"175 170 OFFCURVE",
"175 277 CURVE SMOOTH",
"175 379 OFFCURVE",
"245 466 OFFCURVE",
"332 466 CURVE SMOOTH",
"354 466 OFFCURVE",
"379 462 OFFCURVE",
"402 447 CURVE",
"431 337 LINE",
"491 349 LINE",
"491 492 LINE",
"440 524 OFFCURVE",
"387 539 OFFCURVE",
"332 539 CURVE SMOOTH",
"206 539 OFFCURVE",
"37 466 OFFCURVE",
"37 270 CURVE SMOOTH",
"37 62 OFFCURVE",
"181 -11 OFFCURVE",
"317 -11 CURVE SMOOTH"
);
}
);
width = 537;
},
{
anchors = (
{
name = bottom;
position = "{291, 0}";
},
{
name = top;
position = "{259, 520}";
}
);
background = {
paths = (
{
closed = 1;
nodes = (
"387 457 LINE",
"344 474 LINE",
"309 474 LINE",
"271 474 LINE",
"209 442 LINE",
"165 387 LINE",
"140 311 LINE",
"140 267 LINE",
"140 227 LINE",
"160 151 LINE",
"202 91 LINE",
"266 55 LINE",
"310 55 LINE",
"344 55 LINE",
"425 81 LINE",
"456 104 LINE",
"478 66 LINE",
"438 28 LINE",
"342 -11 LINE",
"291 -11 LINE",
"240 -11 LINE",
"149 25 LINE",
"80 94 LINE",
"40 195 LINE",
"40 260 LINE",
"40 324 LINE",
"85 424 LINE",
"159 493 LINE",
"255 529 LINE",
"306 529 LINE",
"347 529 LINE",
"427 506 LINE",
"465 482 LINE",
"465 349 LINE",
"415 339 LINE"
);
}
);
};
hints = (
{
place = "{40, 100}";
type = Stem;
},
{
place = "{415, 50}";
type = Stem;
},
{
horizontal = 1;
place = "{-11, 66}";
type = Stem;
},
{
horizontal = 1;
place = "{474, 55}";
type = Stem;
}
);
layerId = UUID0;
paths = (
{
closed = 1;
nodes = (
"359 -11 OFFCURVE",
"425 15 OFFCURVE",
"478 66 CURVE",
"456 104 LINE",
"415 73 OFFCURVE",
"355 55 OFFCURVE",
"310 55 CURVE SMOOTH",
"193 55 OFFCURVE",
"140 160 OFFCURVE",
"140 267 CURVE SMOOTH",
"140 384 OFFCURVE",
"209 474 OFFCURVE",
"309 474 CURVE SMOOTH",
"332 474 OFFCURVE",
"358 468 OFFCURVE",
"387 457 CURVE",
"415 339 LINE",
"465 349 LINE",
"465 482 LINE",
"414 514 OFFCURVE",
"361 529 OFFCURVE",
"306 529 CURVE SMOOTH",
"170 529 OFFCURVE",
"40 431 OFFCURVE",
"40 260 CURVE SMOOTH",
"40 87 OFFCURVE",
"155 -11 OFFCURVE",
"291 -11 CURVE SMOOTH"
);
}
);
width = 517;
}
);
leftKerningGroup = o;
rightKerningGroup = c;
unicode = 0063;
},
{
glyphname = ccedilla;
layers = (
{
components = (
{
name = c;
},
{
name = cedillacomb;
transform = "{1, 0, 0, 1, 144, 0}";
}
);
layerId = "03739D6D-2A00-4CFA-A48A-FF6A1F8AF183";
width = 537;
},
{
background = {
paths = (
{
closed = 1;
nodes = (
"388 457 LINE",
"345 474 LINE",
"310 474 LINE",
"271 474 LINE",
"209 442 LINE",
"166 387 LINE",
"141 311 LINE",
"141 267 LINE",
"141 227 LINE",
"161 151 LINE",
"203 91 LINE",
"267 55 LINE",
"311 55 LINE",
"345 55 LINE",
"425 81 LINE",
"457 104 LINE",
"479 66 LINE",
"438 28 LINE",
"390 8 LINE",
"349 -9 LINE",
"305 -11 LINE",
"305 -38 LINE",
"345 -43 LINE",
"376 -84 LINE",
"376 -115 LINE",
"376 -147 LINE",
"341 -194 LINE",
"288 -226 LINE",
"224 -244 LINE",
"194 -246 LINE",
"187 -216 LINE",
"204 -212 LINE",
"237 -202 LINE",
"268 -186 LINE",
"290 -163 LINE",
"292 -148 LINE",
"296 -119 LINE",
"278 -73 LINE",
"250 -67 LINE",
"250 -8 LINE",
"221 -3 LINE",
"195 7 LINE",
"149 25 LINE",
"81 94 LINE",
"41 195 LINE",
"41 260 LINE",
"41 324 LINE",
"85 424 LINE",
"160 493 LINE",
"255 529 LINE",
"307 529 LINE",
"348 529 LINE",
"427 506 LINE",
"465 482 LINE",
"465 349 LINE",
"416 339 LINE"
);
}
);
};
components = (
{
name = c;
},
{
name = cedillacomb;
transform = "{1, 0, 0, 1, 131, 0}";
}
);
layerId = UUID0;
width = 517;
}
);
leftKerningGroup = o;
rightKerningGroup = c;
unicode = 00E7;
},
{
glyphname = d;
layers = (
{
background = {
paths = (
{
closed = 1;
nodes = (
"440 57 LINE",
"406 26 LINE",
"331 -8 LINE",
"284 -8 LINE",
"242 -8 LINE",
"164 28 LINE",
"104 93 LINE",
"67 186 LINE",
"67 243 LINE",
"67 307 LINE",
"110 411 LINE",
"182 484 LINE",
"274 523 LINE",
"322 523 LINE",
"352 523 LINE",
"412 506 LINE",
"440 489 LINE",
"440 666 LINE",
"357 682 LINE",
"352 726 LINE",
"529 750 LINE",
"529 63 LINE",
"597 46 LINE",
"587 0 LINE",
"440 0 LINE"
);
},
{
closed = 1;
nodes = (
"303 58 LINE",
"335 58 LINE",
"409 91 LINE",
"440 118 LINE",
"440 415 LINE",
"414 442 LINE",
"357 467 LINE",
"329 467 LINE",
"297 467 LINE",
"239 437 LINE",
"194 384 LINE",
"167 309 LINE",
"167 264 LINE",
"167 222 LINE",
"182 147 LINE",
"215 91 LINE",
"267 58 LINE"
);
}
);
};
hints = (
{
place = "{37, 140}";
type = Stem;
},
{
place = "{425, 140}";
type = Stem;
},
{
horizontal = 1;
place = "{-8, 80}";
type = Stem;
},
{
horizontal = 1;
place = "{467, 75}";
type = Stem;
},
{
horizontal = 1;
place = "{0, 21}";
target = up;
type = BottomGhost;
},
{
horizontal = 1;
place = "{760, -20}";
target = down;
type = TopGhost;
}
);
layerId = "03739D6D-2A00-4CFA-A48A-FF6A1F8AF183";
paths = (
{
closed = 1;
nodes = (
"337 -8 OFFCURVE",
"380 16 OFFCURVE",
"425 57 CURVE",
"425 0 LINE",
"631 0 LINE",
"641 53 LINE",
"566 67 LINE",
"565 760 LINE",
"339 728 LINE",
"344 677 LINE",
"425 662 LINE",
"425 508 LINE",
"388 531 OFFCURVE",
"352 542 OFFCURVE",
"312 542 CURVE SMOOTH",
"173 542 OFFCURVE",
"37 445 OFFCURVE",
"37 253 CURVE SMOOTH",
"37 81 OFFCURVE",
"143 -8 OFFCURVE",
"274 -8 CURVE SMOOTH"
);
},
{
closed = 1;
nodes = (
"206 72 OFFCURVE",
"177 182 OFFCURVE",
"177 274 CURVE SMOOTH",
"177 374 OFFCURVE",
"235 467 OFFCURVE",
"319 467 CURVE SMOOTH",
"356 467 OFFCURVE",
"390 451 OFFCURVE",
"425 415 CURVE",
"425 132 LINE",
"384 96 OFFCURVE",
"336 72 OFFCURVE",
"293 72 CURVE SMOOTH"
);
}
);
width = 661;
},
{
background = {
paths = (
{
closed = 1;
nodes = (
"413 57 LINE",
"379 26 LINE",
"304 -8 LINE",
"257 -8 LINE",
"215 -8 LINE",
"137 28 LINE",
"77 93 LINE",
"40 186 LINE",
"40 243 LINE",
"40 307 LINE",
"83 411 LINE",
"155 484 LINE",
"247 523 LINE",
"295 523 LINE",
"325 523 LINE",
"385 506 LINE",
"413 489 LINE",
"413 666 LINE",
"330 682 LINE",
"325 726 LINE",
"502 750 LINE",
"502 63 LINE",
"570 46 LINE",
"560 0 LINE",
"413 0 LINE"
);
},
{
closed = 1;
nodes = (
"276 58 LINE",
"308 58 LINE",
"382 91 LINE",
"413 118 LINE",
"413 415 LINE",
"387 442 LINE",
"330 467 LINE",
"302 467 LINE",
"270 467 LINE",
"212 437 LINE",
"167 384 LINE",
"140 309 LINE",
"140 264 LINE",
"140 222 LINE",
"155 147 LINE",
"188 91 LINE",
"240 58 LINE"
);
}
);
};
hints = (
{
place = "{40, 100}";
type = Stem;
},
{
place = "{413, 89}";
type = Stem;
},
{
horizontal = 1;
place = "{0, 63}";
type = Stem;
},
{
horizontal = 1;
place = "{467, 56}";
type = Stem;
},
{
horizontal = 1;
place = "{0, 46}";
type = Stem;
},
{
horizontal = 1;
place = "{-8, 66}";
type = Stem;
}
);
layerId = UUID0;
paths = (
{
closed = 1;
nodes = (
"320 -8 OFFCURVE",
"368 16 OFFCURVE",
"413 57 CURVE",
"413 0 LINE",
"560 0 LINE",
"570 46 LINE",
"502 63 LINE",
"502 750 LINE",
"325 726 LINE",
"330 682 LINE",
"413 666 LINE",
"413 489 LINE",
"376 512 OFFCURVE",
"335 523 OFFCURVE",
"295 523 CURVE SMOOTH",
"166 523 OFFCURVE",
"40 415 OFFCURVE",
"40 243 CURVE SMOOTH",
"40 91 OFFCURVE",
"146 -8 OFFCURVE",
"257 -8 CURVE SMOOTH"
);
},
{
closed = 1;
nodes = (
"179 58 OFFCURVE",
"140 152 OFFCURVE",
"140 264 CURVE SMOOTH",
"140 384 OFFCURVE",
"218 467 OFFCURVE",
"302 467 CURVE SMOOTH",
"339 467 OFFCURVE",
"378 451 OFFCURVE",
"413 415 CURVE",
"413 118 LINE",
"372 82 OFFCURVE",
"319 58 OFFCURVE",
"276 58 CURVE SMOOTH"
);
}
);
width = 599;
}
);
leftKerningGroup = o;
rightKerningGroup = d;
unicode = 0064;
},
{
glyphname = eth;
layers = (
{
background = {
paths = (
{
closed = 1;
nodes = (
"407 -8 OFFCURVE",
"528 106 OFFCURVE",
"528 348 CURVE SMOOTH",
"528 496 OFFCURVE",
"483 647 OFFCURVE",
"368 729 CURVE",
"408 790 LINE",
"354 826 LINE",
"312 762 LINE",
"310 762 OFFCURVE",
"308 763 OFFCURVE",
"307 764 CURVE SMOOTH",
"234 795 OFFCURVE",
"170 794 OFFCURVE",
"119 788 CURVE",
"119 712 LINE",
"134 712 OFFCURVE",
"150 711 OFFCURVE",
"166 710 CURVE SMOOTH",
"190 708 OFFCURVE",
"228 702 OFFCURVE",
"263 686 CURVE",
"216 615 LINE",
"270 579 LINE",
"317 650 LINE",
"358 611 OFFCURVE",
"391 549 OFFCURVE",
"394 502 CURVE",
"347 523 OFFCURVE",
"311 530 OFFCURVE",
"279 530 CURVE SMOOTH",
"113 530 OFFCURVE",
"40 398 OFFCURVE",
"40 258 CURVE SMOOTH",
"40 113 OFFCURVE",
"119 -8 OFFCURVE",
"279 -8 CURVE SMOOTH"
);
},
{
closed = 1;
nodes = (
"170 172 OFFCURVE",
"170 269 CURVE SMOOTH",
"170 377 OFFCURVE",
"225 447 OFFCURVE",
"280 452 CURVE SMOOTH",
"316 455 OFFCURVE",
"356 454 OFFCURVE",
"403 423 CURVE",
"405 413 OFFCURVE",
"408 390 OFFCURVE",
"408 367 CURVE SMOOTH",
"408 239 OFFCURVE",
"396 57 OFFCURVE",
"279 57 CURVE SMOOTH",
"183 57 OFFCURVE"
);
}
);
};
hints = (
{
place = "{40, 130}";
type = Stem;
},
{
place = "{408, 120}";
type = Stem;
},
{
horizontal = 1;
place = "{-8, 65}";
type = Stem;
},
{
horizontal = 1;
place = "{826, -20}";
target = down;
type = TopGhost;
},
{
horizontal = 1;
place = "{712, -20}";
target = down;
type = TopGhost;
},
{
horizontal = 1;
place = "{530, -20}";
target = down;
type = TopGhost;
}
);
layerId = "03739D6D-2A00-4CFA-A48A-FF6A1F8AF183";
paths = (
{
closed = 1;
nodes = (
"411 -8 OFFCURVE",
"528 107 OFFCURVE",
"528 348 CURVE SMOOTH",
"528 494 OFFCURVE",
"485 645 OFFCURVE",
"368 729 CURVE",
"408 790 LINE",
"354 826 LINE",
"312 762 LINE",
"256 784 OFFCURVE",
"207 798 OFFCURVE",
"119 788 CURVE",
"119 712 LINE",
"185 710 OFFCURVE",
"215 706 OFFCURVE",
"263 686 CURVE",
"216 615 LINE",
"270 579 LINE",
"317 650 LINE",
"358 611 OFFCURVE",
"391 549 OFFCURVE",
"394 502 CURVE",
"347 523 OFFCURVE",
"313 530 OFFCURVE",
"277 530 CURVE SMOOTH",
"115 530 OFFCURVE",
"40 398 OFFCURVE",
"40 259 CURVE SMOOTH",
"40 113 OFFCURVE",
"123 -8 OFFCURVE",
"271 -8 CURVE SMOOTH"
);
},
{
closed = 1;
nodes = (
"183 57 OFFCURVE",
"170 172 OFFCURVE",
"170 245 CURVE SMOOTH",
"170 376 OFFCURVE",
"212 442 OFFCURVE",
"281 452 CURVE SMOOTH",
"316 457 OFFCURVE",
"366 449 OFFCURVE",
"403 423 CURVE",
"407 400 OFFCURVE",
"408 387 OFFCURVE",
"408 355 CURVE SMOOTH",
"408 240 OFFCURVE",
"395 57 OFFCURVE",
"279 57 CURVE SMOOTH"
);
}
);
width = 567;
},
{
background = {
paths = (
{
closed = 1;
nodes = (
"407 -8 OFFCURVE",
"528 116 OFFCURVE",
"528 348 CURVE SMOOTH",
"528 520 OFFCURVE",
"470 666 OFFCURVE",
"355 733 CURVE",
"418 785 LINE",
"383 827 LINE",
"306 762 LINE",
"269 779 OFFCURVE",
"229 788 OFFCURVE",
"184 790 CURVE",
"160 790 OFFCURVE",
"121 788 OFFCURVE",
"119 788 CURVE",
"119 742 LINE",
"134 742 OFFCURVE",
"150 741 OFFCURVE",
"166 740 CURVE SMOOTH",
"193 737 OFFCURVE",
"227 732 OFFCURVE",
"254 719 CURVE",
"189 665 LINE",
"224 623 LINE",
"300 686 LINE",
"361 654 OFFCURVE",
"411 554 OFFCURVE",
"414 502 CURVE",
"367 523 OFFCURVE",
"331 530 OFFCURVE",
"299 530 CURVE SMOOTH",
"133 530 OFFCURVE",
"40 398 OFFCURVE",
"40 258 CURVE SMOOTH",
"40 113 OFFCURVE",
"119 -8 OFFCURVE",
"279 -8 CURVE SMOOTH"
);
},
{
closed = 1;
nodes = (
"185 47 OFFCURVE",
"140 138 OFFCURVE",
"140 269 CURVE SMOOTH",
"140 377 OFFCURVE",
"187 475 OFFCURVE",
"300 475 CURVE SMOOTH",
"327 475 OFFCURVE",
"378 473 OFFCURVE",
"422 453 CURVE",
"426 411 OFFCURVE",
"428 390 OFFCURVE",
"428 367 CURVE SMOOTH",
"428 236 OFFCURVE",
"405 47 OFFCURVE",
"280 47 CURVE SMOOTH"
);
}
);
};
hints = (
{
place = "{40, 100}";
type = Stem;
},
{
place = "{428, 100}";
type = Stem;
},
{
horizontal = 1;
place = "{-8, 55}";
type = Stem;
},
{
horizontal = 1;
place = "{475, 55}";
type = Stem;
},
{
horizontal = 1;
place = "{742, 48}";
type = Stem;
}
);
layerId = UUID0;
paths = (
{
closed = 1;
nodes = (
"413 -8 OFFCURVE",
"528 116 OFFCURVE",
"528 350 CURVE SMOOTH",
"528 520 OFFCURVE",
"471 663 OFFCURVE",
"355 733 CURVE",
"418 785 LINE",
"383 827 LINE",
"306 762 LINE",
"237 791 OFFCURVE",
"189 792 OFFCURVE",
"119 788 CURVE",
"119 742 LINE",
"172 742 OFFCURVE",
"216 737 OFFCURVE",
"254 719 CURVE",
"189 665 LINE",
"224 623 LINE",
"300 686 LINE",
"361 654 OFFCURVE",
"411 554 OFFCURVE",
"414 502 CURVE",
"367 523 OFFCURVE",
"333 530 OFFCURVE",
"296 530 CURVE SMOOTH",
"133 530 OFFCURVE",
"40 398 OFFCURVE",
"40 254 CURVE SMOOTH",
"40 112 OFFCURVE",
"126 -8 OFFCURVE",
"270 -8 CURVE SMOOTH"
);
},
{
closed = 1;
nodes = (
"188 47 OFFCURVE",
"140 137 OFFCURVE",
"140 263 CURVE SMOOTH",
"140 385 OFFCURVE",
"187 475 OFFCURVE",
"309 475 CURVE SMOOTH",
"327 475 OFFCURVE",
"378 473 OFFCURVE",
"422 453 CURVE",
"426 412 OFFCURVE",
"428 390 OFFCURVE",
"428 358 CURVE SMOOTH",
"428 235 OFFCURVE",
"405 47 OFFCURVE",
"278 47 CURVE SMOOTH"
);
}
);
width = 581;
}
);
leftKerningGroup = o;
rightKerningGroup = o;
unicode = 00F0;
},
{
glyphname = e;
layers = (
{
anchors = (
{
name = bottom;
position = "{295, 0}";
},
{
name = ogonek;
position = "{530, 10}";
},
{
name = top;
position = "{323, 530}";
}
);
background = {
paths = (
{
closed = 1;
nodes = (
"169 268 LINE",
"169 218 LINE",
"195 140 LINE",
"243 85 LINE",
"308 56 LINE",
"346 56 LINE",
"417 56 LINE",
"493 105 LINE",
"515 67 LINE",
"466 29 LINE",
"362 -9 LINE",
"313 -9 LINE",
"262 -9 LINE",
"174 27 LINE",
"108 96 LINE",
"69 197 LINE",
"69 262 LINE",
"69 328 LINE",
"111 428 LINE",
"180 495 LINE",
"266 528 LINE",
"309 528 LINE",
"377 528 LINE",
"460 482 LINE",
"507 408 LINE",
"524 315 LINE",
"524 268 LINE"
);
},
{
closed = 1;
nodes = (
"424 322 LINE",
"424 361 LINE",
"403 419 LINE",
"371 456 LINE",
"328 474 LINE",
"306 474 LINE",
"282 474 LINE",
"236 454 LINE",
"197 415 LINE",
"173 359 LINE",
"172 322 LINE"
);
}
);
};
hints = (
{
place = "{33, 142}";
type = Stem;
},
{
place = "{440, 116}";
type = Stem;
},
{
horizontal = 1;
place = "{-9, 85}";
type = Stem;
},
{
horizontal = 1;
place = "{236, 82}";
type = Stem;
},
{
horizontal = 1;
place = "{463, 75}";
type = Stem;
}
);
layerId = "03739D6D-2A00-4CFA-A48A-FF6A1F8AF183";
paths = (
{
closed = 1;
nodes = (
"396 -9 OFFCURVE",
"477 16 OFFCURVE",
"542 67 CURVE",
"510 125 LINE",
"459 92 OFFCURVE",
"407 76 OFFCURVE",
"360 76 CURVE SMOOTH",
"259 76 OFFCURVE",
"175 122 OFFCURVE",
"175 236 CURVE",
"556 236 LINE",
"556 401 OFFCURVE",
"485 538 OFFCURVE",
"316 538 CURVE SMOOTH",
"192 538 OFFCURVE",
"33 468 OFFCURVE",
"33 262 CURVE SMOOTH",
"33 65 OFFCURVE",
"177 -9 OFFCURVE",
"329 -9 CURVE SMOOTH"
);
},
{
closed = 1;
nodes = (
"181 416 OFFCURVE",
"250 463 OFFCURVE",
"318 463 CURVE SMOOTH",
"378 463 OFFCURVE",
"440 423 OFFCURVE",
"440 318 CURVE",
"178 318 LINE"
);
}
);
width = 589;
},
{
anchors = (
{
name = bottom;
position = "{268, 0}";
},
{
name = ogonek;
position = "{482, 10}";
},
{
name = top;
position = "{294, 520}";
}
);
background = {
paths = (
{
closed = 1;
nodes = (
"141 268 LINE",
"141 218 LINE",
"167 140 LINE",
"215 85 LINE",
"280 56 LINE",
"318 56 LINE",
"389 56 LINE",
"465 105 LINE",
"487 67 LINE",
"438 29 LINE",
"334 -9 LINE",
"285 -9 LINE",
"234 -9 LINE",
"146 27 LINE",
"80 96 LINE",
"41 197 LINE",
"41 262 LINE",
"41 328 LINE",
"83 428 LINE",
"152 495 LINE",
"238 528 LINE",
"281 528 LINE",
"349 528 LINE",
"432 482 LINE",
"479 408 LINE",
"496 315 LINE",
"496 268 LINE"
);
},
{
closed = 1;
nodes = (
"396 322 LINE",
"396 361 LINE",
"375 419 LINE",
"343 456 LINE",
"300 474 LINE",
"278 474 LINE",
"254 474 LINE",
"208 454 LINE",
"169 415 LINE",
"145 359 LINE",
"144 322 LINE"
);
}
);
};
hints = (
{
place = "{41, 100}";
type = Stem;
},
{
place = "{396, 100}";
type = Stem;
},
{
horizontal = 1;
place = "{-9, 65}";
type = Stem;
},
{
horizontal = 1;
place = "{268, 54}";
type = Stem;
},
{
horizontal = 1;
place = "{474, 54}";
type = Stem;
}
);
layerId = UUID0;
paths = (
{
closed = 1;
nodes = (
"352 -9 OFFCURVE",
"423 16 OFFCURVE",
"488 67 CURVE",
"466 105 LINE",
"415 72 OFFCURVE",
"366 56 OFFCURVE",
"319 56 CURVE SMOOTH",
"218 56 OFFCURVE",
"141 136 OFFCURVE",
"141 268 CURVE",
"496 268 LINE",
"496 393 OFFCURVE",
"460 528 OFFCURVE",
"282 528 CURVE SMOOTH",
"167 528 OFFCURVE",
"41 439 OFFCURVE",
"41 262 CURVE SMOOTH",
"41 89 OFFCURVE",
"153 -9 OFFCURVE",
"285 -9 CURVE SMOOTH"
);
},
{
closed = 1;
nodes = (
"147 420 OFFCURVE",
"216 474 OFFCURVE",
"279 474 CURVE SMOOTH",
"339 474 OFFCURVE",
"396 427 OFFCURVE",
"396 322 CURVE",
"144 322 LINE"
);
}
);
width = 535;
}
);
leftKerningGroup = o;
rightKerningGroup = e;
unicode = 0065;
},
{
glyphname = eacute;
layers = (
{
components = (
{
name = e;
},
{
name = acutecomb;
transform = "{1, 0, 0, 1, 223, 0}";
}
);
layerId = "03739D6D-2A00-4CFA-A48A-FF6A1F8AF183";
width = 589;
},
{
background = {
paths = (
{
closed = 1;
nodes = (
"141 268 LINE",
"141 218 LINE",
"167 140 LINE",
"215 85 LINE",
"280 56 LINE",
"318 56 LINE",
"389 56 LINE",
"465 105 LINE",
"487 67 LINE",
"438 29 LINE",
"334 -9 LINE",
"285 -9 LINE",
"234 -9 LINE",
"146 27 LINE",
"80 96 LINE",
"41 197 LINE",
"41 262 LINE",
"41 328 LINE",
"83 428 LINE",
"152 495 LINE",
"238 528 LINE",
"281 528 LINE",
"349 528 LINE",
"432 482 LINE",
"479 408 LINE",
"496 315 LINE",
"496 268 LINE"
);
},
{
closed = 1;
nodes = (
"396 322 LINE",
"396 361 LINE",
"375 419 LINE",
"343 456 LINE",
"300 474 LINE",
"278 474 LINE",
"254 474 LINE",
"208 454 LINE",
"169 415 LINE",
"145 359 LINE",
"144 322 LINE"
);
},
{
closed = 1;
nodes = (
"305 565 LINE",
"250 565 LINE",
"337 748 LINE",
"435 748 LINE"
);
}
);
};
components = (
{
name = e;
},
{
name = acutecomb;
transform = "{1, 0, 0, 1, 233, 0}";
}
);
layerId = UUID0;
width = 535;
}
);
leftKerningGroup = o;
rightKerningGroup = e;
unicode = 00E9;
},
{
glyphname = ecircumflex;
layers = (
{
components = (
{
name = e;
},
{
name = circumflexcomb;
transform = "{1, 0, 0, 1, 61, 0}";
}
);
layerId = "03739D6D-2A00-4CFA-A48A-FF6A1F8AF183";
width = 589;
},
{
background = {
paths = (
{
closed = 1;
nodes = (
"141 268 LINE",
"141 218 LINE",
"167 140 LINE",
"215 85 LINE",
"280 56 LINE",
"318 56 LINE",
"389 56 LINE",
"465 105 LINE",
"487 67 LINE",
"438 29 LINE",
"334 -9 LINE",
"285 -9 LINE",
"234 -9 LINE",
"146 27 LINE",
"80 96 LINE",
"41 197 LINE",
"41 262 LINE",
"41 328 LINE",
"83 428 LINE",
"152 495 LINE",
"238 528 LINE",
"281 528 LINE",
"349 528 LINE",
"432 482 LINE",
"479 408 LINE",
"496 315 LINE",
"496 268 LINE"
);
},
{
closed = 1;
nodes = (
"396 322 LINE",
"396 361 LINE",
"375 419 LINE",
"343 456 LINE",
"300 474 LINE",
"278 474 LINE",
"254 474 LINE",
"208 454 LINE",
"169 415 LINE",
"145 359 LINE",
"144 322 LINE"
);
},
{
closed = 1;
nodes = (
"287 701 LINE",
"190 570 LINE",
"135 570 LINE",
"251 749 LINE",
"251 750 LINE",
"322 750 LINE",
"321 749 LINE",
"438 570 LINE",
"383 570 LINE"
);
}
);
};
components = (
{
name = e;
},
{
name = circumflexcomb;
transform = "{1, 0, 0, 1, 32, 0}";
}
);
layerId = UUID0;
width = 535;
}
);
leftKerningGroup = o;
rightKerningGroup = e;
unicode = 00EA;
},
{
glyphname = edieresis;
layers = (
{
components = (
{
name = e;
},
{
name = dieresiscomb;
transform = "{1, 0, 0, 1, 135, 0}";
}
);
layerId = "03739D6D-2A00-4CFA-A48A-FF6A1F8AF183";
width = 589;
},
{
background = {
paths = (
{
closed = 1;
nodes = (
"141 268 LINE",
"141 218 LINE",
"167 140 LINE",
"215 85 LINE",
"280 56 LINE",
"318 56 LINE",
"389 56 LINE",
"465 105 LINE",
"487 67 LINE",
"438 29 LINE",
"334 -9 LINE",
"285 -9 LINE",
"234 -9 LINE",
"146 27 LINE",
"80 96 LINE",
"41 197 LINE",
"41 262 LINE",
"41 328 LINE",
"83 428 LINE",
"152 495 LINE",
"238 528 LINE",
"281 528 LINE",
"349 528 LINE",
"432 482 LINE",
"479 408 LINE",
"496 315 LINE",
"496 268 LINE"
);
},
{
closed = 1;
nodes = (
"396 322 LINE",
"396 361 LINE",
"375 419 LINE",
"343 456 LINE",
"300 474 LINE",
"278 474 LINE",
"254 474 LINE",
"208 454 LINE",
"169 415 LINE",
"145 359 LINE",
"144 322 LINE"
);
},
{
closed = 1;
nodes = (
"323 658 LINE",
"346 699 LINE",
"388 722 LINE",
"428 700 LINE",
"450 660 LINE",
"426 619 LINE",
"385 596 LINE",
"344 617 LINE"
);
},
{
closed = 1;
nodes = (
"112 658 LINE",
"135 699 LINE",
"177 722 LINE",
"217 700 LINE",
"239 660 LINE",
"215 619 LINE",
"174 596 LINE",
"133 617 LINE"
);
}
);
};
components = (
{
name = e;
},
{
name = dieresiscomb;
transform = "{1, 0, 0, 1, 106, 0}";
}
);
layerId = UUID0;
width = 535;
}
);
leftKerningGroup = o;
rightKerningGroup = e;
unicode = 00EB;
},
{
glyphname = egrave;
layers = (
{
components = (
{
name = e;
},
{
name = gravecomb;
transform = "{1, 0, 0, 1, 27, 0}";
}
);
layerId = "03739D6D-2A00-4CFA-A48A-FF6A1F8AF183";
width = 589;
},
{
background = {
paths = (
{
closed = 1;
nodes = (
"141 268 LINE",
"141 218 LINE",
"167 140 LINE",
"215 85 LINE",
"280 56 LINE",
"318 56 LINE",
"389 56 LINE",
"465 105 LINE",
"487 67 LINE",
"438 29 LINE",
"334 -9 LINE",
"285 -9 LINE",
"234 -9 LINE",
"146 27 LINE",
"80 96 LINE",
"41 197 LINE",
"41 262 LINE",
"41 328 LINE",
"83 428 LINE",
"152 495 LINE",
"238 528 LINE",
"281 528 LINE",
"349 528 LINE",
"432 482 LINE",
"479 408 LINE",
"496 315 LINE",
"496 268 LINE"
);
},
{
closed = 1;
nodes = (
"396 322 LINE",
"396 361 LINE",
"375 419 LINE",
"343 456 LINE",
"300 474 LINE",
"278 474 LINE",
"254 474 LINE",
"208 454 LINE",
"169 415 LINE",
"145 359 LINE",
"144 322 LINE"
);
},
{
closed = 1;
nodes = (
"107 750 LINE",
"205 750 LINE",
"312 582 LINE",
"257 582 LINE"
);
}
);
};
components = (
{
name = e;
},
{
name = gravecomb;
transform = "{1, 0, 0, 1, 17, 0}";
}
);
layerId = UUID0;
width = 535;
}
);
leftKerningGroup = o;
rightKerningGroup = e;
unicode = 00E8;
},
{
glyphname = f;
layers = (
{
background = {
paths = (
{
closed = 1;
nodes = (
"320 757 LINE",
"349 757 LINE",
"422 740 LINE",
"451 723 LINE",
"451 590 LINE",
"401 580 LINE",
"373 690 LINE",
"361 696 LINE",
"332 702 LINE",
"320 702 LINE",
"275 702 LINE",
"233 648 LINE",
"233 575 LINE",
"233 520 LINE",
"366 520 LINE",
"366 465 LINE",
"233 465 LINE",
"233 62 LINE",
"344 48 LINE",
"334 0 LINE",
"56 0 LINE",
"56 30 LINE",
"143 60 LINE",
"143 465 LINE",
"56 465 LINE",
"56 520 LINE",
"143 520 LINE",
"143 576 LINE",
"144 626 LINE",
"175 695 LINE",
"225 738 LINE",
"288 757 LINE"
);
}
);
};
hints = (
{
place = "{113, 140}";
type = Stem;
},
{
horizontal = 1;
place = "{436, 75}";
type = Stem;
},
{
horizontal = 1;
place = "{697, 70}";
type = Stem;
},
{
horizontal = 1;
place = "{0, 21}";
target = up;
type = BottomGhost;
}
);
layerId = "03739D6D-2A00-4CFA-A48A-FF6A1F8AF183";
paths = (
{
closed = 1;
nodes = (
"348 0 LINE",
"358 53 LINE",
"253 67 LINE",
"253 436 LINE",
"390 436 LINE",
"390 511 LINE",
"253 511 LINE",
"253 585 LINE SMOOTH",
"253 682 OFFCURVE",
"300 697 OFFCURVE",
"340 697 CURVE SMOOTH",
"351 697 OFFCURVE",
"362 696 OFFCURVE",
"375 692 CURVE",
"405 580 LINE",
"481 596 LINE",
"471 733 LINE",
"432 756 OFFCURVE",
"379 767 OFFCURVE",
"340 767 CURVE SMOOTH",
"255 767 OFFCURVE",
"113 737 OFFCURVE",
"113 584 CURVE SMOOTH",
"113 511 LINE",
"32 511 LINE",
"32 436 LINE",
"113 436 LINE",
"113 65 LINE",
"25 35 LINE",
"25 0 LINE"
);
}
);
width = 507;
},
{
background = {
paths = (
{
closed = 1;
nodes = (
"297 757 LINE",
"326 757 LINE",
"399 740 LINE",
"428 723 LINE",
"428 590 LINE",
"378 580 LINE",
"350 690 LINE",
"338 696 LINE",
"309 702 LINE",
"297 702 LINE",
"252 702 LINE",
"210 648 LINE",
"210 575 LINE",
"210 520 LINE",
"343 520 LINE",
"343 465 LINE",
"210 465 LINE",
"210 62 LINE",
"321 48 LINE",
"311 0 LINE",
"33 0 LINE",
"33 30 LINE",
"120 60 LINE",
"120 465 LINE",
"33 465 LINE",
"33 520 LINE",
"120 520 LINE",
"120 576 LINE",
"121 626 LINE",
"152 695 LINE",
"202 738 LINE",
"265 757 LINE"
);
}
);
};
hints = (
{
place = "{120, 90}";
type = Stem;
},
{
place = "{378, 50}";
type = Stem;
},
{
horizontal = 1;
place = "{0, 30}";
type = Stem;
},
{
horizontal = 1;
place = "{465, 55}";
type = Stem;
},
{
horizontal = 1;
place = "{702, 55}";
type = Stem;
}
);
layerId = UUID0;
paths = (
{
closed = 1;
nodes = (
"311 0 LINE",
"321 48 LINE",
"210 62 LINE",
"210 465 LINE",
"343 465 LINE",
"343 520 LINE",
"210 520 LINE",
"210 575 LINE SMOOTH",
"210 672 OFFCURVE",
"237 702 OFFCURVE",
"297 702 CURVE SMOOTH",
"313 702 OFFCURVE",
"334 698 OFFCURVE",
"350 690 CURVE",
"378 580 LINE",
"428 590 LINE",
"428 723 LINE",
"389 746 OFFCURVE",
"336 757 OFFCURVE",
"297 757 CURVE SMOOTH",
"212 757 OFFCURVE",
"121 709 OFFCURVE",
"121 576 CURVE",
"120 520 LINE",
"33 520 LINE",
"33 465 LINE",
"120 465 LINE",
"120 60 LINE",
"33 30 LINE",
"33 0 LINE"
);
}
);
width = 370;
}
);
leftKerningGroup = f;
rightKerningGroup = f;
unicode = 0066;
},
{
glyphname = g;
layers = (
{
background = {
paths = (
{
closed = 1;
nodes = (
"264 161 LINE",
"248 161 LINE",
"215 164 LINE",
"200 168 LINE",
"183 155 LINE",
"159 121 LINE",
"159 102 LINE",
"159 85 LINE",
"190 62 LINE",
"224 61 LINE",
"412 61 LINE",
"476 59 LINE",
"531 -2 LINE",
"531 -44 LINE",
"531 -92 LINE",
"477 -168 LINE",
"392 -220 LINE",
"285 -247 LINE",
"231 -247 LINE",
"142 -247 LINE",
"33 -182 LINE",
"33 -114 LINE",
"33 -76 LINE",
"80 -19 LINE",
"120 7 LINE",
"80 36 LINE",
"80 83 LINE",
"80 109 LINE",
"117 165 LINE",
"150 185 LINE",
"106 205 LINE",
"51 279 LINE",
"51 339 LINE",
"51 390 LINE",
"85 462 LINE",
"144 508 LINE",
"222 530 LINE",
"263 530 LINE",
"302 530 LINE",
"371 510 LINE",
"396 489 LINE",
"411 489 LINE",
"467 492 LINE",
"496 494 LINE",
"528 496 LINE",
"566 499 LINE",
"566 430 LINE",
"441 433 LINE",
"460 393 LINE",
"460 339 LINE",
"460 289 LINE",
"428 221 LINE",
"372 179 LINE",
"301 161 LINE"
);
},
{
closed = 1;
nodes = (
"266 216 LINE",
"315 216 LINE",
"360 285 LINE",
"360 339 LINE",
"360 367 LINE",
"348 417 LINE",
"323 455 LINE",
"283 477 LINE",
"255 477 LINE",
"229 477 LINE",
"189 456 LINE",
"164 419 LINE",
"150 370 LINE",
"150 342 LINE",
"150 315 LINE",
"164 269 LINE",
"191 235 LINE",
"234 216 LINE"
);
},
{
closed = 1;
nodes = (
"245 -24 LINE",
"194 -24 LINE",
"158 -11 LINE",
"124 -50 LINE",
"124 -87 LINE",
"124 -116 LINE",
"146 -155 LINE",
"186 -179 LINE",
"242 -189 LINE",
"274 -189 LINE",
"310 -189 LINE",
"377 -171 LINE",
"431 -141 LINE",
"462 -101 LINE",
"462 -79 LINE",
"462 -50 LINE",
"421 -24 LINE",
"364 -24 LINE"
);
}
);
};
hints = (
{
place = "{25, 119}";
type = Stem;
},
{
place = "{70, 100}";
type = Stem;
},
{
place = "{340, 145}";
type = Stem;
},
{
place = "{434, 106}";
type = Stem;
},
{
horizontal = 1;
place = "{-247, 78}";
type = Stem;
},
{
horizontal = 1;
place = "{-47, 118}";
type = Stem;
},
{
horizontal = 1;
place = "{152, 74}";
type = Stem;
},
{
horizontal = 1;
place = "{419, 90}";
type = Stem;
},
{
horizontal = 1;
place = "{465, 75}";
type = Stem;
}
);
layerId = "03739D6D-2A00-4CFA-A48A-FF6A1F8AF183";
paths = (
{
closed = 1;
nodes = (
"373 -247 OFFCURVE",
"540 -177 OFFCURVE",
"540 -44 CURVE SMOOTH",
"540 25 OFFCURVE",
"504 68 OFFCURVE",
"419 71 CURVE",
"239 71 LINE",
"195 72 OFFCURVE",
"174 89 OFFCURVE",
"174 112 CURVE SMOOTH",
"174 137 OFFCURVE",
"192 146 OFFCURVE",
"215 158 CURVE",
"233 154 OFFCURVE",
"251 152 OFFCURVE",
"269 152 CURVE SMOOTH",
"377 152 OFFCURVE",
"485 222 OFFCURVE",
"485 339 CURVE SMOOTH",
"485 375 OFFCURVE",
"480 394 OFFCURVE",
"467 421 CURVE",
"592 418 LINE",
"592 509 LINE",
"567 507 OFFCURVE",
"543 505 OFFCURVE",
"521 504 CURVE SMOOTH",
"482 501 OFFCURVE",
"441 499 OFFCURVE",
"422 499 CURVE",
"387 527 OFFCURVE",
"315 540 OFFCURVE",
"263 540 CURVE SMOOTH",
"128 540 OFFCURVE",
"25 464 OFFCURVE",
"25 339 CURVE SMOOTH",
"25 249 OFFCURVE",
"82 207 OFFCURVE",
"141 180 CURVE",
"100 159 OFFCURVE",
"70 123 OFFCURVE",
"70 83 CURVE SMOOTH",
"70 52 OFFCURVE",
"79 21 OFFCURVE",
"106 -3 CURVE",
"59 -26 OFFCURVE",
"25 -63 OFFCURVE",
"25 -114 CURVE SMOOTH",
"25 -205 OFFCURVE",
"107 -247 OFFCURVE",
"232 -247 CURVE SMOOTH"
);
},
{
closed = 1;
nodes = (
"212 -169 OFFCURVE",
"140 -157 OFFCURVE",
"144 -95 CURVE SMOOTH",
"146 -67 OFFCURVE",
"159 -56 OFFCURVE",
"171 -42 CURVE",
"189 -49 OFFCURVE",
"216 -47 OFFCURVE",
"246 -47 CURVE SMOOTH",
"361 -47 LINE SMOOTH",
"417 -47 OFFCURVE",
"434 -57 OFFCURVE",
"434 -83 CURVE SMOOTH",
"434 -136 OFFCURVE",
"358 -169 OFFCURVE",
"273 -169 CURVE SMOOTH"
);
},
{
closed = 1;
nodes = (
"194 226 OFFCURVE",
"170 270 OFFCURVE",
"170 342 CURVE SMOOTH",
"170 420 OFFCURVE",
"196 465 OFFCURVE",
"256 465 CURVE SMOOTH",
"318 465 OFFCURVE",
"340 414 OFFCURVE",
"340 339 CURVE SMOOTH",
"340 258 OFFCURVE",
"322 226 OFFCURVE",
"266 226 CURVE SMOOTH"
);
}
);
width = 598;
},
{
background = {
paths = (
{
closed = 1;
nodes = (
"266 161 LINE",
"250 161 LINE",
"217 164 LINE",
"202 168 LINE",
"185 155 LINE",
"161 121 LINE",
"161 102 LINE",
"161 85 LINE",
"192 62 LINE",
"226 61 LINE",
"414 61 LINE",
"478 59 LINE",
"533 -2 LINE",
"533 -44 LINE",
"533 -92 LINE",
"479 -168 LINE",
"394 -220 LINE",
"287 -247 LINE",
"233 -247 LINE",
"144 -247 LINE",
"35 -182 LINE",
"35 -114 LINE",
"35 -76 LINE",
"82 -19 LINE",
"122 7 LINE",
"82 36 LINE",
"82 83 LINE",
"82 109 LINE",
"119 165 LINE",
"152 185 LINE",
"108 205 LINE",
"53 279 LINE",
"53 339 LINE",
"53 390 LINE",
"87 462 LINE",
"146 508 LINE",
"224 530 LINE",
"265 530 LINE",
"304 530 LINE",
"373 510 LINE",
"398 489 LINE",
"413 489 LINE",
"469 492 LINE",
"498 494 LINE",
"530 496 LINE",
"568 499 LINE",
"568 430 LINE",
"443 433 LINE",
"462 393 LINE",
"462 339 LINE",
"462 289 LINE",
"430 221 LINE",
"374 179 LINE",
"303 161 LINE"
);
},
{
closed = 1;
nodes = (
"268 216 LINE",
"317 216 LINE",
"362 285 LINE",
"362 339 LINE",
"362 367 LINE",
"350 417 LINE",
"325 455 LINE",
"285 477 LINE",
"257 477 LINE",
"231 477 LINE",
"191 456 LINE",
"166 419 LINE",
"152 370 LINE",
"152 342 LINE",
"152 315 LINE",
"166 269 LINE",
"193 235 LINE",
"236 216 LINE"
);
},
{
closed = 1;
nodes = (
"247 -24 LINE",
"196 -24 LINE",
"160 -11 LINE",
"126 -50 LINE",
"126 -87 LINE",
"126 -116 LINE",
"148 -155 LINE",
"188 -179 LINE",
"244 -189 LINE",
"276 -189 LINE",
"312 -189 LINE",
"379 -171 LINE",
"433 -141 LINE",
"464 -101 LINE",
"464 -79 LINE",
"464 -50 LINE",
"423 -24 LINE",
"366 -24 LINE"
);
}
);
};
hints = (
{
place = "{53, 99}";
type = Stem;
},
{
place = "{362, 100}";
type = Stem;
},
{
place = "{82, 79}";
type = Stem;
},
{
place = "{35, 91}";
type = Stem;
},
{
place = "{464, 69}";
type = Stem;
},
{
horizontal = 1;
place = "{-247, 58}";
type = Stem;
},
{
horizontal = 1;
place = "{-24, 85}";
type = Stem;
},
{
horizontal = 1;
place = "{161, 55}";
type = Stem;
},
{
horizontal = 1;
place = "{477, 53}";
type = Stem;
},
{
horizontal = 1;
place = "{431, 57}";
type = Stem;
},
{
horizontal = 1;
place = "{-11, 21}";
target = up;
type = BottomGhost;
}
);
layerId = UUID0;
paths = (
{
closed = 1;
nodes = (
"375 -247 OFFCURVE",
"533 -173 OFFCURVE",
"533 -44 CURVE SMOOTH",
"533 12 OFFCURVE",
"499 58 OFFCURVE",
"414 61 CURVE",
"226 61 LINE",
"182 62 OFFCURVE",
"161 79 OFFCURVE",
"161 102 CURVE SMOOTH",
"161 127 OFFCURVE",
"179 151 OFFCURVE",
"202 168 CURVE",
"223 163 OFFCURVE",
"245 161 OFFCURVE",
"266 161 CURVE SMOOTH",
"366 161 OFFCURVE",
"462 206 OFFCURVE",
"462 339 CURVE SMOOTH",
"462 375 OFFCURVE",
"457 406 OFFCURVE",
"444 433 CURVE",
"569 430 LINE",
"569 499 LINE",
"544 497 OFFCURVE",
"520 495 OFFCURVE",
"498 494 CURVE SMOOTH",
"459 491 OFFCURVE",
"418 489 OFFCURVE",
"399 489 CURVE",
"364 517 OFFCURVE",
"317 530 OFFCURVE",
"265 530 CURVE SMOOTH",
"150 530 OFFCURVE",
"53 474 OFFCURVE",
"53 339 CURVE SMOOTH",
"53 259 OFFCURVE",
"94 212 OFFCURVE",
"153 185 CURVE",
"108 158 OFFCURVE",
"82 118 OFFCURVE",
"82 83 CURVE SMOOTH",
"82 52 OFFCURVE",
"95 26 OFFCURVE",
"122 7 CURVE",
"69 -28 OFFCURVE",
"35 -63 OFFCURVE",
"35 -114 CURVE SMOOTH",
"35 -205 OFFCURVE",
"114 -247 OFFCURVE",
"234 -247 CURVE SMOOTH"
);
},
{
closed = 1;
nodes = (
"189 -189 OFFCURVE",
"126 -164 OFFCURVE",
"126 -87 CURVE SMOOTH",
"126 -62 OFFCURVE",
"138 -37 OFFCURVE",
"160 -11 CURVE",
"185 -20 OFFCURVE",
"214 -24 OFFCURVE",
"247 -24 CURVE SMOOTH",
"366 -24 LINE SMOOTH",
"443 -24 OFFCURVE",
"464 -40 OFFCURVE",
"464 -79 CURVE SMOOTH",
"464 -138 OFFCURVE",
"371 -189 OFFCURVE",
"277 -189 CURVE SMOOTH"
);
},
{
closed = 1;
nodes = (
"186 216 OFFCURVE",
"152 270 OFFCURVE",
"152 342 CURVE SMOOTH",
"152 420 OFFCURVE",
"188 477 OFFCURVE",
"258 477 CURVE SMOOTH",
"330 477 OFFCURVE",
"362 414 OFFCURVE",
"362 339 CURVE SMOOTH",
"362 268 OFFCURVE",
"335 216 OFFCURVE",
"268 216 CURVE SMOOTH"
);
}
);
width = 568;
}
);
leftKerningGroup = g;
rightKerningGroup = g;
unicode = 0067;
},
{
glyphname = h;
layers = (
{
background = {
paths = (
{
closed = 1;
nodes = (
"263 445 LINE",
"280 466 LINE",
"323 497 LINE",
"369 518 LINE",
"415 529 LINE",
"436 529 LINE",
"508 529 LINE",
"587 441 LINE",
"587 345 LINE",
"588 62 LINE",
"668 45 LINE",
"658 0 LINE",
"421 0 LINE",
"421 30 LINE",
"498 60 LINE",
"498 325 LINE",
"498 362 LINE",
"486 410 LINE",
"462 437 LINE",
"426 447 LINE",
"402 447 LINE",
"382 447 LINE",
"341 440 LINE",
"304 426 LINE",
"273 408 LINE",
"263 396 LINE",
"263 62 LINE",
"338 48 LINE",
"328 0 LINE",
"85 0 LINE",
"85 30 LINE",
"173 60 LINE",
"173 669 LINE",
"90 685 LINE",
"85 726 LINE",
"263 750 LINE"
);
}
);
};
hints = (
{
place = "{117, 140}";
type = Stem;
},
{
place = "{492, 140}";
type = Stem;
},
{
horizontal = 1;
place = "{437, 102}";
type = Stem;
},
{
horizontal = 1;
place = "{0, 21}";
target = up;
type = BottomGhost;
},
{
horizontal = 1;
place = "{760, -20}";
target = down;
type = TopGhost;
}
);
layerId = "03739D6D-2A00-4CFA-A48A-FF6A1F8AF183";
paths = (
{
closed = 1;
nodes = (
"322 0 LINE",
"332 53 LINE",
"257 67 LINE",
"257 384 LINE",
"283 415 OFFCURVE",
"343 437 OFFCURVE",
"396 437 CURVE SMOOTH",
"470 437 OFFCURVE",
"492 400 OFFCURVE",
"492 315 CURVE SMOOTH",
"492 65 LINE",
"414 35 LINE",
"414 0 LINE",
"697 0 LINE",
"707 53 LINE",
"632 67 LINE",
"632 355 LINE",
"629 493 OFFCURVE",
"526 539 OFFCURVE",
"430 539 CURVE SMOOTH",
"375 539 OFFCURVE",
"302 514 OFFCURVE",
"257 459 CURVE",
"257 760 LINE",
"31 728 LINE",
"36 677 LINE",
"117 662 LINE",
"117 65 LINE",
"29 35 LINE",
"29 0 LINE"
);
}
);
width = 736;
},
{
background = {
paths = (
{
closed = 1;
nodes = (
"191 445 LINE",
"208 466 LINE",
"251 497 LINE",
"297 518 LINE",
"343 529 LINE",
"364 529 LINE",
"436 529 LINE",
"515 441 LINE",
"515 345 LINE",
"516 62 LINE",
"596 45 LINE",
"586 0 LINE",
"349 0 LINE",
"349 30 LINE",
"426 60 LINE",
"426 325 LINE",
"426 362 LINE",
"414 410 LINE",
"390 437 LINE",
"354 447 LINE",
"330 447 LINE",
"310 447 LINE",
"269 440 LINE",
"232 426 LINE",
"201 408 LINE",
"191 396 LINE",
"191 62 LINE",
"266 48 LINE",
"256 0 LINE",
"13 0 LINE",
"13 30 LINE",
"101 60 LINE",
"101 669 LINE",
"18 685 LINE",
"13 726 LINE",
"191 750 LINE"
);
}
);
};
hints = (
{
place = "{101, 90}";
type = Stem;
},
{
place = "{426, 89}";
type = Stem;
},
{
horizontal = 1;
place = "{0, 30}";
type = Stem;
},
{
horizontal = 1;
place = "{447, 82}";
type = Stem;
}
);
layerId = UUID0;
paths = (
{
closed = 1;
nodes = (
"256 0 LINE",
"266 48 LINE",
"191 62 LINE",
"191 396 LINE",
"217 427 OFFCURVE",
"277 447 OFFCURVE",
"330 447 CURVE SMOOTH",
"394 447 OFFCURVE",
"426 425 OFFCURVE",
"426 325 CURVE SMOOTH",
"426 60 LINE",
"349 30 LINE",
"349 0 LINE",
"586 0 LINE",
"596 45 LINE",
"516 62 LINE",
"515 345 LINE SMOOTH",
"515 473 OFFCURVE",
"460 529 OFFCURVE",
"364 529 CURVE SMOOTH",
"309 529 OFFCURVE",
"236 500 OFFCURVE",
"191 445 CURVE",
"191 750 LINE",
"13 726 LINE",
"18 685 LINE",
"101 669 LINE",
"101 60 LINE",
"13 30 LINE",
"13 0 LINE"
);
}
);
width = 610;
}
);
leftKerningGroup = I;
rightKerningGroup = n;
unicode = 0068;
},
{
glyphname = i;
layers = (
{
background = {
paths = (
{
closed = 1;
nodes = (
"257 62 LINE",
"332 48 LINE",
"322 0 LINE",
"79 0 LINE",
"79 30 LINE",
"167 60 LINE",
"167 447 LINE",
"86 462 LINE",
"81 503 LINE",
"257 527 LINE"
);
},
{
closed = 1;
nodes = (
"134 673 LINE",
"159 717 LINE",
"204 742 LINE",
"248 719 LINE",
"271 675 LINE",
"245 631 LINE",
"201 606 LINE",
"180 617 LINE",
"145 652 LINE"
);
}
);
};
hints = (
{
place = "{122, 140}";
type = Stem;
},
{
horizontal = 1;
place = "{0, 21}";
target = up;
type = BottomGhost;
},
{
horizontal = 1;
place = "{757, -20}";
target = down;
type = TopGhost;
}
);
layerId = "03739D6D-2A00-4CFA-A48A-FF6A1F8AF183";
paths = (
{
closed = 1;
nodes = (
"327 0 LINE",
"337 53 LINE",
"262 67 LINE",
"262 542 LINE",
"36 510 LINE",
"41 459 LINE",
"122 444 LINE",
"122 65 LINE",
"34 35 LINE",
"34 0 LINE"
);
},
{
closed = 1;
nodes = (
"195 608 OFFCURVE",
"244 646 OFFCURVE",
"261 675 CURVE",
"246 704 OFFCURVE",
"198 742 OFFCURVE",
"169 757 CURVE",
"139 740 OFFCURVE",
"91 702 OFFCURVE",
"74 673 CURVE",
"89 645 OFFCURVE",
"138 606 OFFCURVE",
"166 591 CURVE"
);
}
);
width = 363;
},
{
background = {
paths = (
{
closed = 1;
nodes = (
"206 62 LINE",
"281 48 LINE",
"271 0 LINE",
"28 0 LINE",
"28 30 LINE",
"116 60 LINE",
"116 447 LINE",
"35 462 LINE",
"30 503 LINE",
"206 527 LINE"
);
},
{
closed = 1;
nodes = (
"83 673 LINE",
"108 717 LINE",
"153 742 LINE",
"197 719 LINE",
"220 675 LINE",
"194 631 LINE",
"150 606 LINE",
"129 617 LINE",
"94 652 LINE"
);
}
);
};
hints = (
{
place = "{116, 90}";
type = Stem;
},
{
horizontal = 1;
place = "{0, 30}";
type = Stem;
},
{
horizontal = 1;
place = "{527, -20}";
target = down;
type = TopGhost;
}
);
layerId = UUID0;
paths = (
{
closed = 1;
nodes = (
"271 0 LINE",
"281 48 LINE",
"206 62 LINE",
"206 527 LINE",
"30 503 LINE",
"35 462 LINE",
"116 447 LINE",
"116 60 LINE",
"28 30 LINE",
"28 0 LINE"
);
},
{
closed = 1;
nodes = (
"179 623 OFFCURVE",
"203 646 OFFCURVE",
"220 675 CURVE",
"205 704 OFFCURVE",
"182 727 OFFCURVE",
"153 742 CURVE",
"123 725 OFFCURVE",
"100 702 OFFCURVE",
"83 673 CURVE",
"98 645 OFFCURVE",
"122 621 OFFCURVE",
"150 606 CURVE"
);
}
);
width = 305;
}
);
leftKerningGroup = idotless;
rightKerningGroup = idotless;
unicode = 0069;
},
{
glyphname = idotless;
layers = (
{
anchors = (
{
name = bottom;
position = "{182, 0}";
},
{
name = ogonek;
position = "{337, 0}";
},
{
name = top;
position = "{199, 530}";
}
);
background = {
paths = (
{
closed = 1;
nodes = (
"210 62 LINE",
"285 48 LINE",
"275 0 LINE",
"32 0 LINE",
"32 30 LINE",
"120 60 LINE",
"120 447 LINE",
"39 462 LINE",
"34 503 LINE",
"210 527 LINE"
);
}
);
};
hints = (
{
place = "{122, 140}";
type = Stem;
},
{
horizontal = 1;
place = "{0, 21}";
target = up;
type = BottomGhost;
},
{
horizontal = 1;
place = "{542, -20}";
target = down;
type = TopGhost;
}
);
layerId = "03739D6D-2A00-4CFA-A48A-FF6A1F8AF183";
paths = (
{
closed = 1;
nodes = (
"327 0 LINE",
"337 53 LINE",
"262 67 LINE",
"262 542 LINE",
"36 510 LINE",
"41 459 LINE",
"122 444 LINE",
"122 65 LINE",
"34 35 LINE",
"34 0 LINE"
);
}
);
width = 363;
},
{
anchors = (
{
name = bottom;
position = "{153, 0}";
},
{
name = ogonek;
position = "{281, 0}";
},
{
name = top;
position = "{173, 520}";
}
);
background = {
paths = (
{
closed = 1;
nodes = (
"206 62 LINE",
"281 48 LINE",
"271 0 LINE",
"28 0 LINE",
"28 30 LINE",
"116 60 LINE",
"116 447 LINE",
"35 462 LINE",
"30 503 LINE",
"206 527 LINE"
);
}
);
};
hints = (
{
place = "{116, 90}";
type = Stem;
},
{
horizontal = 1;
place = "{0, 30}";
type = Stem;
},
{
horizontal = 1;
place = "{527, -20}";
target = down;
type = TopGhost;
}
);
layerId = UUID0;
paths = (
{
closed = 1;
nodes = (
"271 0 LINE",
"281 48 LINE",
"206 62 LINE",
"206 527 LINE",
"30 503 LINE",
"35 462 LINE",
"116 447 LINE",
"116 60 LINE",
"28 30 LINE",
"28 0 LINE"
);
}
);
width = 305;
}
);
leftKerningGroup = idotless;
rightKerningGroup = idotless;
unicode = 0131;
},
{
glyphname = iacute;
layers = (
{
components = (
{
name = idotless;
},
{
name = acutecomb;
transform = "{1, 0, 0, 1, 99, 0}";
}
);
layerId = "03739D6D-2A00-4CFA-A48A-FF6A1F8AF183";
width = 363;
},
{
background = {
paths = (
{
closed = 1;
nodes = (
"206 62 LINE",
"281 48 LINE",
"271 0 LINE",
"28 0 LINE",
"28 30 LINE",
"116 60 LINE",
"116 447 LINE",
"35 462 LINE",
"30 503 LINE",
"206 527 LINE"
);
},
{
closed = 1;
nodes = (
"187 565 LINE",
"132 565 LINE",
"219 748 LINE",
"317 748 LINE"
);
}
);
};
components = (
{
name = idotless;
},
{
name = acutecomb;
transform = "{1, 0, 0, 1, 112, 0}";
}
);
layerId = UUID0;
width = 305;
}
);
leftKerningGroup = idotless;
rightKerningGroup = idotless;
unicode = 00ED;
},
{
glyphname = icircumflex;
layers = (
{
components = (
{
name = idotless;
},
{
name = circumflexcomb;
transform = "{1, 0, 0, 1, -63, 0}";
}
);
layerId = "03739D6D-2A00-4CFA-A48A-FF6A1F8AF183";
width = 363;
},
{
background = {
paths = (
{
closed = 1;
nodes = (
"206 62 LINE",
"281 48 LINE",
"271 0 LINE",
"28 0 LINE",
"28 30 LINE",
"116 60 LINE",
"116 447 LINE",
"35 462 LINE",
"30 503 LINE",
"206 527 LINE"
);
},
{
closed = 1;
nodes = (
"159 701 LINE",
"62 570 LINE",
"7 570 LINE",
"124 749 LINE",
"124 750 LINE",
"194 750 LINE",
"193 749 LINE",
"311 570 LINE",
"255 570 LINE"
);
}
);
};
components = (
{
name = idotless;
},
{
name = circumflexcomb;
transform = "{1, 0, 0, 1, -89, 0}";
}
);
layerId = UUID0;
width = 305;
}
);
leftKerningGroup = idotless;
rightKerningGroup = idotless;
unicode = 00EE;
},
{
glyphname = idieresis;
layers = (
{
components = (
{
name = idotless;
},
{
name = dieresiscomb;
transform = "{1, 0, 0, 1, 11, 0}";
}
);
layerId = "03739D6D-2A00-4CFA-A48A-FF6A1F8AF183";
width = 363;
},
{
background = {
paths = (
{
closed = 1;
nodes = (
"206 62 LINE",
"281 48 LINE",
"271 0 LINE",
"28 0 LINE",
"28 30 LINE",
"116 60 LINE",
"116 447 LINE",
"35 462 LINE",
"30 503 LINE",
"206 527 LINE"
);
},
{
closed = 1;
nodes = (
"201 658 LINE",
"224 699 LINE",
"266 722 LINE",
"306 700 LINE",
"328 660 LINE",
"304 619 LINE",
"263 596 LINE",
"222 617 LINE"
);
},
{
closed = 1;
nodes = (
"-10 658 LINE",
"13 699 LINE",
"55 722 LINE",
"95 700 LINE",
"117 660 LINE",
"93 619 LINE",
"52 596 LINE",
"11 617 LINE"
);
}
);
};
components = (
{
name = idotless;
},
{
name = dieresiscomb;
transform = "{1, 0, 0, 1, -15, 0}";
}
);
layerId = UUID0;
width = 305;
}
);
leftKerningGroup = idotless;
rightKerningGroup = idotless;
unicode = 00EF;
},
{
glyphname = igrave;
layers = (
{
components = (
{
name = idotless;
},
{
name = gravecomb;
transform = "{1, 0, 0, 1, -97, 0}";
}
);
layerId = "03739D6D-2A00-4CFA-A48A-FF6A1F8AF183";
width = 363;
},
{
background = {
paths = (
{
closed = 1;
nodes = (
"206 62 LINE",
"281 48 LINE",
"271 0 LINE",
"28 0 LINE",
"28 30 LINE",
"116 60 LINE",
"116 447 LINE",
"35 462 LINE",
"30 503 LINE",
"206 527 LINE"
);
},
{
closed = 1;
nodes = (
"-17 750 LINE",
"81 750 LINE",
"188 582 LINE",
"133 582 LINE"
);
}
);
};
components = (
{
name = idotless;
},
{
name = gravecomb;
transform = "{1, 0, 0, 1, -104, 0}";
}
);
layerId = UUID0;
width = 305;
}
);
leftKerningGroup = idotless;
rightKerningGroup = idotless;
unicode = 00EC;
},
{
glyphname = j;
layers = (
{
background = {
paths = (
{
closed = 1;
nodes = (
"123 447 LINE",
"42 462 LINE",
"37 503 LINE",
"213 527 LINE",
"213 -43 LINE",
"213 -89 LINE",
"184 -160 LINE",
"136 -209 LINE",
"73 -234 LINE",
"39 -234 LINE",
"11 -234 LINE",
"-47 -217 LINE",
"-74 -199 LINE",
"-74 -66 LINE",
"-24 -56 LINE",
"4 -165 LINE",
"34 -177 LINE",
"55 -177 LINE",
"79 -177 LINE",
"106 -152 LINE",
"119 -113 LINE",
"123 -64 LINE",
"123 -41 LINE"
);
},
{
closed = 1;
nodes = (
"91 673 LINE",
"116 717 LINE",
"161 742 LINE",
"205 719 LINE",
"228 675 LINE",
"202 631 LINE",
"158 606 LINE",
"137 617 LINE",
"102 652 LINE"
);
}
);
};
hints = (
{
place = "{123, 140}";
type = Stem;
},
{
horizontal = 1;
place = "{-234, 72}";
type = Stem;
},
{
horizontal = 1;
place = "{757, -20}";
target = down;
type = TopGhost;
}
);
layerId = "03739D6D-2A00-4CFA-A48A-FF6A1F8AF183";
paths = (
{
closed = 1;
nodes = (
"150 -234 OFFCURVE",
"263 -181 OFFCURVE",
"263 -28 CURVE SMOOTH",
"263 543 LINE",
"37 511 LINE",
"42 460 LINE",
"123 445 LINE",
"123 -26 LINE SMOOTH",
"123 -80 OFFCURVE",
"122 -162 OFFCURVE",
"54 -162 CURVE SMOOTH",
"43 -162 OFFCURVE",
"34 -159 OFFCURVE",
"19 -150 CURVE",
"-9 -38 LINE",
"-74 -51 LINE",
"-74 -199 LINE",
"-38 -223 OFFCURVE",
"2 -234 OFFCURVE",
"39 -234 CURVE SMOOTH"
);
},
{
closed = 1;
nodes = (
"197 608 OFFCURVE",
"246 646 OFFCURVE",
"263 675 CURVE",
"248 704 OFFCURVE",
"200 742 OFFCURVE",
"171 757 CURVE",
"141 740 OFFCURVE",
"93 702 OFFCURVE",
"76 673 CURVE",
"91 645 OFFCURVE",
"140 606 OFFCURVE",
"168 591 CURVE"
);
}
);
width = 324;
},
{
background = {
paths = (
{
closed = 1;
nodes = (
"101 447 LINE",
"20 462 LINE",
"15 503 LINE",
"191 527 LINE",
"191 -43 LINE",
"191 -89 LINE",
"162 -160 LINE",
"114 -209 LINE",
"51 -234 LINE",
"17 -234 LINE",
"-11 -234 LINE",
"-69 -217 LINE",
"-96 -199 LINE",
"-96 -66 LINE",
"-46 -56 LINE",
"-18 -165 LINE",
"12 -177 LINE",
"33 -177 LINE",
"57 -177 LINE",
"84 -152 LINE",
"97 -113 LINE",
"101 -64 LINE",
"101 -41 LINE"
);
},
{
closed = 1;
nodes = (
"69 673 LINE",
"94 717 LINE",
"139 742 LINE",
"183 719 LINE",
"206 675 LINE",
"180 631 LINE",
"136 606 LINE",
"115 617 LINE",
"80 652 LINE"
);
}
);
};
hints = (
{
place = "{101, 90}";
type = Stem;
},
{
horizontal = 1;
place = "{-234, 57}";
type = Stem;
},
{
horizontal = 1;
place = "{527, -20}";
target = down;
type = TopGhost;
}
);
layerId = UUID0;
paths = (
{
closed = 1;
nodes = (
"108 -234 OFFCURVE",
"191 -166 OFFCURVE",
"191 -43 CURVE SMOOTH",
"191 527 LINE",
"15 503 LINE",
"20 462 LINE",
"101 447 LINE",
"101 -41 LINE SMOOTH",
"101 -103 OFFCURVE",
"96 -177 OFFCURVE",
"33 -177 CURVE SMOOTH",
"19 -177 OFFCURVE",
"2 -173 OFFCURVE",
"-18 -165 CURVE",
"-46 -56 LINE",
"-96 -66 LINE",
"-96 -199 LINE",
"-60 -223 OFFCURVE",
"-20 -234 OFFCURVE",
"17 -234 CURVE SMOOTH"
);
},
{
closed = 1;
nodes = (
"165 623 OFFCURVE",
"189 646 OFFCURVE",
"206 675 CURVE",
"191 704 OFFCURVE",
"168 727 OFFCURVE",
"139 742 CURVE",
"109 725 OFFCURVE",
"86 702 OFFCURVE",
"69 673 CURVE",
"84 645 OFFCURVE",
"108 621 OFFCURVE",
"136 606 CURVE"
);
}
);
width = 273;
}
);
leftKerningGroup = jdotless;
rightKerningGroup = jdotless;
unicode = 006A;
},
{
glyphname = k;
layers = (
{
background = {
paths = (
{
closed = 1;
nodes = (
"262 62 LINE",
"337 48 LINE",
"327 0 LINE",
"84 0 LINE",
"84 30 LINE",
"172 60 LINE",
"172 670 LINE",
"91 685 LINE",
"86 726 LINE",
"262 750 LINE",
"262 262 LINE",
"460 461 LINE",
"396 472 LINE",
"406 520 LINE",
"627 520 LINE",
"627 490 LINE",
"530 454 LINE",
"408 332 LINE",
"581 61 LINE",
"653 48 LINE",
"643 0 LINE",
"513 0 LINE",
"344 266 LINE",
"262 186 LINE"
);
}
);
};
hints = (
{
place = "{122, 140}";
type = Stem;
},
{
horizontal = 1;
place = "{0, 21}";
target = up;
type = BottomGhost;
},
{
horizontal = 1;
place = "{530, -20}";
target = down;
type = TopGhost;
},
{
horizontal = 1;
place = "{760, -20}";
target = down;
type = TopGhost;
}
);
layerId = "03739D6D-2A00-4CFA-A48A-FF6A1F8AF183";
paths = (
{
closed = 1;
nodes = (
"337 0 LINE",
"347 53 LINE",
"262 67 LINE",
"262 173 LINE",
"338 246 LINE",
"492 0 LINE",
"673 0 LINE",
"683 53 LINE",
"611 66 LINE",
"432 340 LINE",
"548 459 LINE",
"645 495 LINE",
"645 530 LINE",
"396 530 LINE",
"386 477 LINE",
"450 466 LINE",
"262 277 LINE",
"262 760 LINE",
"36 729 LINE",
"41 678 LINE",
"122 663 LINE",
"122 65 LINE",
"34 35 LINE",
"34 0 LINE"
);
}
);
width = 704;
},
{
background = {
paths = (
{
closed = 1;
nodes = (
"191 62 LINE",
"266 48 LINE",
"256 0 LINE",
"13 0 LINE",
"13 30 LINE",
"101 60 LINE",
"101 670 LINE",
"20 685 LINE",
"15 726 LINE",
"191 750 LINE",
"191 262 LINE",
"389 461 LINE",
"325 472 LINE",
"335 520 LINE",
"556 520 LINE",
"556 490 LINE",
"459 454 LINE",
"337 332 LINE",
"510 61 LINE",
"582 48 LINE",
"572 0 LINE",
"442 0 LINE",
"273 266 LINE",
"191 186 LINE"
);
}
);
};
hints = (
{
place = "{101, 90}";
type = Stem;
},
{
horizontal = 1;
place = "{0, 30}";
type = Stem;
},
{
horizontal = 1;
place = "{490, 30}";
type = Stem;
},
{
horizontal = 1;
place = "{472, 48}";
type = Stem;
},
{
horizontal = 1;
place = "{461, 59}";
type = Stem;
}
);
layerId = UUID0;
paths = (
{
closed = 1;
nodes = (
"256 0 LINE",
"266 48 LINE",
"191 62 LINE",
"191 186 LINE",
"273 266 LINE",
"442 0 LINE",
"572 0 LINE",
"582 48 LINE",
"510 61 LINE",
"337 332 LINE",
"459 454 LINE",
"556 490 LINE",
"556 520 LINE",
"335 520 LINE",
"325 472 LINE",
"389 461 LINE",
"191 262 LINE",
"191 750 LINE",
"15 726 LINE",
"20 685 LINE",
"101 670 LINE",
"101 60 LINE",
"13 30 LINE",
"13 0 LINE"
);
}
);
width = 587;
}
);
leftKerningGroup = I;
rightKerningGroup = k;
unicode = 006B;
},
{
glyphname = l;
layers = (
{
background = {
paths = (
{
closed = 1;
nodes = (
"210 62 LINE",
"295 48 LINE",
"285 0 LINE",
"32 0 LINE",
"32 30 LINE",
"120 60 LINE",
"120 670 LINE",
"39 685 LINE",
"34 726 LINE",
"210 750 LINE"
);
}
);
};
hints = (
{
place = "{123, 140}";
type = Stem;
},
{
horizontal = 1;
place = "{0, 21}";
target = up;
type = BottomGhost;
},
{
horizontal = 1;
place = "{760, -20}";
target = down;
type = TopGhost;
}
);
layerId = "03739D6D-2A00-4CFA-A48A-FF6A1F8AF183";
paths = (
{
closed = 1;
nodes = (
"338 0 LINE",
"348 53 LINE",
"263 67 LINE",
"263 760 LINE",
"37 729 LINE",
"42 678 LINE",
"123 663 LINE",
"123 65 LINE",
"35 35 LINE",
"35 0 LINE"
);
}
);
width = 371;
},
{
background = {
paths = (
{
closed = 1;
nodes = (
"191 62 LINE",
"276 48 LINE",
"266 0 LINE",
"13 0 LINE",
"13 30 LINE",
"101 60 LINE",
"101 670 LINE",
"20 685 LINE",
"15 726 LINE",
"191 750 LINE"
);
}
);
};
hints = (
{
place = "{101, 90}";
type = Stem;
},
{
horizontal = 1;
place = "{0, 30}";
type = Stem;
}
);
layerId = UUID0;
paths = (
{
closed = 1;
nodes = (
"266 0 LINE",
"276 48 LINE",
"191 62 LINE",
"191 750 LINE",
"15 726 LINE",
"20 685 LINE",
"101 670 LINE",
"101 60 LINE",
"13 30 LINE",
"13 0 LINE"
);
}
);
width = 292;
}
);
leftKerningGroup = I;
rightKerningGroup = l;
unicode = 006C;
},
